<mxfile host="Electron" modified="2023-12-17T13:24:23.739Z" agent="Mozilla/5.0 (Windows NT 10.0; Win64; x64) AppleWebKit/537.36 (KHTML, like Gecko) draw.io/22.0.3 Chrome/114.0.5735.289 Electron/25.8.4 Safari/537.36" etag="9HnctO15Np36S6O4jLan" version="22.0.3" type="device">
  <diagram name="Page-1" id="g-HJcAP9csvSG7krFRJP">
    <mxGraphModel dx="1434" dy="836" grid="1" gridSize="10" guides="1" tooltips="1" connect="1" arrows="1" fold="1" page="0" pageScale="1" pageWidth="850" pageHeight="1100" math="0" shadow="0">
      <root>
        <mxCell id="0" />
        <mxCell id="1" parent="0" />
        <mxCell id="UVocr931k_2hGVf8hIcp-7" value="Cheep length &amp;lt;= 160 characters;" style="shape=note;size=20;whiteSpace=wrap;html=1;spacingLeft=0;gradientColor=#F0FF24;fillColor=#1F1D1D;" vertex="1" parent="1">
          <mxGeometry x="40" y="480" width="240" height="40" as="geometry" />
        </mxCell>
        <mxCell id="UVocr931k_2hGVf8hIcp-10" style="edgeStyle=orthogonalEdgeStyle;shape=connector;rounded=0;orthogonalLoop=1;jettySize=auto;html=1;labelBackgroundColor=default;strokeColor=#FF3333;align=center;verticalAlign=bottom;fontFamily=Helvetica;fontSize=11;fontColor=default;endArrow=open;endSize=8;strokeWidth=2;" edge="1" parent="1" source="UVocr931k_2hGVf8hIcp-8" target="UVocr931k_2hGVf8hIcp-9">
          <mxGeometry relative="1" as="geometry">
            <Array as="points">
              <mxPoint x="480" y="260" />
              <mxPoint x="480" y="260" />
            </Array>
          </mxGeometry>
        </mxCell>
        <mxCell id="UVocr931k_2hGVf8hIcp-8" value="" style="ellipse;whiteSpace=wrap;html=1;aspect=fixed;gradientColor=#404040;" vertex="1" parent="1">
          <mxGeometry x="460" y="200" width="40" height="40" as="geometry" />
        </mxCell>
        <mxCell id="UVocr931k_2hGVf8hIcp-15" value="" style="edgeStyle=orthogonalEdgeStyle;shape=connector;rounded=0;orthogonalLoop=1;jettySize=auto;html=1;labelBackgroundColor=default;strokeColor=#FF3333;strokeWidth=2;align=center;verticalAlign=bottom;fontFamily=Helvetica;fontSize=11;fontColor=default;endArrow=open;endSize=8;" edge="1" parent="1" source="UVocr931k_2hGVf8hIcp-9" target="UVocr931k_2hGVf8hIcp-11">
          <mxGeometry relative="1" as="geometry" />
        </mxCell>
        <mxCell id="UVocr931k_2hGVf8hIcp-9" value="Display public timeline" style="rounded=1;whiteSpace=wrap;html=1;arcSize=40;fontColor=#000000;fillColor=#ffffc0;strokeColor=#FFA914;gradientColor=#F0C686;" vertex="1" parent="1">
          <mxGeometry x="400" y="280" width="160" height="40" as="geometry" />
        </mxCell>
        <mxCell id="UVocr931k_2hGVf8hIcp-11" value="Login" style="rounded=1;whiteSpace=wrap;html=1;arcSize=40;fontColor=#000000;fillColor=#ffffc0;strokeColor=#FFA914;gradientColor=#F0C686;" vertex="1" parent="1">
          <mxGeometry x="440" y="360" width="80" height="40" as="geometry" />
        </mxCell>
        <mxCell id="UVocr931k_2hGVf8hIcp-12" value="" style="shape=image;verticalLabelPosition=bottom;labelBackgroundColor=default;verticalAlign=top;aspect=fixed;imageAspect=0;image=data:image/png,iVBORw0KGgoAAAANSUhEUgAAAsQAAANnCAYAAAA2qk53AAAAAXNSR0IArs4c6QAAAARnQU1BAACxjwv8YQUAAAAJcEhZcwAADsMAAA7DAcdvqGQAAP+lSURBVHhe7N0HgBtnnTbwR31X23vxuvdeEsfpPSEJIZRA6HCUA+5od8dRj4PQ4WhH+SCEdqEmkN574iR2HMdx793e9fauLer63uddjbM2tuOy1X5+ZJA8mpVGI+3qmb/+844rZUBERERE5AzlTl+KiIiIiJyRFIhFRERE5IymQCwiIiIiZzQFYhERERE5oykQi4iIiMgZTYFYRERERM5oCsQiIiIickbTOMQiIjIk+HETj8cRDofR09OD3t5exGIxJBIJO9/lcsHr9cLj8SAQCCAzMxPBYBB+v9/OFxEZLArEIiIyJBh8m5qasG3bNqxduxabN29GXV0d2tvb7eTz+ZCfn2+niRMnYtasWVi4cCHGjx+PwsLC9L2IiAw8BWIRERk0/IiJRCLYt28f1q1bhw0bNmDXrl2orq5GfX09Ojs7D1aLWRl2qsJFRUUoLy/HuHHjMH36dMybN89OxcXFtmIsIjKQFIhFRGRQsCLMoLtnzx48//zzeOihh7Bq1SpbJT7ejx63243JkyfjvPPOww033IAFCxagqqrKVpN5m4jIQFAgFhGRQcE2iJ07d+LWW2/F8uXLbVWY1WD2C58I9hPn5ORgwoQJeNOb3oR3vvOdqKysREZGRnoJEZFTo0AsIiIDih8r3d3dePHFF3H33Xfj2WeftS0TrBafLFaD2UrBtonLLrsM11xzje0zzsrKsgfcsWLMSy7Hg/NERE6EArGIiAyoaDSKLVu24K9//St+9atfoaur64SrwkfD/mH2Fn/gAx/A+eefb9spWClm7zEvebsTihWMReR4qQFLREQGjFMdvv322/HII48gFArZXuKBwmHa2IN8zz33YOnSpWhtbbWtGTw4j8GbLRk8iI8BXPUeETleCsQiIjJgGFZXr16NV155BXv37rVheCCDKe+LgZf3vXHjRjtqBR+TwZtBnG0ZCsQicqIUiEVEZMAcOHDAVm45tBqrtoMhmUza++ZjMHg3Njba6jADsVMhZiWZyykUi8jxUCAWEZEBw8rtY489hpaWlvScwcOTerAazQoxA7FTJWYo5tnw2MvMUCwi8loUiEVE5JSxEsuqbU1NjR1qjaF0sDEE19bW2gpxW1vbwVDs9BI7oXig2zZE5PSjQCwiIqfMOS0zzz7HA93YsjDYGHY7OjpsIOZjsjrcf1I/sYgcLwViERE5ZWxNYLW2ubk5PWdo8HGdkSZYEWZlmBPDsFMhViAWkdeiQCwiIqeMwZTVWrYrDCU+rhOAGXxZEWYQPjwQi4gciwKxiIicMlZgnRaFocTHZeh1RpVg+OW/uR6ceF09xCLyWhSIRURk1HLOSMeJoZfhl6GYAZmBmJdqmRCR16JALCIip4yBNBgMIhAIpOcMDT4uT9ns8/ls6OXkVIoZhlUhFpHjoUAsIiKnzO12Iz8/Hzk5Oek5Q4OPm52dbUMxOYGYIdipDqtCLCKvRYFYREROGYNpZWUliouL03OGBh+3sLDQBnFWi4mB2JkYjDmJiByLArGIiJwyj8djw3BFRYW99Pv96VsGD9sz8vLybCBmu0Z/TvuEUxlWhVhEjkWBWEREThmrs6zSVlVVYfr06f8QUAcDWyVYlWYoHureZRE5vSgQi4jIgJkwYQKuvvpqFBUVpecMnrKyMsydOxdZWVnpOSIiJ0eBWEREBsyYMWNwySWXYMqUKbZyOxjYN8xq9NixY201OjMzM32LiMjJUSAWEZEBw8rw/PnzsWTJEkyePNn2FjsHuw0E3hfbI8aNG4dJkybZAH6kfmUud/gkInI0CsQiIjJgGDzZwvCOd7wD11xzje0lZkV3oHi9XhQUFNgq9Jw5cw4G3f4H0PHxnImBfCAfX0ROT/orISIiA4qhlRXc888/H69//etta8OpHvTG4MvWiKlTpx5sycjNzbUhmMOrOWGYyzlBmCfr4MT1UYVYRI5FgVhERAaUUyWeNWsWrr/+eixatMiOPsFRIRhUTxRbInjSj/Hjx2PhwoW44IILUFpaevDsdM6Yw04Y5sQQzJ/jMgPdtiEipx/PzUb6uoiIyIDhGeIYTjkaBANyT08Purq67OmUjxeDrDOaxBVXXGEvGY4ZeImB2DnxBpflfFajWU1mAOfjsm2DZ7JT64SIHI3L/DHRaOUiIjLg2tvbUV9fj8bGRuzevRvbt2+3l3V1dWhqarK3h3t6kYpE4YsmkXS7EA944A34kZ2TY0+4UVJSYscaZtvF4VVm50x0vCQGXgZfhmCOQsFeY450wesnW50WkTODArGIiAwKVoObm5tt8O3o6EBnZycaGhpQXV2NvXv32mDc3dqOZFsXMuo6kczwIVaRC19+LorKSuwIEmyT4MgVDLnEjyxOTpuEUx12eoZZDWb4ZX8xK8kMw/xZBmUFYhE5GgViEREZFL29vTYIO2E4FArZSwZlp3Ui1doF9/5meB9dC5TlA1fOhauyCJ7szIMHxTHIsvrbPwhzcsIxb+NybJNwqsOcGIidMMzb1TIhIkejvw4iIjIo2M/LkMqqLYOpU7llGwPbIexUUICC7FwUeDJQ4MtAXlZfmOXPMMQSq8CxWMxO7Evmv51aDsMyD55zwrDTN8yJ83ibRpkQkdeiQCwiIoOCYZXVWaeNwenldaq2PPiNyzhRlSGXYTdhQi+D7+GT0y/cPwwzNDt9w7xvZ3IOpGMgto+hQCwix6BALCIig8JpZXBGfWBodUKxE1ptKHYquGZyudOXR5l4n6z4OvfrhG1Ozn0798tlGIZFRF6LArGIiAwahtj+Q6E5ldz+1WLexqBrA7S3r2/4SBOrvVzWqTofXhXmv/kYThhWz7CIHC/9tRARkUHjBGKnz5dBlmGYE/uJGWQ5n+GV1VwbeNOh9/Dp8EDt9CPzkv92ArH6hkXkRGmUCRERGVTOxwz7f3lgXCQSsSNQhMNhdO2rR/srW9F8y/1ARQGCb7sIrrHFcGVl2J/pj4HZCdecGJKdijGDMC8536kMKxCLyPFSIBYRkSHTPxRz2LWu/fVoe3kLan78N3hNEC5839XwTCiD+xiB2GmfcC77TwzDCsIicqIUiEVEZEgxFDsjR3RXN6B15Sbs/O6fkDGxHFUffSMCkyvhyQmml34VA/HhEwNy/0sRkZOhQCwiIkOOHz2ceg80oeWlTdj8td8ge9pYTPv3dyJn5gR4c/vOTNefU/k90qWqwiJyKnRQnYiIDDkGWLY3uHnJMGv+46VT7XVGlug/cb5TCeZkf14tEiIyABSIRURk0KWSSSRjcZaG03OO36n8rIjI8VAgFhGRQZeMxBDr6EIynkjPOX7JcBSxzpP7WRGR46FALCIigy7S0oGOTbvRtaMakeb29NxjS5kAzB7j0Pb9CG3dh0RPOH2LiMjAUiAWEZFBl4xEEWlssyNKdGzYiWhbyATeePrWf5QIRxFuaEXLSxvN8rtsdZkBWURkMCgQi4jIoMsoK0LujAk48OAL2PvHR9C2ajNind3pW/9RuK4Zjc+uws5b7kbHlj0oWDgd3iMMxSYiMhAUiEVEZNB5Mv3wF+chUJyPnn112PN/D6L5hXXoOdCUXqIPq8ZdO6tR/9gK7L/9CVtZ5s/4C3Ph8nrTS4mIDCwFYhERGXQujwe+7CDy507hmGuofWiZndrXbkesq8cE4SSS0TgiTe1oen6due0Fc7kWwTGlyJ5cBXfAD5dbw6uJyOBQIBYRkSHh9vtQcPYM5Ewbj3h3GNV3PoOae55FaFvfAXM88K5t9Vbs/cPDaHxubXr5mWb5cel7EBEZHArEIiIyJFw+D7InjUHW5DHw5WWbUNxjD5hreHIlom2d6N5Ti7rHXkL37gNIJRIIlBYgZ8Z4ZFYUp+9BRGRwKBCLiMiQcLndCJQUIGtCBbKnVMGXE0SkqRVtq7baA+x665tthTjeG0agKB85U8cha1w5fPnZ6XsQERkcCsQiIjKkssZVoOyKxQiaS09mBlLOGeh44XKZoJyFvFkTUXrpWSYM5/TdJiIyiBSIRURkSGWOKUHxeXPhzTJhOHHY2MImHCfjcWSUF9llfLlZ6RtERAaPArGIiAypQHEecmdNhL8oLz16hPko4gASLpcdjcKTEUBmZTFyZ04woTmz74dERAaRArGIiAwpt88Lf34O8mZPsgfZuTNMKHa54fZ64GW7BOdProLHhGGXRx9TIjL49JdGRESGlssFjwnBBYs4BNu4vtBr5tn5wQAKzuL8sRp3WESGjAKxiIgMOZfPi7x5k+1oEy6vx8ww/5kAzECcP38qsiaOSS8pIjL4FIhFRGTIsT0ia3yFPcDOk+4jZjD2ZgVNGK5ERllhekkRkcHnSh0c70ZE5PSXjMaQjMSQiESR6InYf8vwqX9iJfb87n6Etu2HJzsTBQunYeonbkLO1LHpJWS4cAfFE8yw7S2egM+eOdC2toichhSIReT0xOG7YnHEQ92Id/ci3hNGojuMWJe5biaeKpgng0iGo+kfkOEQ2lmN1pc2o2PzbnhNIM6fOwVF581FoCgvvYQMF7a1cNg7vi4c7cObk77klB20l24TlEVOBwrEInJa4vi24YYWtK3Zio6NO9BpAlfn5v2ItnWZMBy1J4NIJZM2OMvw4U4Ld0qS0TjgdtkqJCuSGl1iBOAweC637e1m8PUXZiNnxgS701KwYDry5kxGZlVpemGR0U2BWEROG6lkygTeDoS27UPHhp3o3LIXXbtqEOvsNMErYsKWC94sPzxBfgXstZccAkyGTyqRRCISQ29NmwnCPmRU5Nmv6l36an7Y8bWJm53HRDhmdyLjXWbHJWKCg9cPf0G+HSEkf+5kOypIsKpMp9iWUU2BWERGPVZ6WWkM1zbZr96bnl+Dtpc3oaemHi6PC4GSbATHFiB7Sikyx+TDX5QFbzAAb26GDcYyfGzo6o6anZh6s7MSQNbkErOTYgKxhlwbdsmYeW1Cvfb1ibZ1o7e6DaGdTeje04JIU6cNxsGxlSi7fDGKzpltq8eB4nxV92VUUiAWkVEvEY6YD+h27P3Dg6h7aBk6t1cjsyIX+fPNh/XVs5A3pxKZlfl9QYvVRxOSbQXShC5VIoeX/Qgy/3GHhq+Fy7xG5oo9cZ0ML/vaJFN97UUJTmbHM2J2POs60LJyLxoe34y2tTUmMMdRdtnZqLzhIox548VmZzPDvoYio4kCsYiMauHGNnSs34nah55H2+otiPeETAAuN2F4LPJmVyB7SgkCJTm2+igip8gkBrZR9Na2o2t7gwnE1Whauh3xrhT8paUovmwRCi6ch+xp4+Dz++F2u+Hh6bjNJDKSKRCLyKjEg+YS4ShaXtyIukeXo/qOx+AvCaJw8QSMu+ks5M7mWLa56aVFZKCxZ7+nuhX1D/N3cBM6tjXBlZeHspsuQ/FV5yCnshT+jAB8Ph/8JhzbbwBUOZYRynOzkb4uIjJqcAi1nn31dgzbukeXwRP0YOI/nYcJ7z8PebMq4cvNUB+qyCBiuPVmB5A7sxz+/KA9+K5t+XZEOb63G/COLTEpw22XY6XYuRQZiRSIRWTUYb8pR5LY/bv7bJuEL9eD8e9egtLLpiN7Ugk8mTzzmcKwyGDjGQZ50g4GYx6gGm0KIdrcaQ/Cc5XlAzyZh997MBArFMtIpXeliIw6EY4vvHorau5dilSiF8UXTEbVWxchZ2aFCcM8m1Z6QREZEsGqAhSdOwmVb5iHjGwverfsQ9uKjejYV4vu7m709PQgHA4jFoshmUz2HbAnMoIoEIvIqNPy8hY0PPUyoq2dKL1sGsa9/WxklObC49eBOyLDJaM8F2PN72LBWRPgSsYReno1Qtv3IRQKoaurC729vYhEIjYUKxDLSKNALCKjRjIaQ6S5HW2rtiC0Yy8KzxqLgoXjkDWxGG6f+XPmUmlYZLi4vR748nlg6zgULRiDZF0rurdXo3NXDUIdnTYUs1rMSnE0GkUikUj/pMjwUyAWkVEj0RNG164D6Ni0G/FQJ8qunIHcWRXw5WUqDIsMN/MryN79/HlVKDpnAtzcgd1bj66d1ejq7AvEbJ1gpdgJxKoUy0ihQCwio0a0vQstL25AuL4FgdIcVFw3F8HxRelbRWQkyJ5cYkLxGHsmyGRzByJ76tEd6gvDTi8xA3E8Hk//hMjwUyAWkVEj1h5Cy8pNvGbbJDIq8+EN+vtuFJERwe33wF+UjdwZ5fAlE0gcaEa4u9u2SziTUyVmKOZBdiLDTYFYREaHVAqxzm50bNwFd8CF7EnF8GUH4PLqz5jIiOJy2d/N3JkVCHjMr25TByLdvehNV4idtgkdYCcjiT5JRGRUSCaSiHeHEa5rga8gE1kTiu2g/yIy8niCfmRNKoEvw4dUVwQJE4ijvWEbhDmxbcIJxKoQy0igTxMRGRV4QF081G1PyuHL9ptQHDxtj6NjQPjd7+7FH//4YHrO6eW551bjK1/5JXbtqknPObZnn12Fm2++BXv31qbnnJkefPA5/PCHf0RLS0d6zsjl8nngLwzCHfAiFU8gaXZm4+G+AMwgzOm1WiY4qgyPF2h5aSO699Ujbv4G8JsikcGgQCwiowIrTLFQD9MiPFkB+HIyTnpkidbWDixfvg4vvLAWy5b1TS+9tAFr1mzF1q170djYinA4ml76Vdu27cOWLXsG/SveZDJlws/zePTR5ek5p5f167fjN7+5G7W1Tek5x7Z27Ta7g1BX12z/HYlEsW7dduzZc8D+eyD09kbM678N+/bVpeccqrq6Aa+8sgXd5n04XJYtW4fbb38UHR1d9t9dXT1YtWozamoa7L9HErfXDV9uJtx+r/nlTSLVE0EiEjtiIO7/+5Qwr0OkqR2hHdVofWWrmbaga2eNPX6AwVpksCgQi8ioEDcfqPGuXlsg4oF03pyAycMnF4hXr96C9773y3j72z9nps/jne/8Ij74wZvxn//5I/z4x380QXmNDcWHB9+f/vQv+MEP/oCE+YCX4cMK6Ze//P/wxz8+lJ5z6urrm/G5z/2vDZxHctddT+I//uMH2L+/Pj1n+LHC/slPfhcPPPBces7I4fJ4zO9ohj3AjjuxCMf6KsXmOkMwg/GRKsSsCDeb4L/zl3djw5dvwZ7fPQB/fg4CxXnwZgdPeidY5LUoEIvIqJAyH5opZyB/t8t84J78n69IJGYD0OWXn2NC0D+ZIPxefOADb8Sll56N7OwsPPHECtxxx2O2WtjDr2nT3vjGS3HjjVfAbR5fhk9ubhbe977rcdlli9NzTl3chLWWlnaE+C3EEZx//nz88z+/BaWlhek5w6+iohgf+9jbcM45c9JzRhDzK+LymN9TBljuVybM/yVTNvxy4hjE8agJxaFutG/chQP3LsXW//mjnXbdei8anlyJQGEuSi5agNxZE+EvyLVjHIsMFs/NRvq6iMiIFW3uQOf2fWh69hUUnj3eDv6fUZpzUh+SO3bsx9///gQ+/el32ZBz9tmzMXPmJBMwSuDxeOzX8QcONKLAfAgXFuYhLy/b/lwslrDXS0oK7Ad9LBY3Aaob+/c32K/v2eNaX9+Czs5uu7zX67ETsdWi76vtlAna9XbZ6up6uywDQlZW5sGKN1smuH4+n9cGcGKAYBsH2wz276+zj8ev8Rsb+Xhd5nG8dt253Pbt+9HeHrLBkeHduV9WvJua2rB5825kZPgRCPiPGO75HNav34FoNG7bS1iJ5LozMLK1gD/H5+XcL1sZNm3ahZycLHu//XEb8baurl6zLXPtvJUrN+JZ8zpeccU5dp1373buv8M8R96/75D7X7FiA158cT3e9rarMHZsmX0e3EZ8HfgaOVhtZGWf24Xbp6am0bw+XXZ5v99nHuvIO1Fcni0zjz++wmyzbBQX5x+sBOfn59hLfisQDGaivLzI3hd3lLiNuE26u8P28fg+aGpqtcuztYLbmtuOrzOfGx+//3uCoiYUNja22WX27OF7om87sC0kIyNgf8bZDk89tdJuK24HPm8+L97GdeJ6E9eDj8kvN/g68t/79tWioaHVvlf5nuJ99t8WfKyGhha7Ds77srW1065bZmbAvEdeXYfjlQibsNvcheZlu9DZYF6DGWOAAvN+NO8dTzwJT1cE7pYuJGtaEN64B+0vbkTtQy/YccZ7zLb3mfduxXXno+Ka85A9ucr8nC99zyKDQ4FYREaFqAkJIRP0mp5dbQLxuAEJxNdffzHmz59uP/AZ5IqK8jBt2jj7b/Znrl691fx7vAlh5fbnvvrVX9oDwvhzXKa9vdOEyz34wx8exG9+c4+9fOaZl20gYahjmGYopf/6r5/jrrueMo+Tgdtuu98ue/fdT9kAwvuaMWOiDR2cjhSIGcAYhu+880n7s7/73f24995n8Pzza+zjsVrI8MYg9u1v/xYbN+7EuefOTQflvvDD4P3YYy/iS1/6GaZOHY8xY0ptuDvcffc9i09+8ns2YLJH9Ze//BvuuedpvPzyZrS1daCqqswGMq438bbPf/4nWLJkLsaN69tWjra2TnzmMz+ygZcBmBiIn3zyJVRWlpgguhG33HKn3Rbs4WZ/7LhxFXbHw7n/wwMxQ++///sP0Nzcbqv6xG3GnYtHH12Gv/71Ufz2t/figQeeNYGwzj7HyspiE2gz7LKHu+22B8w2+bkNkHxv3H//s2Y7P4Hs7ExceOFCu8zvf38f/vd//4SLLz7LBnG+bp/61PfMc9lkdwhuvfUu+5qtWLHe/FzQfrvw9NMv4//9vzvM6/60bdPhz/E1ct4TDLTc4eA6/+Uvj9rH4Htk3bptNrxOmjTGhnDn9Ts8EHMn61//9ds2OC9ePNsu8/Of32Fbe7KygnjkkRdsr/Zf/vIIli59xYb8yspSs+MSNEG3b1twHRiWH354Gf7854fte5PrwPcPd36mTBln7995LY4XA3Gk6dVAnDSBOJVvnrd5f3saO5Fcuwfhp9eh/b5l6N11AFGzU8DfcR48mzWhApP/+U0ov/pc5Ew3v4/9diBEBsuJvcNFRE5T/MBncGKldtasSTb0sbLJSquD1/v/m6GIB3ulUklcc835JqS9B+9+93UmbI6zB2CxyubgzzG4rly5AbNnT8Z73/t6/NM/vdEE54A9aOzxx1+01d6j2bmz2oY8uvLKJfjEJ96Bj3/87fY6q8KscLKyzaBTVlZoK7M8cJCBixgYWfVmiGQw5HSkMEwMQgzfPPiNYexd77oO73//GzBnzhRs27bfhnDuCDh6enptSGVf6OEYwhmKnaq5g9VnVqq548Bt9k//dAOmT59gD2p87rlX7OXRsFrL59W/vYFVUAbQVau22GrpO995rVnnG0ygG2uD4JEOknSwHeJjH3ur3W68/qUvfchOl1zSF7aJO0jcdmytIF7y32y94bZ+05suww03XGp2MspsTy9HxuDr8ta3XmnmX2J3PrizxPeUg9Vb7mAxLJeVFZjtcC0+8pG32J0j7kA8/fRK856pTi/9j/i4TU2sUL96oB+DNL+BeOWVzbbSze3A9wqDPN8DDzyw9JBty/cVX0+uA3c2+Fp85CM3YvLkKrtNn3jiRfM+P4mDF03QTkTiSJnXytUTgXtHPTzPboLn/lVIPbYWyXV7EK9uQqyhDT1mp6V7b509cC7H7JAWXzAfwfEVSEai6N5da0/V3rJiI9pe2YaICc0cfUJkoCkQi4gcpqqq1IYJBshjjSrAr7qfeuol20Jw8cWLbGh8+9tfZ0MVK85H6zW+4IIFNmSyD3b27EnpyuZyW6E8GrYSMIAxqFx33YX40IfeZCeGrRkzJtgRMFjVY9Bl1ZuVSAZEfm3f12KQtF/Jd3f3mMecgqKifBOIvel7PxqXfbx3vvMaE+Cvx6WXnmWrpgxPmzbtTC9zcpxv4BmCnfu/6KJF9iv6l1/eZKufJ4LPjSGU22nu3Kn2Pt/zntfbbc1qc/82hcOdffYsu2xxcYG9zgDJiRX218LtPXFiJd7ylitw001X20otd3C4Q8EKL+e9/e1XY9GimXY+K7yOHTuqbeWb4Zq3v+td19odg0suOctWhjkKCgPryeA3DXwfvOMdr8OHP/xm+z5h4GUA778ODMfc3nw92IvMQPyBD9xgK+M+n8+E+FUmEB955I1jSZodnkhTCIleE167TSDeVgvPih1wPbcZqZd3ILmrHsmWEFIm1Mc6QohwZ6M7DI/Znm6zo9ZtXs+mZetR98hy1D20DAfufQ4NT600AfkA4mbnRGSgKRCLiByGVWJ+Tcw2BVb5joYhgpVlLtfWFrLBln20DBaf+tQ7bbtFfwxODDystLKdgqH06qvPs/3Lzz+/2vajHs3ChTPwve99Gtdee6FtKWCYZXjkY7z1rVfZAwVZGeT6MJTx4K9nnllpK7esDDIQb9++z6xrxAb2/r23R8LK7dVXn2sPXOO6cuI68LEYzNlacCq47nwu3JFw7p9hlAcusgWhf2g7Hux75Q4BwySDO6u97Fnma8FAyrA7GFjtf/3rL7SPx50HbiOGbwZ9fmvANonJk8fakN7e3oWOjlcr5az+cnr96y+ywZ3r6Lx/uN35jcLxDk3XX2lpgQ3C5503z25Xbut586ba9wV3kJxh22jHjn122735zZfblhe+J3lg6fnnz7Pvky1bdh9zR+1oYqEI2tfV2FDs6o3Cva8JrqZOuLrCNiAn27qQNNuDgZgH25FtIXl5C/b834PY9I3fYtPXfm0vt3z3Nuy85S5U3/k0WlZssMOyiQw0BWIRkcPw63V+pc8qLw/6OpoJE8bY6hsDB7/e/t73fofvfvd3tmezpqbJth70x6A9ceIY28PpHNhUVlZse0oZOo71tT6riPza/uGHX8CPfvRHfPGLP8N//McPbe8ue4ZZ5ePX5awMMoTxK/rCwnx7YBn7WdlmwBYPHkB11lkzkZ/fdxDW0bhcbpSXF9uQ5qxrXl6O7afu7Q3/QwvEieJ2Zd9z//tnVZutKqzKn+j982fYosIdgb779NidA76G7Onl/Q8GvqYMkez35mNlZWXY16D/fH6DwPcIe7Kdlgvic2QLxf/93/34xjduxWc+80PbG/2Vr/wCv/713XYH5ljfUBwNK7t87fi+4vPm+rCSzXXigXL914HhmAcH/va39+DrX/9Vv3W4xa7X7t0HbEvMifJk+vpOr54XBLxupDhuuNkWlgm+Zg+tbzLXWRH2mu3jMdsvf/4UVL7hQox/9zWY8J5rMfZtV6DsisXwF+TYVgkOveZ27kdkACkQi4gcpq+KFrLBkmHmaNha8ba3XW2rgcTgyQPDWO1l7yWP3O/P6VPmpcPn89jwxn5QVnKPhpVetgTwJCI8KI1fv7NnmH2+rIxydAOGXVatGX4YiOfPn2b7Z3k7R6JgAGNAmzSpyi5zLLwfLtu/1aBv/b12PftXzhm4OHE+q3wOVqWP9bwOv3+GN4Y5/tyxKvNH4vwMDyI8VnvEQONj8TV1tgG3ES/7z2frDOdzHdlv7uD6cvQN9hKzn5qvJSe2i7A3mL3opaVF6aWPn8fjsgGc29fBx+fEx+R6OBiOuSPF4Ltp06vrsHXrHvutx8yZE0+quu7NNDsHExmIM5Ay11MTSpGcVoHUlHJgTCFcJii7uH7cbhwJxWwvBuMADzycOxlVb7zYhOLXYfy7XmdHm8g0v2sMwgzGGnFCBoMCsYjIYdgOwP5hBpK8vL4RAY6kr+Jbab+S/9rX/gW/+c1X8Z//+T470sKvfnXnPxwQxcDKYMtLByt0rLjy6/1j9fSy15MjFjDosN/2Zz/7HG677ev405++bR7ry5g3b9ohwZP9ovzKnoHYGYmCFViO7MDHYTg6Ft4XDwTsf+Aa15PtEtxJYI+rg/fF8MWw1b/6yDYOPj9WRg/HUHb4/bP1pLW13T7H/vd/PPgzrIhyR4YBbzTg+4ftM1/96sfw29/ejL/+9Xu4/fa+6Y47+i7f9KZL00sPDo5GwTaPb33rE/j974+8DnwfnTDuBAS8feOFm9+hxJKpiL/9PCTefylc1y6Ca3oVXLlBuxzPYJdIfzvS9spWND2/zp6iPdO8V3Omj0fWhEp4zbZymfeZx7z3eNIPkYGmQCwiZzTngDNWTxlgeVIODoPFVgMevMZRA46GFWEO2cWKHsMg+3L7vqb22PtjdbQ/9mpyaK5t2/baMMiJw2Hx4Cr2jbLf82gYopub22zw5AF/HDOZYYYBm6MXsKrdH8MvK9f8Gp/P68EHn7Prx2G0WLV8LVx3jvbw4ovrDq7rxo278NBDz9v1ZOuHgy0JbFXg1/+cuK5cntXyu+9+2h58eDi2h3C9OTqGc//86p7DwrEqOn58RXrJ48PtwdEZeJAaJ47lyzDOKjrXmSNdHAtDPavmfN79R5MYTBNM0GMPOLcTq8SskHMHjNVlVvz5LcOp9mq/lilTqux6cGg79qB7vVyHbLsu9fVN9neB63YynPdZyoTeVIYXqawMpMrygTnjELh+MfI+fC0qPv1WlFzXN9YwRc1r1r5hF3b9+j40LVuHCN/X5rVhGObJPlhRFhkMCsQicsbqG+JrtQmlq234cy7Zz8sxiTlUFQ+WOhqGLI64wADG0z3zvjgcGQMhv2p2xpt1MCTzq2iO58vl2QLBcXjZo8nh09iicTQc3YEhlH3JPPEGg+Ty5WttkFmzZpttieiPBwWWlRXZSjFDHlstSkry7cgHx4M7CawuszWDP8s2EA7jxsDLsZo5soWD/aqsMrIKzefE7cCfWbVqk32+R+qDZeBkTzPDIJflz/D++Zpw202ffugBia+FoW7Jkjl2B4FjA3N9WRnna7Nhw87X7MXljgYPVmQLA4P60qUcXaE2fevg4M7JokXT7Y4S22C4vtwOfG9wW3DovpM5oO1EcKdp7twp9iBGZx247frWYb0dvu1IOzQnLeA1ey8F8J41BVnXno3imy5F+VsuQfm156H4gnnImzXRjjvc9NwaNDyxEq3mdyVu3tvJI3zLIDKQFIhF5Iz1i1/8De985xfwnvd8yR6gxgOL2Et51VXn2lM5c9QAVmGPhr2VF110lj2RAg9s+/CHv4af/OQvNsRw2C4Gnv5YoeXwWhxz+Mtf/n/4/Od/akJnnR2pgKMrsJ3haHgijQ996M02PP3wh3/AP/3TV+0BdQxvrIyySns4VvlYeWZ4ZU8qA/KxHqM//ixbRlh5/spXfmnXlSd6YG8yR0BYsGB6eklglgkxHOaMofNPf3oIH/vYt3DzzbeY7bLDPt/DdwyIAZRhjKMo8P6/8IWf2pN1sN2EJ/DgqAwngq8VR61g68jOnfvx1a/egi996ac22PW1iRy775Tb77LLzraBmtv1fe/7b3v67sHEHYsrrzzXju7AnYlvf/s3+PjHv4Ovf/1WexIOjod9opXyE8X3BnfG+D7hzs43v/lr+/p961u/sTsqCxfOtL3yg4F9wx7z3ii/9nzM/u8PYcn/fRVzbv4Iqm683I5D3PT8Wuz906MI7axB3OyoiAwmV6r/ERAiIiNUaEc1ah94ARu/eismfeR8THjPEuTNGWM+VE98v56Vv8ceW37wa3F+tcvAxJ5OhlZWUVn15BBY/b+hZTsF+2Ff97rz7VfsDIA8yxdbEhiCWenlfXD0BIZUZ8gruummz9kK8fe//+/2K2hWl/n4PO0uK7+siPI+uS6sznL9eIAYwznxsRjWWEHlwXrOKZRZ9eXID2zb4HBbV1yxxC5PvH9WHNn2wLDzmc+8zwTUGQe/yj4annWPZ5f7wQ/+3YZiVop5Xxwdg4GYIYotGU4fMtsf2LvLg/fq6vq2A583tyGnDRt22NEjOMQasTWCFW4ON8eTefB0xbx/Bmfn/jmihTOOs3MAIbc7txdH2+D2KS8vwQUXzLfL8KOM68HXguvrjL/M5XkQIbeR81ocCav6fF9wh4gnxWBVnWHeGYuYo3iwfYHrwG8P+PpxHXjfDJOO1tYO2/bBgN5/Pls4uDy3p3NWOWJfNteXU99II32vKx+D98Htx21NrHZz3bgO3FZ8P/A+Oa40X1datmydeQ2azDLn2fdvf7x/Ls+DLfvv0PC91bcOdfY++d7iCV7YmuOsw5F2ao4l2taDjk212Pb9x1GzoQ7xN5+D1IQSuAtzzO8aR/7INs8r3zzPInP/5eb17msXCvP9Y55j9756cx/md6SjG3Hzfjpw71J70N2cm/8Z+QumIcO8riIDSYFYREYFnsmq9sEXsP5Lv8DED5yL8e8+BwULx9oq02jAQMwgygOVhoITENmzzKoyw/m1115gWwteCwPx5z73v/jb375nK5giJyra2o22tTXY/qMncWCL2eG5cQlS44vhzs8+ZiDujwfade2sQf2jL2L/7Y/b33UFYhksapkQkVHBEwzAm51pQ2WiO4J4V8SEvvSN8g9YcWUllT3GrE7yBCA88E1kKCTjScRDYTtaBEeSQIbP/BKfWOTwBHzIKCtE/sLp8Bfnp+eKDA4FYhEZFbzBTPj4FbAJxPHuKGKdYTuovxyKX/Xfcsvf8elPf9/2KXP0C/Yos3WAZ58TGQopE4hjHb1IRkwgNkE4FfSbX+IT/DbH/K5z2Da339s3yoTIINI7TERGBZ7FypsThDcrw54WlqeETR3lhA8jEUMpD5IabM7oEBzdgT2xfEyOAMHe5mOdda8/9kDzVML5+cc+vbPI0SSjcYQbQ0gwEPu8gPn95RnrREYq9RCLyKjRvGwdVn/6hyYcp1ByyWTM/OK1JiAf/UxyIwkPqKMTPTjpRPFPOh+Lp+hlewnHIeZBWv3PWvZa2HvMdguu62uNziByJJ2b67DjZ8+gccUedAYCiL7/EiArALfZKTveHmKKtnaiY9NubPnObeZ6h3qIZdBod01ERg1fXjYKFs1AMuZC964mxDp6zPXBP4HCQGC4HOwwTAzBPLECxzTmKAEcTuxEwjAxRPNnFYblpJidslgojI7NtYikXEiVmbDL/mHz3hQZqRSIRWTUYCAuWjIHnkAmuve3IrS9AbH2V0/9KyLDj/39vbXt6N7TjDh3qsoL+g6sExnBFIhFZNTwF+Sg6Nw5yCgvtD3EdQ9tQPe+1vStIjISdO1qQsf6GsRNME4VZMNVWXjCI0yIDDW9Q0Vk1PBkBBCsKkXBgunILC9D4zPb0bHhACLNXbZ3VkSGkfkVTCWSaFtdjcYX9yKZlQmMKQLK803aUNyQkU3vUBEZNTgwP9smCs+eibw509C1pxWtK/eifW0NEj3RUTXqhMjpJm5+B1kdbl21Fx07mpAcV2wCcSFSeUGk0h0T7HE/0iQy3BSIRWTUKTxnFsquXIxAYa6tEu+/faUd4smOeSoiwyLc0IHqO1ahbdU+xLhvungKUqwO98Pwy1N+cwhATjw9uQKxjAQKxCIy6nizg8ibMxmTP/IWZFSWo21NNXb9YqmtTPEMdjphh8jQ4gGuDU9uRd0jG9ETN79/M6uAyeVAToZtZ3JampyKsBOKGYh5XWS46V0oIqMOWyeCY8tQ9ZbLkLtoBqJxD2ofWI/6RzeZULyv74QA4Vh6aREZFCbjslWJbRKNS7ej/sktaN/VgmhRPjBvPFCSi1TA9w9h2AnCzqQKsYwECsQiMip5MgPImlCBvGvOQdYlCxBuD2PPH1Zg+4+fRMuKPYi29J0IQ0QGRyqZRM+BNuz/y0vY+/vlqF+6EwmOKLFoIjBnLFJmx5VnTuRE/cOwz+ezJ+hQhVhGCr0LRWR0YrXJfOBmji9HzoVzEbzpErgnVqBzTwt23bIU23/yFPb9+SV0bKpFrKM3/UMickpSML9PYbSt3o89//citv/oKRy4bz26uuNIzh0P15XzkJpUdkgYZoXYaZFgEA4EAsjIyDgYiFUhlpFAp24WkVGtqakJTXX1aK2uQ/ezaxB+eRuiuxsQzAsgd1Ixis6diNzp5cgckw9vdgCeTB/cfvMh7HXbQO3SCQOGF/tLkyl7QCRfCxdfG70mI4N5bXgmSA6llowmkOiNItYZQbi2He3ratC0Yg86djXB3NTXM8w2iTnjTBh2I2l+NpFIHAzEDMMMwVlZWcjJybGnbeaUm5uLzMxMG5SPRKdulqGiQCwio1p7ezva2trQ0daOjsZmdO8+gMjq7XBt2IvU/makeqLw5WciOLYQeXMqEJxQjIyyHBOOM+A38z2Z/vQ9yXBg4GIfKvu+PQEv/CXZ8DAU60QOwy4ZjSPa3oO4CcEc67t7TxM6Ntaia3ezmdeLZHYmUmOLkTpnCjCpvK9nOF0Z7h+GWR1m4A0GgzYMMwTn5eXZS/6blWIG5iNRIJahokAsIqNaV1eXnUKhEDraOxBqakFPdT0i1Y2I1zQBB1rg64nAH43Byw9nrxtuvwdun9cGMFaKZfiwOpyKMxTHbAh2s4LPMKwi8bDrq9zH+qrDdjIBOeVC1ITbZF4WUGVC6ZjCvhNv5JhwHDDzjxKGWR1m+HUCMS+zs7NtxZhh+GhtEwrEMlQUiEVkVItEIujp6UF3d7cNxZw6OzvRbS4jLe1I1TTD29wJV0MHEnVtSIYiSJkPeZgPe1ciaXsiZRiZ8ASOCNLeDfg8AIMWL3Wg1fBjRuXOiZnYyuLOyQBK80wALkCyosBegifdMDHCmfqHYYZcJww7rRJOIOa/WTHmbcfqIVYglqGiQCwio1osFkM0GkVvb+8h1eIQQ7EJyZGeXsTN7X29kAm4Y0m4o+YyGoerJwqXmd/3eayS5LAI9QK1bUgt3wIUZsO1eApQlAsEjtxTKkPIBOFUVgCuTPNaZPj7pnRAhtuFFHu9zS+PE4CdMEwMuTxgjgfQ9W+VYFWYE/uGeRvbJY5FgViGigKxiIxqzle0rBQzFDMEMxTbKrG5zuoxb2Nw5nJgVdhMtjocN5esFCsLD5/2Hrj2NsH9yGpbfUxePqfv7Gbq7R5+5hcjxWo9Dz51gnC/XxbGBydC9I8SbJNgGGb1l8G3f3XYqQwzCLN6/FpDrikQy1BRIBaRUY9/xuLx+D+EYk5OKA6HwwdDMZfXn76RwdXWDffuBnjveRnJ8jwkrlmA1JhCpBSIRx1naLX+lWEGYCcQ85IBmUH5eMcfViCWofLa70YRkRHO6VXkh7BTkeLXsk5VitedfkVn7FN+cPMDmT+raXgn8wr2vY78H/992O2aRu7UPwQ7v4P8Xev/+3f47+DxVIZFhpoqxCJy2ji8fYKVYadi7FSJnfYJVpSdSrHT9yjDoLULrp31cN21AqjIR+r1Z9nRC1QhHvn671AyFDPocoeTO6XOjilDMK/z8njbJPpThViGigKxiJxW+CfNaZ9wArATjDnx304oZhB2JhkeqZYQkttrkbjjebgqC+F94xK4xhYDwUB6CRmpGGydiUGXEyvAnBiAObFizOlE2iT6UyCWoaJALCKnJQZeZ2IwdsIxLzkqBScG5/5HxsvQSzZ3Ir6lGj1/eAqeqiJkvu1CeMaXwZWVkV5CRiqGW1aGObH6y8kJv87kBGVOrCSfKAViGSoKxCJyWupf/WUodkJw/6DMQOyEYhke8cZ2hDfsQcuvHoR/fCkK3nsV/JMq4c5WIB7pnDDs9A87kxOOOfWvIp8MBWIZKgrEInLaY+B1gu+RJlWIh0+krgWhNTuw/0d3IGiC8JiP3oDMaWPhzQmml5CRqn+FuP9156BVXp4qBWIZKgrEInJGOPxPnf70jQw9NY1oXbkZm7/2G+RMG4dp//FO5M6aCF9ednoJGQ0Ob4c4mfaII1EglqGicU9E5IzgHA3vTP2/ytU0+BPiCSS6eu2JUPrP9/CS4alvtLVDbnMmxMzPdpufNTsxR7pd0/BPh/9+iYw2CsQiIjLoYqEe9FQ3INLcjkRPOD332FImPMfNz4UbWtB7oAnJSCx9i4jIwFIgFhGRQRdpbEP76q3o2LgL4fqW9NxjS8Xj6N5Ti471O+0U7+5N3yIiMrAUiEVEZNAFivIQnFCJ+sdW4MB9z6Fr9wEkeiPpW/9RtC1kQ/DePz2Cji17kTtzAjxBjTwhIoNDgVhERAadLz8HwbFl6N5Xj8bn1qDh8ZfM9TrEDw/Fqb42ic7Nu1H3yItoXr4e8a4eZE0cA0+GTtYhIoNDgVhERAad2++FLy8LWRMq0FvdgG0/+iuan1/7D+0TyVgc3XtrUfvAC9h5y91we9wIjimBNysDLnNdRGQw6K+LiIgMCU/Aj6Jz5yBr8hj01jVh/x1Pou6hZfY6D5iLdfWia2c19v35MdQ/uRKJSBQFZ89CzqyJfUNQiIgMEgViEREZEm6/D/nzpyJn6lgk43G0rtqCxqWr0bZmu22L4GgSzSs2ouHpVQht2w9Pph/5C6che1JV+h5ERAaHArGIiAwJl9eDrAmVCI4rhzc7aMceDm3bh9r7n0OkqR2h7dX2gLtIYyvcPg/8BbnImTIWGeWF6XsQERkcCsQiIjJk2AccHFeBkgsWwJuZYVslUlEz8cyBiQRS5t+JcNSE4GKUXLgA/sJcuNz6qBKRwaW/MiIiMqSyxpej9LKz4MvNQipuQnA8aUeX4Ik4UgzFZl5wXBlKLz0L/vyc9E+JiAweBWIRERlSDMRll58Nf3EekiYAx3ojJggn7QgT8Z6+YdiyJ1aaQLwIvgIFYhEZfArEIiIypNwBP/xFubafOFBSYKvDB3ncyKwqM1MpfPnZcHk86RtERAaPArGIiAwp9hHzoLr8+VOQPanykCHVODRb/rzJ9mA6jkrhcmu4NREZfArEIiIy5DwZfpRcehbyF07vO2iOodiEX09WBkouOxt5C6amlxQRGXwKxCIiMuQ4BFvO5DEIji2HO9BXCWZ7BCvHHKc4s6I4vaSIyOBTIBYRkdeWSqUPegsj1t6FaGvnKU28DxOL4csJIlCUZwKyF97MgL3uDWbYkSaO9HMnOsU6u5HgQXvm/g7pVRYR6ceVsoM/ioiIHB0DZayrpy9otnTYsYIHQuvKLai9/3m0r98Ob24WChfPQtWNlyFYVZpe4tR4c7JMyM6FvyAHnoyArUzL6MH3W8em3djyndvM9Q7Mufmfkb9gGjLKi9JLiAwMBWIRETkEK6rRtk6EdlSji9OuAzaYxLt7kYhEkTRhmMOkDYSICde91Q32kgfRBYrzERxfBm8wM73EqXH7vHBn+OEJ+PrCsbn/7MljzFSFrAkVCJTk28eVkUmBWIaKArGIiPSdFCMWR29dM7r31pkwvB+dG3ebMFyNnup6JKIRuFxJuHwee1rlgRr9gR9BPDFHrLMXbq/HhNbAgJ6Zzo5vHE0gGTPr7vHAkxlEsKoc2VPGInfGeORMG2dPJZ1RWmCDs86KN7IoEMtQUSAWERETGmOItYew/+9Po+7h5Wh+YY0Nk4HiXBMay5EzsxyZY/LgLwyaKROegDf9k6cmGU8gHgqjfW01vLmZyJ1VYau5AxW4Y11RE6TY6tGLnn2t6NreiM6ttYh3heEJBlCwcDoqb7gIldddgIzKYjvsm4wcCsQyVBSIRUTOYKwMR5ra0LpyE2ofXIaOzXuQjHQjUJqBggVjkT2lFBkV+fAXBOHN8sNtgrAnwzugFWJWcKMtXXD7vfCZx2GVtt/QxKeEleFEJG6eU9wEb7aC9CDc0IGuHSYYb6k3IbkD3pxcZE8bZ08VXXTOLFs1lpFBgViGigKxiMgZKhmJIdoeQvPy9ah/9EXUPbIMgbJs5M+rRPGFU1B87iQExxXAEzyNqqbmIy8RjqNrVxPaXtmPpud2mMBVZ4JyGPnzZ6Dk0kUoungB/JXFdtQLt8cDtwnonFwmpfNSho4CsQwVz81G+rqIiJxBIs0daF+/A9t/9jc0v7AW/vwApvzLxRj/niUouWgKAsU5tmqLAarWjggMtV6PeW5ZyJ1RjuILJsGbF0RPbTtaV2xBy9a9aG9oQqIkFzGvG/FEoq/POV07coKxDA0e4MlvMJpfWGevs4rPMMzxqkUGknZ1RUTONCbcsV+4ZcV67PzF3xFpaETRkvGY8bmrUXzxFGRWcuQFL1weE/xOx+zHp+Vx29YPf2E2Si+ZiikfvQiVb5qPQLYHoRc2oP7OZ9C0ciM6OzsRCoXQ09ODSCSCWCyGZHJgRtgQkZFDgVhE5ExiwjAPZGvfuAuNz65G87K1yKzKRvnrZqLyDfOQPbnE9gqfEVgt9nuQPakYZVdMx5g3L0DhwjHwJCIILduAthc3om3nfoTa2tHV1XUwFMfjcYVikdOMArGIyBmEX/0nesM4cM+zaHhqJdyZPox9+9m2OurLy7BDqp2JfNkBlF8xA2NvXITSy2YAja0mFG9Ey9I16KhrtIG4u7sbvb29B0OxDsEROX0oEIuInEHCdS1oWroa7et2wJvjwcT3n4v8eVXw5wdtxfSMxWqx2RnIm12JMTfMQ8GSifBFIwi/sAmdO6rR2dBsWyf6V4rVPiFy+lAgFhE5U6RS6KlpQP3jLyHS1IKsCQUm/M1H1vjCvoPnBBllOSg8axzKr56FrLIsxHfVomf9LoT21R0MxKwUq31C5PSiQCwicobgiTa699Ta4dXcGS5bGc5fOBa+3Iz0EkL+vEyMe8tCFC+ZCMTiiKzYiu7Ne20g5kF2ap8QOf0oEIuInAEYhu3pmLfsRbQ1hIJFY5G/aJwdbeGMbpU4Ao6u4TOhOG9+FUounAxfRzfiexsQrm1GT2foYIVYgVjk9KFALCJyBkgl+wJx954a/gP5cyuRO6MsfascIj36BMcpLr14KrxIIlnbiuj+BvR29lWH+1eI2UucSI9XLCKjkwKxiMiZwATi7t3V6K1rtKdH5imZM8fkp2+UI8mZVIzSC6bAlxsE2rqQ3FWPcGffmMROKNYBdiKnBwViEZEzQCqZQtfuOsS7upA3q8K2BLh0GuJj4oGGfrPzkDGxGD5uqupmJHoiiEajCIfDtkLMy/5VYhEZnfTXUETkNMcwnIzG7JBrqXgMOTPK4M0OpG+Vo7Fns8vyIzi5GP4ML9DQYU8fHDOBmCGYYbh/IFaFWGT0UiAWETnNpeJxxLt6EevsATwuBCcUwxM8Q85Gd4pYJc6eVIKM3Ay4OnuRisSQiMVtAGYQdiYNvyYyuikQi4ic5pJRE+A6u5A0QY4Hi/nzM8/YM9KdKLfXjYzCLPiyArYP29Ub7QvFiYQNxWyf4KQKscjopkAsInKaS5qwFuvs7gvEPi+8uZlwmaB3ovbtq8Pjj7+I5ub29Jyht3v3ATz99Eq0tXWm5wwutk1kFAThY0U9mQJ6Y4DZwbCnwDahmJVhZ1IgFhm9FIhFRE5zfRXiHqTiCVsh9uVkmEB84hXip556CR/84M3YuHFnes7Qe+ih5/Av//Jt7NixPz1ncDEQB/Iz4Q36bCB2haP2ZB0MxJwYghWIRUY/BWIRkdMdh8dlWEsPk+tyu07qXBxxE6jD4ciwBr8rrliC73znk5g4cUx6zuDiZuKJOrjNLFaJ+V86DHNipZiTAvHgODi8c3q7iwwGBWIRkdNeXzXTYhIexDPT8XFisTj27q3Fyy9vwpNPrsATT6zA8uXrsG3bPnR19RwSang9Go1h9+4arFixAY8/vsK2RLzyyhbs3Fltrr+MzZt3p5cGMjICyM/PgTdd4e7tjeCFF9Zi5cqN9jF5H6xkP/bYi3juudXYvn0furt7TWA9lbDqbK++9eY6OxNDcP9LGVhs84m1h5CIRPuut/VdFxloCsQiIjJgkhzv2ITeRx5Zhu9+93f4yEe+aaevfvWXuOOOx3DgQOMh4ZTLd3Z24f77l+Ib37gVH/7w1/Cv//od/PjHf8I99zyNT37yu7jttgfSS/9jywT7mb/85Z/jO9/5HR59dDm++c1f42Mf+zY+8IGv4HOf+zH+/vcnUFvbZEO3jD5xszPTZXaM2AMf7+lFaGcN4h3d6VtFBo4CsYiIDBhWaR9++AXbZzx+fCW+8IUP4Itf/ACWLJlrq7Ws+PbvQWZlmOGZt82YMRH/9V8fxmc/+37MnDkRa9ZsQ0tLh604O15t23i1WhuJRFFd3WDv65prLsCXvvRBE8A/igsuWIj6+hYbiltahu9AQDl5cROE29ZsR9Ts+MRMEG4374mIeU+IDDQFYhERGTD799fhmWdehsfjxllnzcRb3nKFnS64YAEKC3Oxdu02bNmyJ7103/JsbQgE/CY0z8Hb3nYl3vzmy8zPzkJOTtDcz/Ed/BcI+FBaWohLLjnL/Pzl5n6uwhVXnAOXy4Xnn1+Djo6u9JIyWvBgUIbfzk27EW0LIR7qQefm3Yg0ttoTzYgMJAViEREZMHV1zTb0nnfefBNOz0ZRUZ6dzj57Fm688Qo0NLRg167q9NLAgQNNWL9+B84/fz4uvHAhCgpy7cQwzVBbWlqQXvLY5s6dine/+zpMmzYOeXnZts+Y4XjMmBJUV9erZWIUinf1IGzeT127amylmC0TXbtr0FvbhBh3cNSzLQNIgVhERAYM2xlYjc3N7QulrNByys4OmnBbZG/v6upNL923PHuIGWI59V++rKwIfr8vveSxZWYGbJD2+Xz2591utz0Az+Vy2zDstFjI6BHatg/t63fag+nsAYvmv2Qihc4te9G+YRdSp3SgpMihFIhFRGTA2Nxi/s9th3Z7dTQLJ6Q6t/fHsOoEYUff8sc/GgZHncjI8B/yM2zb4F3yID6NADHKmNerY/MetK3ZZoJvIj2zD+e3r92OZPzQ+SKnQoFYREQGDENpbm4WQqFuOzl6enrR3Nxmb8/KykjPZe+vs3yPHZ3C0bd8+yEH1MkZwoThFEcfSQdfnlDGwd0dzrdBme8N7ejIAFEgFhGRAcM2B/bzvvTSRjz//Gq0tnbYafXqrbjvvmdtT3D/k2pUVBRj9uxJWLFiPZYtW4e2tpCdOMLE3Xc/ZUO0nFliZueILRE9++v7zrDYL/TyKodi6z3QZNspIq1DcwpvOf0pEIuIyHFjxZYn2XjggaWHTI89ttxWdMeOLcNFFy2y1WGeLINjA3Piz+w3AWfWrMl2eDXHuHHldgSK9vaQDcWPPPICHn/8RaxatTk9fnD8kFYKOf3x5ButKzaix4TeZCxmUnD6hjT2FIcb29D84gZEzKXIQFAgFhGR48bWhm9849e46abPHzJ96ENfw6ZNuzBpUhVuuOESzJw5CVu37sUXv/hTO/Hsc5MmjcFVV52HefOmpe8NmDx5LK6//hJ72+rVW/Cf//lje6INnuWO4TknJ+uEeoll9Iu0dqDx2VV2hIkj7QxxXrSlA03PrLIjTogMBFdKRxqIiJzWwg2taF+3Axu/eit8+SnM+MI1yJ9dCX9RVnqJ48Ozw7HqeyTsBb7oooV2LGCO6rBnTy3q6prQmv5Km2MK8za2S/QPufwIikT6Tt3MinBbWye8Xi98Pq895fLPf347Lr98Mb72tX+xy3MM461b99gqdHFxvl3mhRfWoKSkEIsWzbDL9MfTPnO9OaQbh387UYmeKNo31mLXLc9hzwMbEH/zYiRnVsFVkgu/n/3QWcjL49ByRSgrK7OXcvLiXb1oNEF33Wd/aivEbI84vELMRmJPRgCBwlzM+cZHUXXj5fCZ95c9glLkJCkQi4ic5iLN7ejYtBsbvvRLeLLimP6fV6FgwVgESrLTSwyveDxuzzTHEFxcXGBD8s6d1baFgq0YF198Fj71qXemlx5a8a4IWl/Zj92/eR77HtuC+NvORXJ6JVyFOQrEgyC0oxq1Dzxvd94Yjt1mR8tvtjXPUodkEr6CvuuJnrCtFM/84vsx7l2vQ+7MCXC59aW3nDy9e0RETnNuEzRZQXN5Pbb/Mh4Kj6ghq3p7I7Z3mGeUYy8xe5FXrdpkD8JjFZh9xsOFY91G2nsQ74naCmQqww+Y7SmDI7R1b9+QaunRRfz52ShcPAuB0gL48rJRZK5nlOTb27jjZIdgW7dDYxLLKVMgFhE5zbn9Phsm3D4TiKMJxNp7kYqPnADBSl92dhbWrduOr3zlF/jqV3+JZ55ZhcrKElx99flYsGB6esmhlzRBK9zag1i3CcQe85EZNIHYr0A84FLmv2S/sYfN+zNvzmSUv+5clF99LoLmvRAwQbjsynNQfs15KDhrBlzm9eCpnA8Ozabvu+UUKBCLiJzmbIU4NwuezABSsQR66zuQCI+cUxmzVWLy5Co7BJtzEg1e5+gTixfPQlVVWXrJoZc026vnQDuiIROIM/y2Qpzy6qNzoCWiUUQaWtG1o9qOIBEcX4bSy86y4Td35kS7Q+fNykTO1LEou+JsE5KXINtcj3V2I7R9P3rrmpHojaTvTeTE6bdaROQ0x1YJhglffjZSiRS6dzbag8VGCh6Qd9558/Dxj78dt9zyX7j11v/GN7/5cbznPa+3YZhnoRsuyUgcXTubEO7sBfIyTXo366KDtwZcvLMHbet2oKe6we64lV+1BOPecZW5PMd+s9Ff8QXzMf5dr0Pl6y+EvyAPvbXNaFuz3Y5OIXKyFIhFRM4EbjeyJ1fCm52Njo21iHWYgJccOd8x87TODL6sFjtT36mXhy98JkwYjrZ2o3dPE2Ipsx4TSk1696VvlYEUNWG2aekr8BfmYswNF2PC+65DzrRxRzxQjvOCY8sw/t3XYMybL0HW+HLzs6vtMG0iJ0uBWETkDOByu5A9ZSwCxUXo3teKnupWRNtePVWy/KNwQyc6NtUhWteBZGYAmKhAPBiS0ZhtfQjXtyJ31kRUvv4CFJ49y7xX+w6eOxK2UBQsnIaKa841y8604xLHOrqQjIycViAZXRSIRUTOADwAKXfaBATHVthRJjo2HEBoZ2P6VjmSzq31qHt8M6KsphfnwDWpHK6ADqgbaBxeLRmJIqO8EOVXnoMytkkc54GLxRcsQMXrL7QVY440Eevs4vAT6VtFjp8CsYjIGYBfM2dPrkLe7InIrCpG2yvVaH15b99wVQoQh+CBdL11HWhfXY2Wl/chUV4AjC9BKicTqfRX+GzlYJuHx+M55FJOTkZFMcbedBWyj9ImcTT85iM4rgzj3nk1siaN4Zy+G0ROkH57RUTOBCbA+YvykDN9PIqWzEG4oQdtq/b19ROHdHS+g8N9sZWk+YVdaFm1Fz0t3UhOrQDGFSMV8IKtxAzDTiDu63322kmB+OSwGsz2iIIFUxE4ibMJcgSV/PlTkVleBLdaWuQk6bdXROQMwirx2LddBU9mFtpe2Y/q21ciXNuevlU4HF33vhbs+u0LaFqxB8jPAhZOAsaaQNyvkt4/FLM6rEB88rzZQdsTzJ22U+HNMfdjwvGp3o+cmfTbKyJyBvEX5iF/wTSUXbkY/qIi1D2yCXWPbULHptr0Emcm23/a0YuGp7Zg5y+X2qHWElXFcF0xD6mSXCQ9biSTfSczcYIwQzBP38xJgVhkdNNvr4jIGYRjvAbHlNqTG+TNm47eljAant6Ohsc3o2PjAcQ6w2dcT3G8K4LuvS1mO2xD7YMb0Pj8LkSCGUjNrEJq7jiksgJIInUwEDth2OfzKRCLnCb02ysicobhiTpKLz0LZdeeh+CMsWhesRd7fr8c+/60wg7HxlPonknC9RwDdzs2f/thVN+1BuFwAskLZyF11mSkCrORdLtsGObE6jBbJBiGA4HAwYn/ViAWGb08Nxvp6yIicoZgsEtyaKvSPCRdQKyjG10bqm2rQO+BNsBkYm9WAJ4Mn1k4/UOnkUhTyB5QeODetai5czXqHt+C7tZeJKZWInXxbGC6ucwN2jCcSJiAbMKwUxlmAA4Gg8jOzkZOTo69zomhmGFZBg5PxxxpakPzC+vsde7IZZQX2b5jkYHkSvU/SkBERM4Yvb29aG9uQeNza9D6/Fp0rtgMdySMrMpcFC6oQu6cMQhWFcCXn2kCiAnHAS9cPo89le6JDI11LPwI4sgO9oQK5j7tY3iYwAcmhacYZqNmMo+R6I0i0R1BtL0XPdVtCG2rR+vqaoTqOxGOm0ccXwKwRYKtEpl+u6PghGGnMuyEYQbh3Nzcg1NWVpZtnVCVeGBFW3lylN3Y8p3b7Nns5tz8z7YHnqFYZCApEIuInKGi0agNxaHOENp3V6P55c3ofuJlRDbuRbyhw4bgrInFyJ9fhewpJQiU5sKXmwF/QXDAhrdKxeKI90QRrg/ZMBwozbb3zROJDIR4Vxix9h7EQmH0HmhH984mtK+rseMMx01A9rAKPK0SyfkT4Zo3Hsgz/zZBmCHYCcP8mGQYZuBl8GUYdgIxLzmPIVlheOApEMtQUSAWETlDxeNxG4p7enoQamlDZ10jQrtr0LW9Gj3bquFq6YCnuwdes5zHhD1bGfaZS793wCrEJnEimTBTbxzwuODJSN/3AA2dlYqnK8QxM/FxzCde3OdDPJiBeH42XGOLkDJBn73CKROGUyb4JlN9Ydj5eHTCcEZGxsE2CWdiEM7MzFR1eJAoEMtQUSAWETlDOVXQcDhsK8Xd3d3o6upCZ00DOndWI3GgEfEDzYjVtSIZCtu2BrY3uEzIfHUkilMMrua+XOGoCd8hpNjTXGCCKS8HKlyy/cLjNkHXBPlMP1w5mXCX5SFVnIuEmVCeD2T47Qk3+HHIyakKO20SThh2WiU4MRj3D8NcjsvLwFIglqGiQCwicoaLxWKIRCI2FDMQcwp1dtqAzOpxuKcX8e5eJHtMKO6OwGUmBllyMRCfSg40Qdtd2wrPsm19IzosnoxkcQ4wUGccM/fDYdNSPDiQ98mwfXB9X133wz8KnQPoeKAcQy/bIpx2CYZhXud83s7lZHAoEMtQUSAWETnDsSLav33CqRQ7gZiX0d4wYiY0J1gljsWRMj/DkShO9QPE1d4N175meB9ejVRpHhKXz0GqPN8e1DYgbIXYY6vE9vprVJ4ZhFnpZcjtXxl2ArEqw0NLgViGigKxiIj8Q/sEg7AThjlxPqvIrCb3P9jslD9CWrvg2tUA990rgPICJK9biFSVCTsDFYiPAwOtMzEQ92+TcKrDDMHOpDA8dBSIZajoCAAREbFBkF//96+Isj2AIynk5eXZy/7VUS7HicOQMRye7NTXctAXLJ118HM6wrKDOfF59A/AznN3Jv7bCcZcnhVkhWGR04cqxCIiclD/9glOrAz3n1gl5nwu41SVT+VjJNUSQmJrDSJ/fhbuMUXw33gePONKgWAgvcTgc6rCBwN5v4DshOT+wV+V4aGjCrEMFQViERE5hBN0OTnB2AnCTtsEAzGnUw3EiaYORDftQ/tvH4HPBOHcd14G38RyuLIy0ksMPicQOwfRcXICMC858TYuozA8tBSIZagoEIuIyFEx8DoBuH8QHqhAHK1vRfe6Xaj/2d0ImCBc9sHrkDFlDDw5Q3dqXgZiBt4jTU5AVggeHgrEMlQUiEVE5Kj4EeEcQNf/QLr+1zmdrHBtM9pXbcUOE3iyplRh0qfehuwZE+AdwkDMsMuJwfjw67zkJMNDgViGigKxiIgMm96aRrS8tAkbv/Zr5E4bh+mfeTdyZ02ELy87vYScyRSIZahot1dEREREzmgKxCIiMugSkShiHV1Ipc9wdyJO5WdFRI6HArGIiAy6eGc3uvfWIlzfgnhXb3rusfFseLH2EMIHmtCzv8EGYxGRwaBALCIigy7S2Ia21dvQsXGXCcXN6bnHloolbIhuX78THRt2HneQFhE5UQrEIiIy6HgQVO70Cah9eDmq73waoe37kegJp2/9RzyAqm3NVuz+7QPo3LoP+QunwzeEI0+IyJlFgVhERAadNzcLmVUltlLc/OIG1D74Arp21SDefWjVt69Nogvta3eg9v4XTCjejmQkiuC4crgD/vRSIiIDS4FYREQGndvntaE4a0IFevY1YNsP/4Km59banuL+eOAc2yQOPPA8dvzyLrjcLmSOKYE3KwMujz6yRGRw6K+LiIgMCU/Aj+IL5yNv9kRE20PY99fHUHPvUvTUNCAZjiIW6kbn1r3Y8/sH0fDkyzYAF18wD3lzJqfvQURkcCgQi4jIkGCVOG/uZGRPqWJvBDo27ELzC+vQunKzDcO9tc32301m6t5XZ6vC+fOnIWtiZfoeREQGhwKxiIgMCZfXg6zxFbYf2JvNA+Rc6Ny2D7UPPI9IUwdC26tx4P7nEW5ohcvjga8gB9mTxyCjrLDvDkREBokCsYiIDKng+HKUXnY2vDmZ6ZNtpF6dUimkYjEEq0pRdunZNhSLiAw2BWIRERlSWeMYiM+CLy8bqUQCyZgJxczCyRSS8bgdacKG5kvPgj9fgVhEBp8CsYiIDCm2TJSZsBsoyrPhNxGO2ktWi3mdsidUmEC8UIFYRIaEArGIiAwpHlzny8tC9iT2Bxel5/Zxe70Ijq9AZlUZPFmZGmpNRIaE/tKIiMiQYshl2OXZ53KmjDUzXOkbzIdSwI8Czp82zgbng7eJiAwiBWIRERlyngw/Si9dZELxtL4qMIOvmTjUGvuL8+dPTS8pIjL4FIhFRGTIOUOwZY4ptVVhnpHObeZ5sjPtuMMZ5RpqTUSGjitlpK+LiMgoEuvsRjISw2j+M17996ew7Qd/tqdwdmf4kDtjAuZ+82PImzslvcToYhs80pVuTzDDzpOTF23tRMem3djyndvM9Q7Mufmfkb9gmtlhOrT3XORUKRCLiIw2doiyJEJb9yLS3IGkuT5atb2yDXUPL0f72m3w5WahcPEsVN5wETKrStNLjC4MxGwB6TsBSZkNx3LyFIhlqCgQi4iMMl27DqDx2VVoenYNuqsb7MksRqtoW8hWh2Ptob7RJwpykVlZDE9mIL3E6OMyIZihjT3SHEvZl5+dvkVOlAKxDBUFYhGR0cL8ue7aU4umpWuw/29PmiBZb+bF4S/kaZBHJ34EpWIJE4x7TCD2wJeXCZebB9mlFxhleJKRaGs3fLn5yJ0xGePeeRXy501VgDtJCsQyVBSIRURGA/OXmmdx23vbQ6i+82k0PPUyKq6dg5KLp6Lg7HHphUYfhuFYZxhtq/fbMJw3pxLugA8uz+hMxPHOCFpX7kXDk1vQtasF5deej/Hveh0qXncuS8fppU4MP6bZFsPKszP157TMuLkjcZpRIJahokAsIjIK2DaJZ1ah5u5nEW5sQHBsLsa9/WzkLxoLf/4orxDH+1WIc3kyDga+0RmIk+a5xFp7UP/4ZtQ9ugW9B0IoOncexrzhooOnqz5Ru3fvxg9/+EP4/X4sWrQIb3jDG5Cfn5++FfjDH/6ATZs24TOf+QxKS0dn7/XRKBDLUFEgFhEZycyfaNsm8dwaVNs2iQZkTczHmLcsRMnFUxCsKkgvKCNJ+7oaNDy1DTV3rUYqydEzJqP8xkuRPXsiAqUF8Hq98Hg8dnqtyu7q1atx00032Z2Hyy67DP/xH/+BiRMnIjMz097++c9/Hs888wz+9re/YcKECXbe6UKBWIaKxiEWERmp2CaRSKDx6VXYf8cTqH/iJQTH5aHKhOHx71qsMDyC5c+vwrh3no3y6+eZlzGC6vuWYuMtf8eup15EY0MDOjo60Nvbi3g8boPu8Whra8OuXbuwY8cOe/21sJWCU8K8h5zrInJkCsQiIiNU154D2Pt/D6HmnmcRaWxC5evn25BVfNHoHKP3TOMvCGLsWxZg7FvPQsHCKsS37UfrwyvQ8PCLCDU020AcDocRi8WOK6zOnTvXtkw8+eSTtkXiaBiyW1pacN999+ELX/gCPvjBD+Lf/u3fcMstt2DPnj32cUXkUArEIiIjTcqE4d0HbJtEzd3PIFxXj6wJeah62yIUnTcJwbGqDI8GHp5oZHoZyq6YjoprZiFYEkTM7OS0P7kKrSs3o2N/3QmF4unTp9tAzJ7i7du3o6mpyVZ/DxcKhfDyyy/bVou9e/faZRobG7F+/XosX74cBw4cSC8pIg4FYhGRkcS2ScSP3iahMDzqFCwYiwnvWYKK6+chkOFC9/Mb0Hj3UrSt2Yburi4biiORyGu2T7BveMGCBXaZffv2YevWrfbnDv8ZBuW///3vaGhowCWXXILvfve7eMc73mF7ju+55x5s3rw5vaSIOBSIRURGELVJnJ5s+8SNCzH2rYv62ie2V6PtkZdOqH2Cw60VFRXhjW98ow3Cjz76qK0GH473s3PnTlRUVODSSy9FYWGhDdKLFy+21WG2U4jIoRSIRURGgn5tEtV3Pd03moTaJE4br7ZPzEDFNbORxfaJvU77xKbjbp/Izc3FhRdeiJycHHtwHdsneIBef6w086C77OxsjBs3DhkZGSgrK7MBubOzUz3EIkegQCwiMtxMGE6xz/OZV7D/jifR8MRKE4Bz7NBqapMYGGwrYMiMxxN2Op6D2Prj8olE8rhHhDga2z7xrnNQfv1cBPxO+8Rzh7RPRKPRo7ZPBINBzJ492wZdrhN7hffv35++9VXOyTuc++Alp8NP6iEifRSIRUSGGdsk9tz2kD3pRqSxEZXXz8O4dyxGidokBkQkEsXmzbvx29/ei49+9Jt417u+iL/85ZH0rcfn7rufxr/92/dN+KxPzzl5bJ8Yd+MijH3bIhOQOfpEv/aJxhb09PS8ZqV44cKFWLJkCZYuXWp7iftjRXjKlCmor6/Hc8+ZsN3WhnXr1mHVqlWoqqqybRcicigFYhGR4dK/TeJOtkk4o0mchaLzT6xNorc3YsPa88+vxoMPPo+77noKd975JB57bDlWr96ChoZWGwzPRD09YbzwwhqsX7/DXvf5vHY6EVu37sFTT72Ezs5u+29ePvzwC/jrXx/F7bc/Zrf38uXrUF1dj2g0Zpc5Gk9mun3icrZPzEJWab/RJ17ahM4jtE8cXi2eNGkS5s2bh66uLhug+8vLy8PFF19srz/77LMmzN+Nxx9/3KxbNc4777zT7uQdIgNBgVhEZDjwK+x0mwTPQNfA0STYJvHmE2+TYFhqbe3Eiy+ux//+75/xxS/+BJ/4xHfwr//6bXz1q7fgT396GBs37kAodGhwOlN0dfXikUeWwe124XOfez9uvfW/8fa3vy5968mprW3Cl7/8//BP//QVfPCDN+PjH/8Ofv7z27FixQZ0dx9fj27BwrGY8O50+0TAhe4XNtrRJ1rZPhF6tX2Cw6bxzHb9z2jHKu/UqVPtVFxcbG932iH47xtvvBHl5eVYtmyZWc8vm52jO+19velNb8KsWbPsciLyKp26WURkGLAy3PjMKtSYAMTKMMMw2yROtDJMsVgcv/713diyZQ8yMgKYMmUsCgpyzC0uE4K7UF/fgqamNnz4w2/BnDmT+37oDLJvXx3e977/xpIlc/ClL30I2dlBEyA96VuPzze/+WvbZnHHHf+DuXOnmO3ajVWrNqOjo8tWhFmBZwWaVfivf/1fMGFCZfonjy3RG0P3/lbUPrgetQ9vQmhfGzLmTUHe5YtQcuki5JQW2RElNmzYgMmTJ2PGjBnpn4QJ3t12NAkOs+bz+ewoEuwxZkWZP8OKcG1tra0gBwIBO9oEK8tZWVk2QI8GOnWzDBUFYhGRIea0SfAAOvYMs02CB9CxZ/hkDqBjCPv0p7+PlpZ2vOUtV+Dss2ehoqLYVhTr65uxbdtebDKh4s1vvsyEqrH2oDK2EDA8n3vu3PS99AVrzg8GM214JC7LNoMdO/bZYM0qMwMXQ/c55/Rfphfbt+83wfDVZaZOHWdC2my7DKucbOtwlmHVNiPDh8rKUhPSxiAnhyHVaw9c4/M4cKDRTvwZj8dtQlwmxo4tR3l5sQl2ufY+GUobG9uwf38d2tu7bHtBRoYfpSZEVlWVoqSkELt2VeOJJ1bY6u2sWZNw001X20oqr0+eXGWfb0VFCRYsmG7vk9gOsWzZGrtu8+dPs/MOD8QOfoQyFLNV5YEHnrOV45/85LN2O5+ItjXVqH9yCw7csxbh3iS848pReM0S5E2fgGzznDmGsN/vP6QSfCaItYfQuW0/dvz0DsTM6z3nvz+E/LNmINO8v0UGkgKxiMhQMX9tU6kk9vzfg6i582nUP7YCldfPtz3D49+9OL3QiQuHo/jQh262wfGrX/2YCYIFJtRmmODUN9qAMzm6unpMMPy8CXwl+M1vvpKeCxvsbrrpcxg/vsK2FRCXZW/yrbfehWefXYXdJsxzBIQPfejN+NnPPm+XYQDet6/WLrN06Wrs2dO3zD//81tMOPycXYZtBAcONJnHu9ss8wr27q1FcXE+rr76PLz73ddh+vTxJhRn2QDM1g+2ODz66DITeFtNEPSZdSrHDTdciiuuWIKzzppp73Pbtn0miK7BPfc8ZavjXH8+9wsvXIjrr78IF120CLfddj+++MWf2dDOlgmPp68y/J//+T780z/dgLe//XO45poL8K1vfcLOp+3b95n5nzf3cTG+8Y1/tfOOFogZ/BmCecAew3dhYZ6976qqsvQSx6/nQDt23/Yi6u5fh44tDfDPGo/8C+Yhb8FUe6Acq7wMxfY5nCGZON7Zg5599dh3++Pcq8LML74fhUtmI3gS21fkWBSIRUSGCL/+De2oxvaf3I7WlzaYfBzHzM+9DuXXmg/4UxhazWmZWLlyk63U8ut6VlKLi/MwcWKV/ffYsa8GiBMJxK+8sgX33fcs2to6bMWVlVUGsokTKw9WVV9+eRMeeGCp7WMuKyvCzJkT7TKs/DoVVh7Y9/jjK2xFlRXeoqJ8WymuqWmwIfjjH3+7rSi3tHSYEHqrnTd//nSzXF81mBVlhmhWv9/4xkvtPB40+Ic/PGjnjRtXbgN1OByxVXH+/Pvf/wa7s/DMMy/jBz/4gwmyU/G+911vf5YV7kDAf8qBeOPGnbY6/MwzqzBnzhS87nXn2UtWtE+U0z6x61fPYd9fXzZh2wT4vGz48rPhcXvgNjs8bpe7b+fmDAnEKbMjk+gOo6emEZlVJZjysTej7KolyDHvFZGBpIPqRESGCiu1DDU+D0zCAZIpJDnerPnQPxWsDJ977jzb/sD+2G4TIGprG7F16z4899wrWLp0le1vdUZIOBFsW3DaCi6/fDFuuOESG0j7txjUmLCybNk6jBlTesgyThgmVpmffnqlWae9tvWC4bu5ud22c3B0ho6OvjOuseLKajLbNFhNZ8V14sQxmD17sg3MrCo72CrC58QdgszMgHn8EsyYMdFO48dX2sDLn7nqqnORn59jr3O9OPH+BkLf+q+3OxesXDPEZ2ZmpG89USn7XkhxvGPz3kiY5x9LJRBOxBBOxhE112MuM99j0rB5D7kDPngy/GYKnLaT1+xY+IvykDN9HPJmTkDA7Eh5/L709hIZOKoQi4gMJfMXd+8fH7TDrNU9vALl18zE2BsXYfx7z4XLzcrfyZf+IpGYDYgMaWxb4MFky5atta0CixbNtK0JM2ZMOKEK8W23PYCbb77Ftkdcfvk5thXjcL/73X341rd+g5///Au45JKzjrjMb397Dz7/+Z/Yyi37hB2sdrLf+U9/+hbOP3++Xf8///khu9779tXbPt9586ba9WeFlwcLOqMtsDLL4c42b95lQ+i0aeNttZhBnOGXy/H+uS1Y8eX6f/e7n7I/Szt3Vp9yhfj737/NVqq///1/x8KF022V+mQwAPfWtGHvH15E7QPr0bq1Ae5pFfAsmAz/9Cp7sFwwmGWmTGRkcArA5+vrKT6dcecgaXZ8wo2t8JidnsLFsxAoKbBBWWQgeW420tdFRGSwmbzrL8iFLy/LfNBHTAhqRe+BViSjcTM/C/78YHrBE8fgy/F18/KybbWUoZCjSrDq+sQTL+GCCxbY1gKOinDnnU/ZA9kY+rhSrMYyKDNgspr6hjdcYu9z3brttnf4uusutJXaI43fu2bNNhtOuQzbM468zFa89NJGfOxjb7WjXbz73dfibW+7yk5vetNlNuwySLPaXVpaaNZ9vO0rZusBK8ps3dixY7/dX2D1l7KzMzFpUpUJ+ZNsqObz4sGDPAlHdXWDPSiOFfP29pANrVz/K69cYn+W2OLB58v2icsuW2zDM8M6+5Y5f/r0CbbiTc89txobNuy061tWVmjnEbfNunU7TIC+2mzzsoNh/US1r96PA/euRe1969DVG0d8WiXiF0xHakoFXMV58Baa90xRHgJm2wTLipBVUWKmYgTLi+y8QGnBaTllcDLPNzi2DFlmR81fnA9WxV0nuZ1FjkbvKBGRIRY0obT4/PkY+7YrkTVhLHrrelBz52o0P78D3Xua00sdPwZeBtfVq7faXl+OtFBWVmzDKdsYeFAah13jOLTE4BcMBuyBZjyRRHd3j7m93QbJw8cqZkgtMkGsrq7Ztk8c6fTFzjJs0+B0pGUYbFmR5ggQ7EO++urzTTg911Z/8/NN2GMbicEfYxWZoZzVXlaGGWQZhF98cZ0NvA62SvDgvWnTxh2sIHM9GIbZnuG0YRwNwyvXnX3GXG8+LvuPWSHm9ePB1otrr73AHsx3okO5UaI3io5NtWh4cgvqHt+CztZeRCsLkVw0CYnJ5YgXZSOe6UMsw4tkVsDsBZidhvxseAtybCsBp8DpPJkAnGF2QPg7k2l28rzm9XKlD4wUGUgKxCIiw4DVrgnvuRZVb74EmZXlqH9iK/b/bRWalm5HKp7sS4bHicH27rufwp/+9JDtFWZ4ZVW0tbXDVlbZOsGqJntqiYGYvbkMyCtXbrTLs/rKs9o1N7fZZRw8AI6V5g0bdthxd1lFZoDkYzoYQtnasH79dvt4R1qGB+Sx6svHY88w+4c5di/7b//4xwdtFZjYO/zww8/b8MtNwMDMA9Ve97rzbUsHD8RzbNy4C3/72+MmzDahvLwIl156Nt70pktt8Obwbq8VahlgGWQ5fBvXm5XhTZt22QPkjrffmpV0jjvMHY8TxTaJSFMXDtyzBjX3rEXL+gNITipD6pypSMwbj1SGz+5YcMg6Bn9OvK5OR5GBp5YJEZFh44KfY+pm+tHZ0opobTsi9e197ROFJ9I+4bIHmDGI8kxpjz663I6J+/jjL9ph0kpLC0xwu9geCJebm2UDFdsLWlo68eSTL9l+XY7lm5eXY9sCWFl2WiZ4wgeOCME+XN73Pfc8jbvuetKGU2eMYbZIMBTv3l1jguyryzBosspLfeMDF9jQycfgkGocfq2rq9tWdllpZf8tQ19tbbM9VTKfA0e4ePrpl22/LyvLHEqNLQ7EwM+h3HjQH5e9//5nbVsG1+eyy8624yTzPo/WMsHKetKEUu4QsKLMtg+Oa8yKOs/st3DhjNdsmfj73x8HR/jgc2Cryono3ybR3ZtAckYVUhfMQHJMIZI+j32duPPCETv4OnDoNU4ck5hDsHEeb+MyInJqFIhFRIaLyTE+E6ISfg86I70I17eZQGymA23w5WTAl5sBf8Frh2LmIY5PyyDYVxVN2etZWUE7fi8P9mKQZLBlVZQBigeh8TpHdGA7A8fN5XBhbCFgcGYYJAZZVpMZuNkKwQolH4ttCs5IE84yrAozZDrLsAfXGWmCB4Gx2szbiffFcM4D4RisOYpFIMCKKIvjKRuMOYQcAx+X47BxF1200ATnSebffcGT98G2B1aVGWz5nFnx5WOyX5p9xQy3rFSzX5jVZj5HB3uu2WPM7cd153NnaOZ6sz95yZK5NoRTW1vI3n7xxWcdEnwZ1BmieSITZ71eC9skQtsbUP/opr42ifouxCeUAWdNQnJSOZJmB8nZTnx+3AbcngzCzqRALDKwNMqEiMgwa29vx949e9By73MIPbka0ZU7UP66mRj71kUY/+5z4eIwWwo9pwU7moTZ4dl724uofXAD2rY3wb14MlLnTUdiZpXdmeirXPcFYo4iwaowT7ecm5trwnievczJyTEBPWhDsQKxyKlThVhEZJixl7entxfJYADJgBfx3jCi9R2INXScRPuEjGTta/bb0zPX3r8O3eH+bRJFSHjdh4RhVoedyjDDL0MxL/lvzmdYVoVYZGDooDoRkWHGUMOgkz2+AjlnTUfw8gVIFuahfU8bau5ajebnTm70CRk5eBY6O5rEE1tQZ6ZQay9ilcV9bRLjSpAI9rVJHC0MZ2dnHwzDbJdgGOYyIjIw9NskIjLMGG5Y/ePX4LmTxyLv9ech4+I5iGUHXx194rntSHLUBnW5jTp2NInmEA7cmx5NYi1HkygHlnA0iQm2h9wJw+xiZNBlKwTDr/O+4MRQzH+zhcIJxaoOiwwMtUyIiIwATrDhpZ2yM4EMH+LhMKJ1r7ZPBAqz4cvXWbpGk4NtEhxN4jXaJJwD6JyqsNMv3L9CzNsZmhWGRQaOArGIyAjgBBw78avwYMAOx8bht2KNHYiaQBw90A5fTuC4R5+Q4cU2idC2+ldHk2joQnz8q6NJJMwOT/8w7LRJ9A/DvOxfGebt6hsWGXhqmRARGWbOV+T8Gpxh6ODX5JOqkHfdeci4aA5iZn79E1vS7RM71D4xwvW1SXThwH3rUHNvvzYJe9INtUmIjDSqEIuIjBBOlZiX/f/tyskEMn3p0SfaEWvoRDKaUPvECNa+ptr2DNs2iZ4EUjOqkDy/76Qbr9Um0T8Mq01CZGhoHGIRkRGEIYlj0UYiEfT29qKnpwehUAihXTXoWLkJ4aUb4OkIIW9cPsa9/WwULBoHf9GJnSFtJOFHUCqesO0FLo8bngxf37jLPGvJKJSMJRBt7kL945tQ+9hmdFR3IDG53LZJJKZWHlIZJoZcJwwfqTLMqrDaJEQGnwKxiMgIFIvF7PjEDMXd3d19obijEx0PLkfPs+sQX70b5VfMQPGFk00oHp/+qdGHATLRE0G4oQvugBeB0mx4zKXtox6FYqEw2l7ei8Znt6NtR/qkG+dOQ2LW2ENOusGPXoZctkn0rwyzb5hB2GmTcMKwiAwuBWIRkRGIf5p5+mJ70o6eHjt1mVDcuecAQi9vQdcTr8DbHoLPlYIvb/QeYMfnmUqYkBiJmxDsgttvwvAorhCz2h1t70EsI4B4ZRGS503va5M4xjjDapMQGX4KxCIiIxTD09HbJzYjvGYnYvVtdhnnT7lzaSPUaAhSsTjQE4W7sQMpvw+pkhwg4AM8o/uYb9eEEmBmFZLTKpA0z8cG//Rrw5DrVIbVJiEyMigQi4iMcEdsn+jsROfWvehuaEUkHDHhmV/HM3T1VSBpVISpUC9cB9rgfX4LUoXZSC6ZiqQTikcrs91TRdn2+RzcQTHzODltEmyHUJuEyMihQCwiMsLxz3T/9gmG4q6uLoQaW9DV0Ynenl5zWwQxs4xTLR4tf9pd7T1w7W2E96HVSJXmIXHlXKTK85HK9KeXGKX83r7JcMIwh0xzwnD/vmG1SYgMPwViEZFR4GjtEwzHnMLhsL2N1WSnV3U0/Hl3tXUDO+vhvnsFUFGA5HULgTFFhwTi1tZWNDc32wqqc+Y2B59ne3u73RbcaRgzZowNnCOBE4QZcJ3KMNshnLGGGYTVJiEyMigQi4iMIoe3T/QPxE4oZjB0QvFIl2oJIbWjDqm/L4OrshDuN5wNVBX3nakvbd26dVi5ciUqKysxdepUTJky5WBo5HPeuHEj9u3bZ7fJ1VdfjbKyMnvbSHB4GHaqw07/sNokREYGBWIRkVGEf7L7t08wBHJiEGY45HxOrCZzGukYiONbaxD50zNwVxUhcOP58IwrPSQQt7W1Ye/evXj++edtKL7oootQWFhon/OBAwfwxBNPoLi4GOecc469fSRViBly2SrBwMtA7IRiVomdSW0SIsNPgVhEZJRh5ddpn3AmJwizgsyJoXk0BOJ4Yzuim/ah/TePwDuuBHnvuhy+ieVwZ796Bj4+j46ODjz00EP2khVght+WlhasXbvWzps3b54NyqzEcvtwZ2H37t221YI7DAydDMtjx461VVmGVG4jtmPU19fbiduRAZa3s/WipMSsT15eei1O3OGBmOvmBOP+l1xGYVhkeCkQi4iMUk7w5SVDI687E/89GgJxtL4VXWt3ou6ndyFjUgXKPnQdMqdUwZNz6NjKDPtsi3j00Udtpfh973ufrRo/99xzeO9734uzzjrLBl7iAYfV1dW46667sGbNGjQ0NNhge/HFF+Oaa66xLRcMvVzulVdesffx0ksv2XDM6i3D8KWXXorzzjsPs2bNsvd5shiGnVB8+MSAzNtEZPgpEIuIjFL8881qKC+d6fB/j3Th2ma0vbwF2799G7KnVmHyp25C9ozx8OZmpZfow+fCqi/D8AMPPICamhrbhzt9+nTcdNNNmDx5sq240ooVK/DMM8/Yf5eXl9tKL1srdu3aZavFn/jEJzBhwgQ77xvf+IYNwWeffbZdjtuPLRpbt27F+eefbwP0yXKqvk47RP+p/zwRGX6je+RzEZEzGMOUU310vo53+lP7H7Q1kqegWdcME1zdbhe85rlw/Y+07hyNobS0FAsWLLCtEbW1tfZ5X3XVVbbiy55iZ9mmpiYbirdv324rxXV1dXZ5/psH4DH0cjk+Dreh02rCx6iqqrJV4fnz5x9srzjZiffPic/JaY/g68T1Vs+wyMiiQCwiIqPGpEmTcOWVV9rh11jlveKKK5Cfn5++tQ/7hlevXo17770XP/zhD/HZz34WP/nJT7B06VJ0dnYebCXhjsPixYttiwnbK26//XYbpBmOX//612PRokV2ORE5/SkQi4jIqOG0GTjT0SqtHHXii1/8Im677Tb87W9/Ozj99Kc/xcSJE+0yHM/4+uuvx8c+9jF89KMfxezZs20rxl//+lf84he/sOFYRM4MCsQiIjKqOAHYCcWHY+tDRUWFrRxPmzYNl19+uT1IjtdZFXYOZGPrBCvGrDazFYMH5rECzZC9fPlybNu2zS4nIqc/BWIRETmt8EA6HmT34osv2olDqvEAuhdeeAF33HGHbakgnt2OQ7nxpB88aI+9wwzPHI2CZ79zlhOR058CsYiInFbmzp2Lt73tbbZt4qmnnsK///u/48tf/jI2bNhgD5bjgW7EA9x4EB0rwTfffDM+8pGP4L/+67/wyCOP2GDMsY5F5MzgMX8Ebk5fFxERGVLxzm70HmhC49LVCBTlofj8eQiUFMCT4U8v8Y94UBxbHRh858yZk577KrZFOAfacUQHtkgUFRXZCjAPlGMFmWGYVWG2XPCSB9JxNAguxx5jVolnzJhh+4xF5PSncYhFRGTY9NY0ouWlTdj4tV8jd9o4TP/Mu5E7ayJ8ednpJUREBp9aJkRERETkjKZALCIiIiJnNAViERERETmjKRCLiIiIyBlNgVhEREREzmgKxCIiIiJyRlMgFhEREZEzmgKxiIiIiJzRFIhFRERE5IymQCwiIiIiZzQFYhERERE5oykQi4jI4Etx4v+dBP7cyf6siMhxUCAWEZFBl4hEEW3vQjIeT885folIDNGOLqTiifQcEZGBpUAsIiKDLmYCbdeuGvTWNCHW2Z2ee2ypRBLRlg707K9H955aJMKR9C0iIgNLgVhERAZdtLUTnZv3oGP9DhtwU4nEMdsgUsmUDcChbfvQsWEnunZUI9GjQCwig0OBWEREBl1GeSFyZ4xH7UPLUH3n0ybo7ke8J5y+9R9FWzvQtnobdv/2fnRu2YuCRdPhzQmmbxURGVgKxCIiMui82UFkVBQj3h1G26otqGEo3rr3H9onUsm+NonWlzej5q5n0GmCM2VWlsAd8NnrIiIDTYFYREQGndvnhS83C9lTqhBuaMWOX9yJxmdWo6e6wYZgjkKRSqWQDEcR2r4ftQ88j73/9yA8mX4Ex5XDE8yAy62PLBEZHPrrIiIiQ8Id8KP4/HnInT3RHmS398+PoubuZ20o5igUrBZ3bt2LXb+5H/VPrITL50HxBfORO2ti+h5ERAaHArGIiAwJtwm4DLfZk6sAj9seMNe8fB2al61DrL0LvTWNaHxmFVpWbERvbTO8OVnImzMZWeMr0vcgIjI4FIhFRGRIuDweBKtKbcANFOfD5YJtj6h75EXbN9y1s8ZejzS0wOP3IqO8CNmTxiBQkp++BxGRwaFALCIiQyprQgXKrlwCf3GBHXotFYuZi6TtJU6a6zBBOWtyFcquOAf+gpz0T4mIDB4FYhERGVLBsWUovWQh/IW59t88AYc9qC5pwnHCXHG5bBW55OIF8OVn22VERAaTArGIiAypzMpiFC2ZjYAJxC6355Dzc/C62+uxobnonFnw5WSlbxERGTwKxCIiMqRcHIItLxs508chc0yJrQg73H4vsqeMRdaEcnizMuHy6GNKRAaf/tKIiMiQ4njC3qwMFJw1w4ZiO74wQ7HbBU9mID1/PFxezyFhWURksCgQi4jIkOOYxEXnzkXunMl2vGGXCb42KGcHUcSximdq7GERGToKxCIiMuTYJ5w1vhzByhJ4TDhmdZjDsrFNIntiJTLKCtNLiogMPleK58oUETkdcUivZArJSNSeCS0RjtrRDGTkOHDvUmz/6R32bHVsl8ibPRmz//sDyJ01Kb2EjCTugA+eDL+dDra6iJwGFIhF5LTBcWw5hFcqnrBTMhZHMhpDtD2EaCunDpOR9SdvJOnYsAsNT65C+9pt8OZmofDsWSi/+hxkVBSll5CRxJ+fY4fL4/jQrOzzAEm3mdjvzQq/y62ALKOTArGInDbCDa3o3luHzi170LlpD7r31SLa0mlCsQnGcYbjeHpJGSnioR5EWjrMZbcNVb7cbASK82yPsYw8PP22DcFeL/xFuXZ4PJ5em1P25DE2LNvKscgoo0AsIqNaoieMcGOrPQVwaOs+hHZU21AcbWtDMtJrPsFT8ATMB3iGF54MX/qnZKSwLS2xBKJNITvkmq8wC24OtaZC44iUjMSRMFMyHDM7mS7zmmUgUFiArImVdmSQvNmTkD2lyp52m6FZr6OMFgrEIjIq2dP8RmPo2d+A1pWbUP33J9GxcRcizW3wZPrNh3M5cmeWI3tqKfwmZPVNQTuagYwcDMPxrjDa19XAl5uBnJkV8JhgrPGHR6Zoe6/Z2exGrLXH7IQ2onNLPTq31pod06j5/cpH8fnzUfXmS83lXPiL8vtaKdRGIaOAArGIjErh+hY0LVuH+sdWoG31VsTaOpA7qwz5C8ag4KzxyCjJgS8/E56gP/01r8deyghjPoLY9x0Lhe3IE56sgALUCJaKmx1RsxOT4o6MCcExE5DDDZ1mp3Sv+T2sRmhXKzLLS1B07hxMeM81tnLMk7CIjHQKxCIyejA8mSm0bT9aVm5E3SMvomdvNVyeOPLmVKJg8XgUzB+LnBnl8GT6VGUUGWQMyIneKDo216HtFfN7+dIedG5pMLcEUHb5YhRcvADZcyfZ03R7vF54PGbH1O22k76tkZFEgVhERg2OGhHv6sG+Pz+KmnueRduqLSg8exwqrpuDce9abNsi2IcqIkMv3h1BT3Ubdv9mGWof3IBwYwiFb7oIRa8/D/kLpyPIAyYzMuDz+eA14ZiTyEihQCwio0b3nloThJ9G3SMrzIdtI/IXVKDi2jkoWjIRmRV5fWc809ftIsOCrS+JcMz2Fjct3YE9/7cc8aQHGbMnofj9r0PO+AoEC/KQYUJxIBCA3+9XKJYRw3Ozkb4uIjJi8cQNzcvWY/9fH0eipxO504tRdeMiG4azxhXC5dVXsCLDiTuj/IbGXxCELzeTcxCuaUHP/mYk+KuZkwlXTtCeG8eeqttMTuuEfndluKnBTkRGNvYNJ5L2wLn6R5ejbc02ZE3Mt2G44prZCFYVpBcUkZGAwxvmTi/D5I9eiKJzxpu92R6037cM7Wu2o7OlFV1dXWZWD8LhMKLRKBKJRPonRYaPArGIjGiJSAy9tc1ofHY12tZuRcGicX1tEhdMti0SIjLy8HczUJCF8qtnofJ1s4D2LnSv32VDcait/WAo7u3ttaE4HtdJc2R4KRCLyIjG0y03LX3FjjHs8iRQef3cvmHVSnPULywyQtn2iYAX+fOqUHL+JGSWZCFZ04judTsRam1HqLPziJViHdYkw0WBWERGLJ58g9XhmnueQbi+EdmTS1D1loXInlScXkJERrLMMfnIM6E4f34VPF3diG7ah66mFoQ6OhEKhQ6G4kgkglgshqT5nRcZDgrEIjJiRZra7ZjDbau3Izg2F6WXToOvIKhWCZFRJFCSg8o3zENWRR6STR2IbNmP3voWdHd3H2ybUCCW4aZALCIjVm9NownEe23bRPbUEhQungBP0KdWCZFRhGeMLDxnIoKVeXBFYojvqke4qc2G4cNDMXuJFYplOCgQi8iI1bX7gAnE++DyepAzvcyejc6ts8+JjCreoB85U0ps+4TXZ35/q5sQa+20IZiB2AnFGnVChpM+WURkxOrecwA91XUmDJciszzPHqQDjVcqMvqY31sOkZhTlQdvQweSnT22RYIhmMGYkxOIWSXWwXUy1BSIRWTksWMPJxBuaEO0oxM5U0vhL8qCS9VhkVErozwXQbNj6zJhONUdRjwStQGYrRIMw04fsSrEMhz06SIiI04qmbKngI12dCFpPiCzJhXbPsTTVTgcRWNjqwkE0fQckdcWjyfQ0tKBnp5wes7I5i/MQqA4G4jEkeqJIGne96wGO6GYk1omZLgoEIvIiJOMxRFrD9kPTLfPbT5Ig/CwXeI09eKL6/DOd34RK1duSs8ReW27dtXgk5/8Hh54YGl6zsjmCfrhzQr0dT2Z33FEYkia8MsAzMqw0y6hQCzDQYFYREacVNx8QLZ3IRmJwuV1w5eXCXfAl771xD3zzMv4xS/+Zqdf/vLvuPXWu/B//3c/7rvvGbz00gY0NbX9Q3V2z54D+NWv7sT27fvScwYPq8PPPfcKmpvb0nNGr40bd+H3v78PBw40pucMvK6uHtx115NYtmxdes7gWLVqM/7yl0dsFfZwbW2duP32R81OzMb0nKEXCnXb9+/+/fXpOcDy5evstuFtIw1P6ezJ8vcdBxA1odcEYn4bxFElGIIZhp1ArB5iGWoKxCIy4thAbD7Qk9E43F4PfLkmEJ/C2MN//OND+I//+CG+9rVf4RvfuBXf/vZv8YMf/MEGY4bi9eu329CTSLw63BOD8De/+RsT8Ham58jxWLVqk922e/fWpecMvLa2EH74wz/innueTs8ZHI89tty+X44U7pub23HLLXdi6dJX0nNGhieffAm//vU96OjoSs8ZOdwMxJkmEMMFl/kdt6HYBF8GYk5OINawazIcFIhFZMRhdShlwunBKhHHHT7F0SUWLZphgvE38Ze/fAe/+tV/m3D8L7jiiiVob++yAZlBor6+5eBjnn32bPz5z9/GhRcutP+W43P11eeZQPYVzJ49KT3n9DRmTKkJ/v+Bt73tqvSckeE973m9eT9/EsXFBek5Iwd/g138PeYV82vm4u85/9cvFLM6rJYJGQ6em430dRGRESERjiLS2IbmZesRD3XYM9RlVubDl5ORXuLE3Hffs+ZDNoXPfOa9mDJlHMaOLUVlZQny8nIQi8WxY8d++P1eZGYGMGlSFdwmgDc0tGDFivWoqChBUVG+vZ/W1g5s374fzz+/2n5Vvnr1Vmzdugfd3WHzM27k5GTZ5djb+de/PoKurl7U1DTadojVq7fYqjPvIzMzw042HBibNu3C3Xc/bcPVzJkT7bzu7l77VfhLL220j+U8Hiuvvb0RFBTkIB5P2nV/6KHnzWMH7eN70iNxMGTwuT311EpzPw3meRSZx3Pb59ZfNBrDww+/YFsduPxLL623X8OvWbPVboNkMmUeK9cuy/XlAYB8vC1b9tjl2bawbNlas/w2lJUVmufXibVrtyE/PwfV1fV44YW1JpzlIzs7aO/Dwefw9NMvo7a2yd7GlpV9+2rt8+Xjv/zyJns/3AasGubmZtt1X7duO/7+98fNa7DGrgvbJ7hsLJbAuHHl6XvvO1CR25vbnev3yitbsHt3td0B4uMFAr6D2/9w7e0h+555+OFl5mdq4PN5zeu8Fzt3Vpv3TSmCwYz042407xufDcfE1+ixx15EKNRjX9O+7bLVVmt5AByfy6pVW+y681sJvsZ8zwUCfvv+Ib5urEivX78Dy5evt8+N31LU1zfb58/XmK8jV53b7s47nzQ7b7NwwQUL7M9v3rzHbveJEyvt/fI15HuLl1wPvl7cvnwv7dy5325bPh8+R2d7cB14H+vW7bDPga0jfD68D6/Xa99rzvqeiGhrN0I7GtG0dDvi44qRMhNyMu23QLxfv99vtkemWR++l3OO+vqIDAYFYhEZcWwgbhrYQMzwwcDJIMQPX4YAhmKGXX7w7t59wCzTY4MFQyVD74c+9HUsXjwbc+dOtffD0MiA+ec/P4Inn1xhw8KGDTtsqGBQmTCh0t7XM8+sxAc/+DXzEykTYGtNgHvChOLVNtg0mqDPkF1Skm/DFB0eiE0eMeGwzgase+55Bo8+utw87kv28RjK2NrB4M7gwrDNr/VnzJiAqqoy+7yIy3R2duG73/29CejVuOiiRSb0+A4GZgfD/Oc+97+2z5rbhduKoY6PxcDFdeRj+XweG4J4n5/97P/a23kbA9mDDz5ng+zFFy+yAe5LX/oZ5syZbJ7Xbvz2t/fabcht7YQoVgDZt/297/3e7jBMmzbB/pvPly0sjzyy3K4Pgxufr9cEpvHjK5CREbBhnM+Jy9fVNdtluG35Ol5yyVn2/hny2dLw+OMvmnV73h50xmUYahl2GZxzc7MObv/DHTjQhJtv/pXtx2UvLl+fF15YY8Px5ZefY167Avu6fvrT/2O32aWXnm1/7je/uces2+/se4A7U/ff/6xtqeA2444FQ+4jjyyzrR68b+5Q8L5KSwvsurBCyh0FbocHHnjO/PxSux1efnmz2U4NdqeA4bsvQLuOGIh//vPb7c7Y9ddfbHdK+Bp8/OPftu87/g7cffdTZrussKGc72euf0lJIQoLc817w2PfN1wHrh+32333LcWzz66yOxQM6lyuvLz4mDsURxNtMYF4+2GBODcTHrMOfG8GAgEbhrOyshSIZcid+C6eiMhphJXWJUvm2lDLcMaQeTQMWKyE3nDDJSaEfhz/+7+fw3/+5/ttQNmzpya91KsY5hgc2J7x3e9+CjfeeKUNMQxJDI5Hw2DEMMLq4rXXXoCvfOUj+OUv/ws//ennbfBhGLz99sfQ0tKOsWPL7frv21dvg5uDwW/Llr02qDMo85Kh9mh4n/z5N77xUnzrW58w6/wxE37ybJWWIZSBqj8uv2PHPtx001UmhH3BBN+vYNasvjYJhm6GJlaMWXlnuOfzdrBfe9u2vTYksnrM1+Dee5+xgfONb7zMPP7HzfP9Er7znU9hwYLptrLK2xlyX//6i+xtU6eOs6Hvjjv+x05sFXBw54ahnttv8uQqu/1//OPP2NeN4ZSvI8Pp0TC8/8///Bve/var7fXvf//f7WP8+MefPaQKfSR87To7u004P9s8j0/iAx94o60Y/+EPD9gK+JVXnmN2BD6N973vDQiHI/Z15vLES743XnxxvR1K7SMfudEu+9nPvs8G0XXrtuGJJ1bY6vSJ4jZk7/WHP/xm/OAH/45vfvPjuPDCBfbbDAZvZ+g2HizInT4Gej6XT3/6nXZbfPrT77I7W6xwM6SzAi9yOlEgFpEzGj/kx48vt+GMYekYedh+bc0QynAybdr4g5W5xYvnmOA1Nr3Uq6qqSjF//nScf/5824vMy7POmmm/jmZl+WhYGWO1eeHCGba62vfzC2wFlhMfnxVLhl6G3csuO9sEzkYbaBliGOoZOjds2I7S0sJ0hffVr8SPhNXE2bMn45xz5tjnxIoyr7NqyAohWz364zrMmTPFhnE+t3PPnWfvg/g4GRl+WwlniwqrqRy1w8HKLr+yZxhm5TcvLxvTp4+3z/ecc2bjvPPmm3VYaNZhoXm+Z9kdjhUrNtjAyOd7zjlzbYWX151tMmnSmPS9s7pea6usZWVFdvtx23EdL7hgPmbOnGTbPVg1Pxq2MfB14mvA64sWzbSPwdc7K+vY42Gzis0qP58HH/fKK5eYnZGgrfByHblNuW05ny0CfM0YjInVaFbe+W9ui/PPn3dw3blNGEK5I+UsfyLKy4vMe3GaeZ3m2teXz4fVblaEN27cYavqxEDMUM75fN7Oe5c/w+uhUJd97VjdFjmdKBCLyBmNX8f39bemTCjgh/zRE3FWVtB+td3U1G6/PmbFktVQhhYGhsMDJ0MMv8ZnUOTEtoa3vvUq+5U0e3+Phl+Hs1L7lrdcYUMjwwfDLwPTxIlVtj2AQaqzs8eEzmJceuliG2TYM8tKH8MMg/vatdvtV+yspr4WhrW3vOVyG565rnyMK644x1ZE2UN6+KgFrLy++c1cfowNjUfCx2YgZeW3ryLcd+AUdwh4n3wsBmaGzHe84xpb/WW/MvuJOzpC9nL69An2dv788Z6AguGTOxzc3nwM9hezNYStAWx/YbWUbRGDgeGXOyislnM7zp8/1QZzBmWGe4ZlVsQ5n8uy0s7+YmLPOQMvd14YqBmYe3uj9n3FcMqj0RjmI5G+8HoiGLCvu+4C+5rw/c73FXc4cnODaGhote8Z4k4H21CyszPtY3KHiO9XrhN3/Lgt+T7jNyoipxMFYhE5ozEE86tkp6rJ0HE0/IqeVTUeSPfLX/4Nn/3sj2wfKft/WQU9vLrMyicnB3skWaljmDjW1968H454wa+uv/71X+ETn/gu3ve+/8ZNN30e733vf9k+0fb2ThNOYjZosQrMaiZ7dFkZZThmgGaIZGCeOPHV6unRMNTyftjiQQzlDKeszvL+Dq8I8nHZUsGgdDR8bFZaGfpYIWbY4sTAylDFsMpgzUDIlgoe3PfVr/4S//Iv3zLP88t4+9u/YJ73l+2Y0c6Bacejpydi21W+//3b8NGPfgPvfOfnTeD+vN2GX/ziT227xGCd3Y2vAb914I4T31Ps0eU8Tgz2/edT/+fE69zW7AvmCTfe854v2fV+97u/hH/+56/b9xm3gxNeTwRfXwZhZ6eNB+ZxXfhe42vrtArxOr8N4PjLn/zkd+1j963Df5l1+IbtyeY68BsVkdOJArGInNHY37l5825b6eUBTum8cESs7l18cV/rAyufU6aMtUGDow3wIKTDq8sMOP0DD6uj/GqaoYSVt6NJpZL27HXs42RFjr24bCmYN2+qPViN/bmsEjKUcL0ZwHhbXl6WHbmB1Wc+L64bQyvnvxbeF9etf9DhunOdGXoZkPvj4zI8OwfKHQkDGNsauA48oItBlBMr6wzbDMysorIFgG0ZHBGCj8+RHFjdnTt3im3jYDWTz5fb5Xg424SBe/bsKWbbTLNTXxvCfBPurrOv3/E5xhviCJzX1tku/DffU5wOn08Mok4Y5TwGZW4XPm++pmxzYNsNdyzYA/2mN11mK8snitukf9sML5x16d83z9eZ68DXgFVuZx3Yy3322TPt43PHkDtEIqcTBWIROeMwAHCkAwYx9t4uX77WVkKdKuvRsILMERHe977r8YUvfBCf/ez7bVsDDxpjT2+/XGGxMsqz0LGix4lV4T17am0wYRA8Gq4fgy3bIs47bx4+9rG32YOgOO7tV7/6MRuM+oJr3wMy7PDrbVZ42f/JEQHYXjF9+kT7OMcK3w4G6P3762xw5bqyUsheX1ZSeb+sJh6KQa8vXB0N21EY3ti3y3VYunSVDb4dHd0mnE63QZfbgl/JP/zw83Y7ssWEB3LxwD4ezMYDCtlvyzDsbN9Xw1zf69g/0BGDOHu83//+N+C///uf8cMf/gd+/OP/xI9+9Bl7n9/4xr/Y+3wtfWHWZXcKOA02HoDIbxCuvvp8+9767nc/bdeZ687n8O1vfwIf/eiNtn97sPB1ZiBn+8rnP/8BfO97/5Zeh8/Y9x8PePzAB26wLRUipxMFYhE5ozBIMoCxb5Jj5HKYMQ5xxQPAWD08vBLaH0db4FfJ7InlAXjOV9dHC4YMgE888aL9CpoTh137wx8etNXLGTP6xhs+EuY7BlKGMI5XzCDOx2K45qgETz+9Mr1kHz4+15+VY64Kh4xjiwL7mo83PHHECA4nt21b31jJ3D5sYWCAZyjPzz+5EMbhtBh++Zyfeuplu+49Pb1mWy842E7CQOsc1MWqNndO+PzZa8z2gb7q+6v4fHl/faG9Jd37/Sru2LCiyZOtcGKwZ9DnqbE5jvGvf3233XF4LVwPbntWtNnqMdi488DXjOv5178+attK2M7DHSmOP833Kt8/bIcZLNyBYq8z21o43jPf6xy7mc+fbUF33fWUXTduT5HTiQKxiJwROPIAT7XL/ttf/eou/OlPD9nhoxj+zjprlh1BgF+xHy3cEoMbK8ocpuq22x6wwYBDZPFAJQaww3+UwZZVT44LyyDD4b54sBu/DmdIPBqGci7DyiwPcLrjjsfx+9/fby4fs8NkHemgKgZJrge/XufJMRhYFiyYdkgP82thTzK3CbfNn//8sO2VZqC+6qpzUVycl17qxLBKzAPj2DbBbcdeYQZNfg3vfPXPqiTbGVjZ5SgL3Olg3zCHWmMwOzzwcnmOcMED5bjcL37xN7tz4+BJKTiKAu+PB6Fx+/32t/fYwM9AzoB3jJf5IG5PhmuOAX3rrXfb7cLROwYLh8bjgW58TD4OxyzmcG2/+929dlvwRBp9jmPlTxJbWXhQIFtduFPEHTC+153Xg79HIqcjBWIRGZmOJ7EcJ4ZCBt8f/vAP+J//+T1+9rO/2tDFEzVwnNlPfvIdtjLHr/CdQMzQxt5dBk0Hq7rFxQV2LFiGlD/+8UEbWNmfyhEZDg8q7DHmSAF/+cujNthwBAGGblai2ZvpYD8mq7t9B/X1VUB58B5DMc8sxjDCg/h4gg+2GLAdgOvGdeyPoxkwUDkHb/GANVZSjwf7pzkCA9st/vjHh2zY5w4Ag/5lly02gbbvbH1sVWBI5rBnR8LH699iwUA8dmyZHS+ZYYsTt3nf6BR968bL6667EOPGVWDp0tU2fHKnhRVqnk2Q25Hrx+fuLM+hy7gufA1+9KM/HlI1Z5jjduAQYxyp4u67n7Q7Q9wx4TjS3H4creO1cDkOk8awze1/66132So98Xnx/cLQ7eB1zuNt/XE+R+34x/mZ6fl9z4vLsbeZw8Nxmy1btsaGUT7uo48uM8/XY1tjMjP7XnduD57gpf9QcAzVfK3YRkN9yxQcskx/3CnhzorTKsTfFW43vkf5fmLrzu9/f5896QhP6MH3Kt8Tzut7wg7tbhEZMVzmD57eniIyosTaQ+jcsg9bvnsbemr2YtZ/vx6Fi8fbs9WdDH71zGoXMe/yw9858IrBjqGEH/T9AwsrdKwuTps2zgY8Yp8tv67mV9rOV/wMBrydQ2kFg32h4667nrQjQvAEEuxV5X2x/YHLMrAwaDAMOeGbvcZsVeCBZAxUxK/JOeIAA5hTIeX6Mbz0nemt3S5fVPRq5ZYjK7BHl5VdHgD4oQ+9OX3L0fGr8Jtu+py9H56AgdXl3t6wrW73bZs8uxPgtJLwQDtuF+4oMKgeju0JrIrz8ftXp7n92aNM3F4cf9jBNhY+X+60sD3BOfCQ24uPzxYX9kRzh4TrxOfP9WS1nS0FbCcZM6bkkNE0nBEb+HpxVAS2VzivObcxz/r2WjsLfEy+dnwcjgHM9wi3OcMle6u5HXhfznPhcG58Lfnc+983twfvhz97pPlcvv+OF18TZ93Z586Pae78sG2FOyMMsXwPc5txHdjzy50AYqsMny/vkz/D58BlWO3mdDiexITLcPn+IZf3wXXg9o1Go/b9wIMo+f7jTg3D+7Hai46kc1sDah9Yj83feAjhC2ciecF0pMaYHZ1AwDz/TPO8ONxfkQnwJeY5VRwM6SJDQYFYREacuAme3XtqsfHrv0HXzh2Y8dnXoeiCScgaX5ReYmRzAvHtt3/Xno55KDDw8fTJrHzPmjXRtoDwZBmvxQnErEj++tdfSc8VGXjtGw6g9v712Pq9RxG+bA4SF043e0f5JhD7FYhl2OndJiIjjsvngS8/G27zQZmMJRDt6EEyohMBHAmrp6zK8gA0VoZ5umK2HrDiJzKSJMMxJHoifW0TPI34ybZdiAwCBWIRGXHcXi98BbnwmECciicRbe02H6YKxEfCESVY4eVJJ3gQ1jXXnG/7lHlWPZGRJN4TRbyL7RcmEfu9QMBMJ9Z1ITJoFIhFZMRxedzwZAbgy8sy173o3tOKWOfgnFlsMEyePBaf+tQ7wdMSDzb2c/KkDTwY68ILF9oRISori//hAK6jYd/om9506XGNyytyKqKtPQg3dQE+L1IZvr5QnO6jFxlu6iEWkRFr87d+jwP3Pg1PRgrTPnMlKt8wD64TPJBHREaGnb9Yin1/X422HY2IvHExEkum2IMnOVa1eohluOndJiIjVvakMQiOH4PQzib01rYj0c3+Q+3Di4wq5lc2lUihp6YNXXUdSFUVAzk6052MLArEIjJiZU+pQu6MCUj0RBHaWo+OLXVIxgf/FLoiMnDiPRF07WxEz/5WxHgswPgSIFeBWEYWBWIRGbGyJlYib/YkeHOy0LGpDi3LdiHRG0UqqSqxyGgRbetB8/Jd6DnQhiT7hieUmkD86kGfznjcjsP/LTIUFIhFZMTy5WUje+pYlF2xGLH2OJqe34Hu3c2Id42eA+xEzmTcee2t68D+u9eiq6EbqChAalwxkN13IhKGX04ej+fgpN5hGQ5614nIiOX2eRGsKsWYN1yIjLISdO1qQc1da9C5pR6JcKxvPFMRGbFC2xrQvGwXOtbXIJqVAUytQConA6l+o6AwEDMEMwzzNNa8FBlqCsQiMqIFivNR/rpzUbBwGpIxF/b+eSWaX9hpq048aYcOshMZeVKJJOLdUTQt24m6xzYj2tGL1NhiYEYVUp5Xo4cThjkxDDuBWG0TMtQUiEVkRLNjEgczUHn9RRj71iuRjCZRc+867L1tBXrrO5DQGexERpxISzfqn9yC+kc3oX1HE1JzxiM1fQxSJblIImVPztG/Msyh1/x+vyrEMmwUiEVkZDMfmi7zAZkzYzyKLl6I3IsWINqTRMNTW0woftF+HRs2wVgH2okMMw6vZn4PO7fW2yBcfccqtO9qRjQ3C6nFk5GqKkTS70Ey/a2OE4YZhAOBgL3kxPkiQ03vOhEZFfwFuciZNxnF77gC/slj0bm3Hdt//ixq7l6Dtlf2I9IYQrwr0tdGISJDKhlNIBbqRbiuAw1Pb8O+v76MA49sQje/wJkzDlg4EcnCbCQSCTuRE4adQJyRkWErxaoQy3DQmepEZNTo7e5B84E6NK/bhtblGxB6bCU8iTiCJVnImzsGJRdNRcFZ45A9ucS2WojIIGNV2MSI0JZ6tKzcg/ont6Jzcx16OyOIVRYitWgSUtMqkcwPIpFK2mU5sTWCITgYDCI3Nxd5eXl24nXOY0gWGUoKxCIyakSjUYRCIbTXN6F9+160LVuPno17kahrRgAJ5E4pQY4Jw1kTixEoyYG/KAhfbibcAa+dPAGf+auXvjMZEXgGs1Q8YQ/Acnnd8Gb6zKVHr9MIlYzEbd9+MhpHrKMX0ZZuhBtC6NrViM7tjWjb1ohYZgDJigK4Zo9DcmLJwcqwE4bZEsFqME/XnJ2dfTAI89TNWVlZ9jZViWWoKRCLyKgRj8cRDofR1dVlg3FnezvaV25Bl5nir+xAoqkTrmgMvqAfOVNLTTguRmZVAXw5GfDmZsCfFzR/9ZS0RpKkeU0TPTFEmrrsTkugKMteutRHOiKxLSLWEbZjgfdUtyG0qxkd2+rt2SSTfrPDWZ4PLJoEzB4LVBaY3VTYMJxM9p1hkmGYbRGsAjMMMwQ7YZj/Zkjm7SJDTYFYREYNfqiyStzb24vu7m4bjDvrmxGqb0J3XROiO2uR2N8Id1M7vOaD2xOOwp1M2fYJO3kVskYcfuVuXlf2oLrcLrh8HnspIxOHU0vFzWQuk2bnMhHwIZaTZYJwAVBVaE+6kcoNImV2SpPmteTvrBOGWfVlqwQrwE4YdoIwK8NOq4SqwzIcFIhFZNTgnytWmxiKWSl2QjGrxaGODvTWNCFS24x4UxtSLSGkOnuQ7I4AcRO2YuZDOeYM0abANWKY18TVFYbrQCuQ4UPKBKtUpt+kJ+28jEg+87qwpYWTCb3IzkCqMAeuohzATKnCbKTMrxd/V/vHC1aGGXadVonDwzDnsaeYy2mUCRkOCsQiMuqwdeJIoZjXe3p6bAU5FoshHokiGY4CPKuduXSxTzV9HzJChHptGPY+t8WGqeS5U5EsyQXY7y0jjt1ZyTSvDXde2CJx2Lcu/SPF4WegY+hlFZgB+PAwzLCsVgkZTgrEIjLq8M8WK8UMvf3bJxiGeZ1TJBJB1EzxaAxJHtCTSAL8uld/8kYUV3s3XHua4H3wFaRK85C4ai5SFekqsYw8bGdhBddemukIPfkMws7EIMygy+ovw6/TGnF4GOZyXF5kuCgQi8io5ITi/pVihmMnFPM659tKcTxu+xj5M84kI0RrF1y76uG66yWgIh+p6xYhVVUEKBCPSqwI968MO2GYwdcJw87khGEupzYJGW4KxCIyqvVvn3Cm/oHYCcXOke5OMJYRoiWE5I46pP62DK7KArhvOAdgIA4G0gvIaOEEYWdywrDTN+xUhPlvTmqTkJFEgVhERjX+CXPaJxiM2SrRPxzb1gkzn8GZy3HSn72RI9ncifjWGoT/+DQ8JggH3noBPONK4crKSC8ho0X/yjBbIBh4nUDsVIl56QRhtUnISKJALCKjnhOKWf11gnH/ifOcKrGznIwM8cZ2RDbtQ9utD8E3vhT5774CvonlcGdnppeQ0YLh1gnDTu8ww2//ifOcFglOIiOFArGInFYYdlkNdiYG4P7XFYhHlmh9K7rW7sSBn9yJzEkVqPjw9ciYWgWPAvGo0z8QH37pBGSFYBmpFIhF5LTDP2vHmmTk6D3QhLaXt2DbN3+P7GljMeXTb0f2zAnw5Wall5DRhKG4/3S0eSIjjQKxiIgMm96aRrS8tAkbv/Zr5E4bh+mfeTdyZ02ELy87vYSIyODTdxciIjL4WJ3nWNAnU4M5lZ8VETkOCsQiIjLoEpEoYh1dSMYT6TnHLxE2P9tpfjZx4j8rInI8FIhFRGTQRdtCCG3bh559dYi2h9Jzj41V4UhjK7r31KJrZw0SvZH0LSIiA0uBWEREBl081IOu3QfQtmYbuk24TUZiSCWP3gKR4ugg5mc6Nuwy007ba8yfEREZDArEIiIy6DLKCpE7cwJqH1qG6jufQmj7PiR6wulb/1G0pdOE563Y9dv70bFlL/IXToc3O5i+VURkYCkQi4jIoPNmZSKjtBBIAe3rd2Lfnx+zld9oe1d6iT62TaKpDc3L12H/X59Ab3UjPAG/DdRuvze9lIjIwFIgFhGRQefyeuDNzULu9PGImRC85/cPoOGpl9G1uwbJWBxIpmwLRbyn17ZJ1D64DNV/exK+3CCyxpfDkxmASyd1EJFBor8uIiIyJNx+H4rOn4vcWRMQ7ejC3j89ipq7n0VPTUPfKBSdXQht2WvbJOoffwkun8csPw+5syel70FEZHAoEIuIyJBw+7zImT4eWZOqbDju2V+P1pc2oemZVxBrD6F7Xz3qn1yJ9tXbEGnpsCfnyJ09EcGq0vQ9iIgMDgViEREZEi6PG5kVxcgaX2Ev+e+uXTVoeHoVoq0h9OytQ8OTqxBpbIM3M4DguHJkTaiEvygvfQ8iIoNDgVhERIZU1oQKlF15DgIlBfbf7CFO8Wx0ySRS8TjgcSF7ShXKrlgMf0GOXUZEZDApEIuIyJAKji1F6cULD4Zd57TMPKiOoRhw2epwyYUL4M9TIBaRwadALCIiQyqjrAgFi6YjUJxvD5w7nCfgM6G5DPkLp8GbnZmeKyIyeBSIRURkSLl8Xvjys+0BdsExpWaGK30Lb/Mhe+pY21bhzcqwfcYiIoNNf2lERGRIudwueDIzUHj2TOTMmNAXehmKOT8YQOHiWWb+eDPfc0hYFhEZLArEIiIy5NwBnw2+ubMm2oqxywRfnniDp2cuPGc2cqdPSC8pIjL4FIhFRGTIub0eewa64JgSeDL8tjrMeb7sTGRPqrSnahYRGSquFMe6ERGR0YMjMiSSSIQjSPRGzRRJ3zD61D74Anb+4k50762z7RJ5c6dg5ufei9yZE9NLjE6sgPN005wY9NX6ITKyKRCLiIxwHKc3GTVTxITfcPTgZawjhGhbF6LtofSSo0/n5j1oWroG7Rt2wpcbRMHC6Si99CwERnmF2JcTtMPK+fJz+oJxwG8r4W4z8frBvmkRGREUiEVERjLzJ7r3QBNCO6rRsXGXDY48o1ukpROpRALJeAIpM41WiZ6wCfbdiPf02oPoOLIET9nMUzuPZgy8rAy7zOQvyEVmVSkKFkxD/vypyJk5AYHiPHO7N720iAw3BWIRkREoHupBT3UDOjbtRueWPejadcAE40YTHLtMSI7DHXDZiqMn02cuR2945Mk4WP0O13fYNoNASbYNkzzIbjRLROJIhGNIsqUlYj5mkzxgMMcG4+zJY5E/d7I9oJDDy7l9JhirWiwyrBSIRURGEIbDeHcvunbXoHnZOtTe/5y5fsCEq174cjKQO6Mc2dPKTKgqhi8vCF9+EP780XvyCla4410RdG48AG9uBnKmlcPt99qh2UYzPqdoWw9i7T3o3t2M0PYGdG5rQKytGy5/AAWLZqHimvNQeukiZFYW27YKO8yciAwLBWIRkRGke08tGp99xR5s1rF5NxI9PShaMgGFnBZPgL8gCG92wFaFXV63ndyj+OQV/ATi6ZoT3VFbGWbFmyNOjPZ6aSqR6mtnSSSRDMcRMwE50hRC68q9aF6+Gx0b6+HLzkb+gmmY9KEbkDtrkm2jEJHhoUAsIjLczJ9hhsK2NdvQ9Pxa1D/+EqItzfAX+lGwaBzyF45F3qxKZE0qPi2qp2citoYkemPo3t2Ejg0H0PLyPrSvqUGkNYLi8+aj4JKFyDtnpj2dtS/D7PB4PHC7zc5OehKRwaVALCIyzBK9YUSa27Hndw+g/okVCG3bi5JLpqLiurmoestCeIJ+uH36Ov10wf7i3gPtqP7bKlTftRY91a3IuWA+Cq8/HwUmFAeLC5CRmQmfz2cnr7fvxCUiMngUiEVEhlnHhp3Yf/tjJgy/jFQijKLzJ2DMG+Yhf34V/EVZfRVhBaLThnMgYU91m22h2HXr8+hp7IFvXDmKP3itHYM5u6QQgUAAGRkZ8Pv9CsUig8xzs5G+LiIiQyy0fT8anlmF6r89CU8GULi4ClU3LkL+vCoESnMUhk9DDLZ9Z+UL2AMiWf2PNnYgtKMBCdaosvhGyH51WXffqBvOJCIDT41JIiLDgD3DyUgMzS9uQOPTL6NrVzXy55djzBvno/TSaXb4MTm9uQNeZFYVYNzbz0bJRVPg87vQ9ewatK/ags76ZnR1dqK7uxu9vb2IRqNIJBLQl7oig0OBWERkGPB0yz01jWh4ciVCO/ag+MIptme48OwJ6SXkTOD2uv8/e2cBGNdxrf9vpQWtmFm2ZWa2E4eZkzZJA20KaYqvr5zSawppyu3Lv69NuWnTQMPMZMeQmJlJFjPvrpbhP9/sXmctoxxLFpxfO1n57uyFuXPvfHPmzBkdOi//gkkou2E2EpXwdW+vjIritg64XK5DRHEwGBRRLAj9gAhiQRCE04C3sQ2Nr6+Ea18NrJk2jLp5PjKmFStxNHRjCgsnAV0iLIlIm5iPvLPHIaUsC2jrgmfjPjhbO+B0OI4oisPhcGwHgiCcCkQQC4IgDDDhQBCuygbUPbMYwR6XEsJFKL5uFpKKJQ7tSMWWl4Z01SFiiD0rQvDvqEZPQytcnd0HBbHb7YbX60UgEBBBLAinGBHEgiAIA4yvuQPO3dXo3LQPaZPykHP2OL3YBofPhZGLJcOOwsumIW1MDsLtTvj31MGtRDHFsGEh9vl8IogFoR+Qt68gCMIA4zrQAOe+WgRdHmRML0LmrDK94hyHz4WRiznZiqxZpUgZlYWESBjhmhb4Wzq1ZdgQxfzbEMWcZCcIwqlBBLEgCMJAEoESwzXoqayHJT0J6VOKkDo+L/alMJJh1IlkJYbtJVmwpliBxk4E2rq1ZZhC2EgSdUIQTj0iiAVBEAaUiJ5I52ttQ8b0Yh1ejcsxC4LGZIK9KAPp5TmwdLqA7h5tDaZVmEKYPsT8WyJOCMKpRQSxIAjCQKHESzgYgre5AyGfF+lTi3TILb34hiDEsOWmIrk0CwkeP8Iur6orAS2AKYQpiJkMC7EgCKcGEcSCIAgDRCQU1vGH/V0u9a8wUsfn68l0wvEJqo5EbW0zWls7Y1uGLwy9l8RVCukSQVHs9SEUCBy0FBs+xEe1EKtNXPiFdS3ocuuoJlwuWhCEoyOCWBAEYYAI+wPwdzj0Z4I1EdbsZP0pHJ/29i784Ad/wsMPvxzbMnxJTLKojlISTFyyWYlZeAMIq84UBTCFsJGOZiHWYrjHC8eOA2hftR3elg6Eff7Yt4IgHAmT6l1Kt1EQBGEACHS50FPVgM3fvg8hTzsmfesyZC8YA3sf4w9v316BF19cGvvX0bFYzLj++oswfnxZbMvQpa6uGbfc8l2ceeZM3HvvN2NbhyeO3U1oemMndv/mDbimliF0yQyYCjJhS0mG3W5HRkYGcnJykJubqz/NZnO0s9XerepXI1wqeWqbYc1KQ0p5MTJnTYAlg77qltgRBEHojViIBUEQBogwLXxONyLq02RJhDkt6aRiD1dW1uGhh14+mB588CX88pf/wm9+8+9Dtj/66GtaSApDC06yTLRbYGIYvlAY8AdV5Ylo9wjGH6ZlOEgrsdeHQLcLnsY2OPfWoG3VdtQ9twyVD7yM6kffgKepXXW28kQMC8IJIBZiQRCEAcLX2onuHZXYfvc/lNjpwdQfXa2Xa2akib7Q2elATU1T7F9qvz4/vvvd3yMtLQU//emXYluVsEpIwOjRRUhPT4ltGbqMJAux60AbWhbvxo57XoZrfDFCF05DpDQblmQ7kpKS1H1OQ1ZqOtIjZlhqO9C1dic6N++Ft6FNdbh6kJSXhTGfvBJ5581F+pQxSEyySoxrQTgOIogFQRAGCF8LBfEBbP/J/TAlKEH8w5MTxL3xev24+ebvICsrHQ8+eI/eRiui2+3FW2+tViLKhgsvXACr1YLExKhFOhyOYMeO/Vi+fCMuvfRMdHU5sXTpesyaNUlbISsr6xEIBJGRkYpRowoxY8YE5ORkKpH9vrDi93v2VKGiok4LVv6b4ru0tEDtZyJyczPV8Y7tI80myOcLYPfuShw4UI+GhhZ9bsXFuZg4cQzGji1Faqr9oCAeP34UvvrVj2Lv3mq0tXXB7w/oc5w4cTSmTRun/k7RLgTGvuvrW1TeGlRXN8DpdGurK/c9ZUo5JkwYrfImRi2xsfw8zr59Naii64HLra+3uDgvln+Uvh7m57Gfe26Jut5UlJTkYf/+WrX/Hv09r5/5x40r1Z2SvqIF8RIliH8SJ4hLlCA2JcDqDsLu8MHm9MHa7UVCRw9c6vp6Khv0JLqs2RNQcPEClN10MVLGlmjrsCAIxyfxbkXsb0EQBKEf4UQnWolblm1UoiqAvPMn6mgCZi7C8AFgBIannnoLdrsN119/4cFtDkcP/vjHx7W4pUClMKZfMYWf1+vD22+vwf/9338wd+5UbNu2X09ao0CsVOLqnXfWYdOm3VrsckJbUVGeFp5JtDYqaJVmxAfuY8mStVpYb96852D+goIcZGam6XM6FhTzTU1tePPNVVi8eA3efXcztm7dpwUnxTst3LR881qefvpteJTos1rN+vxWrtyCDRt2anHMSWbZ2RmqU5ABm82qRT0FMK/h9ddXYpkq83XrdmD79v1KdLfqPBS6vB6K2Gj+HqxfvyuWf4P6e6fqNFTo/Cy7oqJc/cnzqq5uxLe//TstthkCbcmSdVi7drvO39TUipQUuy4zdkL6Kor9nUrkVrShddk++NOTESnIACV7QpsTCQdUh2HdPrhXbIdr5Q64Kxvha27Xbji2nAyUXHcuym68CKkU41YrIoGQpEGfgtoHnB2aiHpu9WRKdtLEqj+giIVYEARhgBhICzFf7RSPf/7zk1pwTpkyVluCae0NhcJKyFUpMbtWC9Ef/OCz2LJlH77ylV/hjDNm4MIL5+OiixbqfWzduhdLl25Qonkyzj13Ls4/f57eP0XoihWbsGbNNi1+L7hgvhKZFuzaVYnVq7eirKwQ55wzB5dccobOfzQ4QZDiluKT53beeXOVaLegqqoeNTWN+OQnr8WYMcUHLcTd3S59LOajoKUlfOXKrVqgUux//esfw7hxZXC5PEqkb8CqVVv1fq644iyVP193BGg1J5Mnj8F1112A/PxsLYYpmlet2qKt1FdccTYKC3Phdnt0fopmWn2vvfZ85OVl6eu85Zbv6LI8++zZuPLKs3X5U8i//PJy5ChxunDhDFx22SK1PU0f70Rx7mlG01s7seuXr8OtBHikOBsmpwcmt1/HJja5lXBSnxF/UAsnk9LbSYU5KL76HGQvnKbFsHaTkPjWQwKK4JDqYPrbHdqinzF9LKyZqUhQnTZh4BBBLAiCMEAMpCAmtBK/++5GLRh37jyAb37z45g9e7IWka+99p4WdRTNH/vYlUrcbtSC+OMfv1qJxPOV4IwK3127DmjBum9frRJ40/GFL9yot9MiyhBoY8YUYf78aVoUUpDS7YGikkKU+f/rv27S+Y8Gz+M//3kV5eUlWoyfffYsLT7p6kARPH/+VH1dhiCm5ZUiedGimUqIZ2vRTqvsc8+9o4T4Ntx333cwc+ZEbb3+4x+f0G4PEyeO0gK/UIlGWrZZHjxHitfvfe8O7drQ1NSuren8nu4XF120QAtllg/z8jfd3U6dnwLdEMS0At9886VK+J+pz5P+3RTQtETTMvzNb34CpaX5sas9Mdre24+65zaj+qHV8PpDSu0qYdTjhSmg/mY8YSY23bHmmwu7WDLTdDSJJHXOiaqMhCFEOKwn3AZVpyd1fCmKr1qEjJkTYMvNjGUQBgIRxIIgCAPEQAtivt7b27t1iLb77nsMP//5V7SFl4Lzz39+QrsUUITOmzdF5VmmxNv/4ve//w6uuuocLQYJLbIVFbX42c/u1xbSn//8y3r7Y4+9jl//+gF85jMfVr+fqv2FCQVkY2Mrfve7/2DBgmnqd/+ttx+Nf//7RS1Ev//9z+Kcc2YfPG5vDEFM14+f/ezLSE9P1r7CvEa/P6iv7x//eFaJ619oEU1B/ZWv/FqL5o985BK9X7pJ0KJLazDdL+hy8de//gDTp49DVVUDvvrVX2sr9Q03XKzz092BnQeHw40nn3xTu2cwPy3LhiCmtfrOOz+p3SmYnz7NvP77738Oa9fuwJ/+9D99DnvX+Op21Dy+Dg0vb0XA5Y9aeoPhQ0TwIZhMSLAkwpKWggSbBSZ1f4WhA+NGh1UdDjhcyJo9EWM/cy0KLjsTKaOLYjmEgUAEsSAIwgAx0IKY0EpM39y//vVpXH75WTjrrFlKoJXie9+7D6mpyfj612/TvsGPPPKKEnb3KoH6U5Vv0UHfX4rN5uY2fPGLP9eTyv7v/76ttz/wwAsq//9DdnY6kpOTYuKUxq6wFoXNzR345CevUfm/pfMfDZ7Xvfc+hL/85S7tYmH4KPfGEMS0Ov/2t9/Qfrzxk+H+3/97WInPJ/HEE7/WQpxROG6//UfYt69aXV8aLEowmkwJOi/LhJZc+jhTQFNk0/eZ+SmMWR60dnP/8fkp+pmfk/cMQXz11efhrrs+q8rApi3CvH6326fO8UG88cZKdT9+ikmTRuvzPFG6ttSh8bXt2Pf7JfBQB6fZYWpzwOQNRMOwMRmoIkgwJ+rwakVXnaXdJayqHghDh4CjB25Vv+tfWI7kknxM+uZHtesL3WCEgUMEsSAIwgBxOgQx2bmzQk8Uo4sA3QPOP3++9i3mcP83vnGbFpf/+hcF7r34299+qP1tKQoJI1VwyeTvfOd32pWAYpQwzvGPfvRnLbAZVYGiONqavN+kULxeffW5sX8dGVpSObHvN7/5una7MI7bG0MQHy3s2r33PqwtzRTEPC7P+fOf/6l2gZg9e5I+P1rGo0TPkZPwbr75Mm3d5cRD5meECwrklJQkJXCZ//3ryc3N0vlpdTYE8WWXnaU6F5/W4poTEqPi2akt1suWrVfX92PdkegLzv0taH5rF3b9/DX0ZKchPKlEqV4gkT7EnW4kNHQi0uFE2OXV+ekywUU4sudOQuFlZyJn0QxVpzJhUucjDH58bd1w7KrC3t8/ru/j1P/5FDJmTND3UBg4RBALgiAMEKdLENO6SbeHv/3tGW3FpODlZLYJE8pw661X6Dz//Ofz+PrXf4u77/6iFrHGMD8n5DECxUMPvYTp08drayihzy4F6O23X6dE8Uw9iY6Ck00KLcT03aULAYXisXjiiTfw978/g9tuu0rtZ7YW7LTMcvIbU9S6a+6zIG5sbFPn+kctdukyQR9lWsQZRi0QYEg6jz5PimLunwKa+ekTTZcJ5qe/Ms+FSyazY0BrOS3izG8IYrqLfOlLN2srcHKyXe939+4qXT4s81//+mt6X33hqGHXfCFYmrph3tUAU00b0OZQlSqIoCrrsCqrBLMZpR+5CKNuuURbGDkxyxQLQScMXrzNHejauh877v4HzKl2TPvBHUifWg5rTt9WsBQ+GH0PkCgIgiAMKRi2bOzYMvWZrOPxPvvsEi0EGYc3HsYRfuutVVi6dB06Orp12rRpjw7pxhjE8ZZOThTjxLaVKzdr6zNDk1EE02eZE/joUsGQbMejpCQfjH3McGucvNfS0qGO68C6dTu1n3Jzc3ssZ9+gywf9oylkOfmPE+94PT09tHg34tVX39U+x3TtILQg83roL0z3EV4DOxI9PR7tfsHIEf/853Noa+vU+Q22bNmLZ55ZrMq1Se+fnyzfri4H5s6dovd7yki3I2FSCezXn4W8b9yI0Xd9EqM/cSWy5kzSE+nC6v41vbEa+/70DDo37IZP3QtBEE4MEcSCIAjDHA7lc3GLadPGa2HLhSc47M8JZL2x25P0ohR0ZfjLX57S/seciEa/XC7OYcDfMqQaQ5kxP0XnH/7wmLb2UmzSas19HQ9GbOB+GKaMIpTH/dvfnlYCeZO25J7sGCYFMQUu/X15/hTttJD//vf/waOPvq4X0uCiGsZCJXSRoPvHtGljdceA0S/o3/z73z+Kxx9/XUfP4KIjUTeK9zEm0nGRDp73o4++qifVlZfTNWWetkqfMtR9NNGVIz8DtrFFSJs3EUXXnoNxn/0QJn39Voy5/WqkTx0LX1sXap9ajNYVW+BtYoziUGwHgiAcDRHEgiAIAwXngMUmgsW5pn5guEtabOkecDToKsHoCBy+58QvRlEwIkMYGLF2ufgErbVvvbVGW34pEiku4y3E/P2ZZ87QLgwUkwxL9uqrK/QiHRSbdH2gS8bxoKCm7zAFN90TuFoeLcstLe3abcOY3MdJe6NGFanjZul/94auDFzVjudOGFFixozx+vymKpHIyXIU9y+9tFzHPKbbA49pCFb+bubMCfqaJk8uVwK4Tp3HarzySjQ/98f8dKOIh+XOcmGYNcZ15sIejMu8YMFUHe3ipC3Ex6kfJnX+FnXN2QunYvTHr8CkOz+OiV+9BWUfuQhpE0dpn9Turfvgrm5ESHVOIgzVJgjCUREfYkEQhAGCljvHzips//HflN5xYeoPrkbm9GLY8vu2cENv+BrnsD6tnZzgdiSMaBN0gaAF83Ofu0H7BBvQh5iT6v75z7u1KKT7AyeYcVU4+sbSP5kLbxiRHQi/Zz6GMaNrAY9B4U2rKSfHUTweLWpEPLTgMrwb98OwbVSDtC5zHxSstHDTastrpMA8kvDnhEEmrmwXvzoe98fwci5Xj7bk8pwphmkxpysJj2NYiQldLHhNTIfmT9b5jWgShg/xlVeeo8rtE/rceY6MZMFzzMyMnnt8eZ0o9CFufnsXdt7zClwTS2I+xFmwqPuQlJSk9puKnJwc1aHJVWVRpM7PEg3d5QsgqK7Vr8oy0OmElyvYqfPPmjtJx7RNjCsXYfAgPsSDA7EQC4IgDBAMj2VJVyKJIcoCYSVevAgzvuwHhKKLQvBoYpiCk0KPk+P4yUUquNpab7gfugXQr3fSpDHaWsxV3yhAKWx7iztOUDPyMwIFLbG0Qo8dW6JdIE5EDBMKUlp4eQ38PS20/NuI3EAoSml1PpoVnNZu/jZeDBP+m1ZlWo+5X54jLbqMsEHBGi+GCcUsrd+H58/VIppiOJ7o/rN1OTE/J9eVlRVo8XwyYpgwJm3IG9AdHZgTELGqMjjOvrjcLwWvTV0rQ69lzByPjBnj9UIPFFmmXtcpCMKhyBMiCIIwQJisFr2iWILVrCdABTrd+rO/oGsEoycw7Nq2bfu0VZMii+4PtPgKg5Owl5EjfOqPCCLsENgsxxXE8TAMG5duThlThIxpY3Vc4gRV9wRBODoiiAVBEAYIihJrdlSchH0h+Np79Gd/wTBhXE3uttvuwpe//GttsTWWQqbFVRic0DocdPq0GwRoHU7qmyAWBKHviCAWBEEYIDhszWFtK2PzmhLg2teMYGxxhf6A7gC0Bl9//UW44YaL9JLMnDhGMdx7OJ+LV3znO7f3OWbuSIUuGl/4wkd0JIlTjb/TDU9jN8JcSIRuJ1bVeRE9LAj9ikyqEwRBGEjUK3frXX9By5I1SiAHMf2ea5B3wSQ9zC0IjC5R9dBqHFCps7IdvgumIXjBVN2B4eS5o02qE4YuMqlucCAWYkEQhAHFpMNiJRXmoXtnAzyNDoR6GFlBGPEoMcyoEJ7GLjir2hHOzwQyU2JfCoLQn4ggFgRBGGDSJ49B6rgyPXGqe2sdHLsaY98IIxn6Djv3NqNHieGAJwCUZIsgFoQBQgSxIAjCQGKCEsMlShSPhjUrDV1b69GxtioaZissHmwjmYDTi/bVB7QgDnPS46hcIOtwQWz4f59sWDdBEA5HBLEgCMIAwzBYaZPHoPCShfDUu9C28gDc1R0I9fhjOYSRBjtDjDpS/8p2dNV0AYWZiChBHEl/f2U8CmDGQeaKgkYSUSwIpwYRxIIgCAOMyZyI1PJilN5wIWx5uXDubUXVw6vh2NukLcXCyIOuEs1LdsOxowEBRpaYVoZImhLDsQU1DDFsCGIuZc1PQRBODSKIBUEQTgNJBdkouHQhsuZMQjiYgOpH16LtvQq4azsRDoSiq5QJw55IKAx/lwftqyvR8Op2eLs9CJfkAFNLEbGZOc9OQ0HMZFiGDUEsFmJBODWIIBYEQTgN0ErMEEtlN12M4qvOQaDLi9rH16P2ifXwd/Qg7O+/BTuEwUPA4UXLsr1oemMHOrfWIzSuCJhcgkhBJsIJpoMdI1qGKYIZYs1qtepPsRALwqlDBLEgCMLpgBY/JWjSJo1G1rmzkHHZQvg8ETS+uQv7/rgUbSv2wdvYHcssDDfoM+zY3YT6F7eojtA6dOxtQSA7HZG5Y7XvcNicgHCcGKb4NcSwzWY7KIjFQiwIpwYRxIIgCKcRRppImzkeebdcBOu4Mjjrnai4/z0llLaifU0leqrbtcU45BPf4uEAfcR9bS64KlrRvHg3qp/YgMZl+9HD2ztzNCLTyxDOTUMoFEKYSzcrDDFMIcyFOZgojGkxFgTh1JB4tyL2tyAIgnAaCJtUSrECBRmIJFngrW6Ca1cTujdVw7m7WX0ZgSXFBmuOxKQdytAq7NrfipZ3dmP/31ag8dXtcNV0IjS2CDhrEiLzxiKcbFO3O3xQDFP0UvwmJycjJSVFr1LHT/6bApnfi5V4aBPs8ejV6lqXbkSC1YL88+bAlpeFxOSkWA5hIJClmwVBEE4zPp8PTqcTXc2t6NpTha41O+HeXolwUzssfh/SynOQOjoHyaOykFSYAVtuKixZyUiwmZFosyDRPnSX7uWkMk4i5CIlJnMCzEr4mxIThvxS1mFfUFuDQ+oz0OWGr9UFT2M3eirb4FKpu6oD/iQlfouzgSmliIzOQzgnFWFahlWzzKaZrhIUvRS/FMLp6ek6paWl6X/TUix+xEMfWbp5cCCCWBAE4TQTDAbh8XjgcrngUsK4u7MLXWuVKN6wF/5NFQi3O2AKBGFJMiN9XB5SRmUjqShDiUcrzGlJsMTFqh1qRIIhhDxRN4IEq1lbwROsiUoQD22PvmCPD0GHV39yeW5XTQcc+1sRcPsRUdeJwixgelk0vFphJsKqE0CrMF0lCMUw3SQMMUwRbCT+2263a8uxMPQRQTw4EEEsCIJwmqEICgQCcLvdOlEUO1rb4Wxph6u5Hf49dQhVt8DU2AFLdw8S3D6YlJDUVlQlnGhRHbKwCVIpHAzroX9aibmaX+w/QxclbiOhCCLqU4vdJCtC2enR5ZhLcxEZHV10I2KzqO9N2ipsuEkYYpjWYUMM0zLMv+kuYYhh8SEeHoggHhyIIBYEQTjN8DVMUez3+7WlWItilwtOhwPObgc89a3wqUYz0NqFSJcLEacH4R6KYiWgAkGVlDiO7WvI4Q/CpK7HVNMG2K2IKMEYSbYdXJBiyGJJRITLL1vUdXChjRR1TZkpQFZqNGUmI6Kukfc+vhmmGKbYpTsEhW+8VZhimNsplOkqwbzC0EcE8eBABLEgCMIgga4TFMVerxc9PT1RUex06r8pkimWaUkO+fwIef2ALwCTJwB4/IziphiCstihxHB9O8xLdyJCH9pFkxDOTwdsQ9cvmnBRDQp88NNqRsR8bF9filsjmgRFrzGJLl4Mx1uGZSLd8EEE8eBABLEgCMIgga9jw32C4tcQxRTD/JuJE/D8ShAHVR5OwOKkND08r3egdzOkMHX1wFTZAvOL6xEpyEDospmIFGcjQqvqUEa7s6hE3UrxegQBq11EYokit7cYjk8ihocvIogHByKIBUEQBhGGKI53nzA+KYj5txbF6nvmo98p05B9lXe4gP1NSHhmNSJFmYhcPRfg0sV0mxjGGELYsAxT7BpxhimAKYqNZIhhcZMYnoggHhyIIBYEQRiExLtPUADHi2NDFGv3iaEuipUgDu9tQPiJd2EqyUbidQv0pLPhLIgNIWyk+EU3KH4NEcx/M4lleHgjgnhwIIJYEARhEMJXs+E+wWSIYn4aIpmCmcKZ+ZiG4us83OZAcHcdPA8vRqISwkk3no3E0fkwpQzfRQniLcMUuoZ12BDFRqJQZhIxPLwRQTw4EEEsCIIwSDFEMa2/FL6GCKZANj653RDFQ/F1Hmzpgnd7FTr+/jKsowqQ+fGLYR1bhAQlDIYrhiCm0GWi6KUoNj4pjPl3vBVZGL6IIB4ciCAWBEEYAhii2BC/xqfxt+E2MdTwN3XAtXkf6n73FOxji1H0+Wtgn1CGxGEuiGkdNhJF8ZE+hZGBCOLBgQhiQRCEIQJf10Yy/m18Gn8PNRhjuXPtTuz62b+QNmEUJnzjVqRNGQNzekosx/DEcIHg59H+FkYGIogHByKIBUEQhNOGp64F7Wt2YPtP/oH0iaMw6c7btBiwZKTGcgjC8EYE8eBAHJMEQRAEQRCEEY0IYkEQBEEQBGFEI4JYEARBEAThdGJ4rw7h+QBDHRHEgiAIgiAIp4lwIIigy4NwMKRTsCf6tzCwiCAWBEEQBEE4TQQcPXDsqVai2I2gww3XvjqElCgWBhYRxIIgCIIgCKcJf2sXOlbvgL/TqZIDXVv2ItDdE/tWGChEEAuCIAiCIJwGIsEQvC0d6Ny0G4GuqCDu3rofvo5u/Z0wcIggFgRBEARBGGgiUXcJX2snvM3tCPv8CDjdcFbUwdvYpl0ohIFDBLEgCIIgCMIAE4mE9YIc3dsqEPYHEQlHEOFy7G4vHLuq4FLCWBg4RBALgiAIgiAMMBTAnet3oXPz3tiW2PLdiQno2qaE8s5KbUUWBgYRxIIgCIIgCAMJ4w0HQ+jeUQHn7urYRiXKrBZYUu3aQty9o1JbkZlX6H9EEAuCIAiCIAwg/u4eOHZWwl3fikCcr3AkHNZxiX0tneipbIBzb62OSyz0PyKIBUEQBEEQBhBfSwdaV2yBt7lDW4rpKkEioTCCbr/2I/Y0tKJj7U4djk3of0QQC4IgCIIgDCDu2mbUP78U3oY2mBISYLKY9ScFcTgQQILNgkCHAy3vrIOvrSv2K6E/EUEsCIIgCIIwQNAFgkLYsasyGlqN/sRKCEdivsKcbMelmxmfuGP9bnjqW7XFWOhfRBALgiAIgiAMBEr0Ugy7qhq04A37Ato6bE6zI8GciAT9d7LO5+9w6tBr9CVmrGKhfxFBLAiCIAiCMADQCty+dgc6N+xW/4j+25abgeyF02DJStMpc8Z4mFOT9QQ7+hd3bdmH7l1VsT0I/YUIYkEQBEEQhP6GAjgY1gtxMMIETCakTxmDvPPmoOCi+bDlZSG5JA9FVy5CzpnTkTy6ULtSUBAzP10phP5DBLEgCIIgCEI/w8ly/i4nnPtq4W3pRFJBthbDhZedgay5k2HNSNWiOPfsWXpbzhlRq3FPdROce6oR6HbpkGxC/yCCWBAEQRAEoZ+hT3Dnpj3ad9iWm4niq8/GqI9ehrxz58RyROFKdcXXnIMxn7gK+RfO1REnemqa0bV5rxLFPbFcwqlGBLEgCIIgCEI/QyHctnwTbDkZKLxsIUZ97HJkTB0bnUQXB2MSWzPTkDVnEsZ88moUXLIA5pQktKrf+tslBFt/IYJYEARBEAShH+HkOH9HN5x7a5Axbay2AEf9hjNjOQ7HXpKH4ivPQsl15yF1XGnUbaLLpfclnHpEEAuCIAiCIPQjAUePFrL2knwUXXXWYW4SR8OUmIiCixeg8LIzkVSYg5A/EI1dLJxyRBALgiAIgiD0IwyhllSUi5LrzkXaxNGHuUkcFRNgSU9BxtQxKL72XG1R5r6EU48IYkEQBEEQhH7EZE5Ecmk+8o/jJnE0KKbzL5iLpIIcbTUWTj0iiAVBEARBEPoRS1qKXmzjA2EyaWvxB96PcEREEAuCIAiCIPQjDKXG9EE5VfsRDkdKVRAEQRAEQRjRiCAWBEEQBEEQRjQiiAVBEARBEIQRjQhiQRAEod9hqKhwIKj+iMS2nDj6t8GT+60gCMKJIIJYEARB6HfCvgAC3S4lbPu+ylbY6z/p3wqCIJwIIogFQRCEfsff3g3HjgNw7a+FT/19IkRCIXgaWvVyt87dNQi5vbFvBEEQTi0iiAVBEIR+J+Tzw9vcgY61O7UwDro8SvAefcWtsD+gRLQDHet2oXt7BQJdTr30rSAIQn8gglgQBEHod5IKspE+ZQwaXnkPtU8t1lbfY1l8/R0OdG7cjQP/fAGOXVXInDvpxJe7FQRB6CMiiAVBEIR+JzHJBmtOpl5py7mnGgf+8Tw61u86zH0i6ibRhuYl61H54CsIdLlgyUyFLTsdJrM5lksQBOHUIoJYEARB6HdM5kSY0+xInzpGu0/UPLUYTW+shmNnJUIeHyLhiJ40x8lzHet2ovHld9H4+irY8jKRUl6MBJsVpgRTbG+CIAinFhHEgiAIwoCQaLUiZ9FMJYrLEXC4UPXI66h7bincdc06kkTQ0aPdIw7880U0vb0WCRazyj8DGVPHxvYgCILQP4ggFgRBEAYEWonTxpcipbwE5uQk+Nu70Llht7YU+zu64TpQj8ZXVypRXIlgjxeWrDSkTx4De3FebA+CIAj9gymiiP0tCIIgCP1OzRNvY+cv/w13ZQNCHi9MCQnRRTtMJiRYErXrhC03E5lzJmHWr76MzJnjY78UhjRKbtA1htFCeI+54IoA+Fo6dSSVXb98EOaUJEz+zieQNnk0rNkZsRwjG1NiAhJUZ5odapN6R/A90R+IIBYEQRAGlPY1O1D79BLU012iphFhhl9TQgls6xJMqgFMRPbCaSj98AUou/liJJcVxH4pDGUohOkv7u926SgiElc6CsvCtb8OB+5/AYnJNpR/+hqkjCmGJSM1lmNkY061w5qVrkeMEjmXQAnk/kAEsSAIgjCgcLENxhfe+bN/oWvLXoQDcfGFtZXYjLIbL8SEr96qJ+ExMoUwtAj7/PC1O+CubVadnib0VDci0OnU8adDXp8WxmF/MJZ7ZBOKrcRIKzGtoBlTy2FWYjjRaonlGNkkqHJgR4GRaszpybDlZKoOQ5GebJtclg9LWooutw+KCGJBEARhQOGiG+7aFmz62r1oXb4JAac79g0txAk6zNq4z34IU39wh24IaTEWBj90gaDIpT84Q+e59tage0clHLsr4aqoQdDJ5beD0SFwi7qnEjUkClVYhGWnOoYxtyHtFiDFo+ECPpFgNDHajDUzA2kTxyBjxjhkTB+H1LElSCrMhiUjLRqJ5iRdKkQQC4IgCAOLanZ8HQ7s+sW/0fjaSiWYqvU2QitQ5qzxKL/9Goz9/Ie1QBaGBrT6epvb0fDyu2h+ay06N+/T1mBzigUpY7KRUp4De3GG6vAkw5qVrDo71tgvRzYUeiFfAP5WlxZ01rxUJFjN/eYaMNQIunzwd7oR6HLDXdOJnoo29KjPSDACa04G8s+fi6KrzkL+BXORaE866XITQSwIgiAMOIwi0fjKu6h5cjHqX1iuF+SgZcealYYxt12Bkusv0A2cMDTgyoOdm/agdcVmOHdXItDdBVueHakT8pUQztVC2JaTAnO6XYkWi+r4WLToE2gcjlo/Qz0+/QwkpnBUJCFq7RT0qEPIE9CJotjb4oSnrhPOPc1wKXEc8iYgZXQxshdMReFlZ+goNpaMvrtZiSAWBEEQBhxGleipatSr0e393WM6DjGUCGCItRk//QIKLpoPe4mEWxvUKPmgrcItnWh6aw2a316D9lVbVKfGjvRpRSi4eDKyF5YjdVyeFsDiAiCcChipJOj0omtLHVqX7UXLsn1w13apOpaMMR+/CtnnzkLq5NEw221IMJtVH8N0SDoaiXcrYn8LgiAIwoBA65clLRmufapRW75J+5YmJCZqX8Axn7gS6apBE3eJwQ0tmz1VDapT8zLqnl0K555KZEwvQvnti1D+qUXInj8aSQXpSLSZteVTEE4FFLUcXUgqSEPGtGJkzCjVfsZdW2rQsXEPerocCKQlIWRLRDiu2unfHeOdIhZiQRAE4YjoSVI+v3ZvYGLYrFMNl2c+8I8X4Kqo0zFYM2dNxMSv3YK0SaNjOU4dCUkWmJPtKtlgsphFcH9AOtbtQPPba1H3/HIlUELqnuWh6Ipp6h6WInlUlo4WIlZhoT+hEA44otbilnf2oOHV7Qgl2GCfPg4515+LtImjkJKVAavVCpvNpj8pio9kKRZBLAiCIOiGhdEfGPEh6OyJhsfy+NSnW8eNDXS5tC/fqYa+p+2rt+vV6RhvlLPGc8+epRfmONVQcDO2K8O48W9OwOExzWnJ6t92JNgsIpJPgDAngHU5UPXQq2h8ZQV6ahpQeMVUFF87E/kXTIy6RwjCAEL/YndNByr+viLqQtHhRdZtFyPjrBlInzgadtURttvtSEpKOqooFkEsCIIgKBHshqepHR3rdurUuXGPjhhAyzA46YeLZ/RDaxEOcLKMX4txhuFKVKKUkSb6JdSa2j8Fr3bXyEyDvSQfWfMmIXvOJGTMHI/kUQX62MKxYRzppjdXo/rRN+GurkHhZVNQcv1s7S9sTqavsJiFhQGG/uzeIHqq23HgX++h8qG1SCjKQfq1i5D1obORkpaKlNRUJCcna2Fssaj3TK93jAhiQRCEEQojO4TcPh0doHPTXr1Ihqe+VYljJyJhP8xpVphTrEhUyZxshYnxUU8x2jLtDcBd16WjDyQVputlWvsjRi2PE3T71TX7EXRRiDOyhQXWrAwkK3GcPq0cWUocp08bC2tG6ikJ9j/c4AhC54Zd2PO7x+BrbkbKmHSUf/YcZEwv1v7CgnC64GS7kHrGWxbvRu3TG9H83gEkzBiH1GvOQNqUMUjLzUZqTBQfyVIsglgQBGGkod76Ia4k1twB574aNL62Ch3rtsNVWavjwyaXZiGN4bLG5WmRw1BZ1kw7EqynXiCGY+GmnLubkJhq0xEJdAzWfhDEwR6uCOZBwOFRwr8bPZVtcO1rhreZywgHYcvPQ+5ZHPafh7TJY5Q4z9ET/4T3ceyq0rGjd/36QWTPK0Xp9bNR9tGFuuMkCIMBd20n2lcdwK5fvY4ekxnmBZOQdvl8pI0qQlpa2lFFsQhiQRCEEQYny7lrmnUc4Ip/PK/DZiUVpCB30RgUXDYN6ZMLtTA2KQGcwCD3bDASKVD7YyhcNUHhSHSVLiWCo6t0cXs/HEs1dzrmqzoe476GfUEtjjkhp23FfjQv2YNAlw+2vGwdB7noykXIWTgt9mOBVD30CmqeeBOd63dh4tcvxOhPnKmt+rKIhDBY4OTfnqoO7Pjpy2jdVAefLQm2Oy5F6qTRSMtIP0QUx7tPSNg1QRCEEUTA0YOeykbUPrVYx431NjYj7/xxKL56OgovmYLMGSWwF2XAkmHXk6MSbGZtGaYbQ4I5oR+S2q8SwTwWw3Px7347FvdtNevj0D2DVk1eJ8U/F45ILc9BQpIZvnYn3NUt6GnugNvpQsCWCD/CCIZCCFNQx+xI2qo0QvxlOZGOHaf655epDsQuZMwsRuHl05A5s0SVrdGJEYTTj54Yq57LkFvV2YYuuA60IVycBaQmwcTYxDGLMEUw/9ZiWASxIAhCHzAG1IaoCNKLYRyoR8uS9ah/bjG8zc3InFWCUbctRCEtw1OLYE5TjYYSjyMCCtrEBFjS7Uguy9bXb81M1svouvbWwaE6Do66FgRTrQgq0RdS5UIxbAjig0OtQ7Q+9AX6Djt3VaLx1ZXwtbRg1K3zD8YZFjEsDDoSTHreQ8+BVnRurEVIPeMR9WwjO/UQMWw2mw8mEcSCIAgnCAUlh9z7JQJCf6NEnK+9G81vrMGe3/0HYb8H+RdOwqQ7L9XB7bWLRD/47Q4VtLBVopeW4vQphTDZzPA1dMGxqRK+DgdCdgsSirMPimHCBtVIwx1fS6eOOUxXicQUE8Z/8Xwkj8nWFndBGGwkJJpgzUiGc08T2tdXI6Q6vuGcNIQLMw52Yg9ahlWiIDZt+ubv3n+6BUEQhKPCiAj2olzkLJquRFM5bHlZsW8GOUrEhbx+1D79NhpeXI7WFRtRdvM8FF01A3nnjtduEeID+j6cqe7a34KmN3ah8Y2dcNR2wzJnAtIunacjUSRnZ2r/w6PNVh+OdG+vwK5f/huuA9VIm5iFmb+6XtX/NKk3wqCm+pE12PeXZeju8iKwaBJMl87WfsP0Ic7IyEBmZibS06N+xaY3z7xEBLEgCMIJ4NrvgS2zAMXXnY3ia85D5uxJsGalxb4dvAR7PDp27M6f3q/9Py2ZNkz+7uXIPWc8LGlJsVxCb7q31aPpzZ2oemg1vIlWJM4ah4xrzkTq6CKkpB99tvqwQ3Wo2tdsx4Yv/QbmdBPyL5yIiV+/SLuaCMJgpumNHVoUN62ogHvBeISvmw+bel4Zk5giOCsrS4tiimOTo/LrIogFQRBOgM1f24vmN7thzUnGqJsuR/G15ylxMH/Q+xS79teiefEaVPztBSWGTSi/42zknTcB9pLMEe0mcTwYhYKB/vf98R20qAa1pycE+6cvQcrMcUgtzNWWpZSUlMNmqw836CrUunwz1nzqbmTOKULpjXNQ9pF5EmpNGPS0r6lE3XObUfPoWjhnjEbwQwtgSbUjWT237NBSEGdnZ+tPUyDwXRHEgiAIJ8DaT+xE5zoHCq/Kga8xUwnKySi9/mKkTx287hP0eW55Z70SdY/DXd2AnEWjMenOS/RkqMRkETTHI+j0on11JaoeXo26t3bDtGgKks6ZhuS5E7SF6VhxTYcLjEzCiZjrPv9L5F80DqM+ugCFl07VkTqGI4888gpCoTA++clrhqfFfwTRtbUOja9uR8VflsMxsRjBa+chMTMVSSnJujNL6zAFcU5ODsT5RxAEoQ/Yy5Iw6rZCWHM74dizBQ0vLUPHlr1wNbfD5/MhEAggGAweEp7rtKGOH+h2wVVRh441O2ArUA3A7FKklOeKGD5BElNsqhMxFlnzRiMpJxnhXTXw7K1FT0cXXE4nXC4Xenp64PF49P3nvR9uhNxeHWWCS3hz5r52sznJkYVuVR/XrduBVau2YvVqpm3631vUM7R3bzVaWzvh9fpZdQ+hQtXhXbsqtVDtb1555V289NLy0//8DhGamtqxfv1OOFTHabCRYLNEI+cwjnowBBPrlqpDoVBIP6vG+5r/FkEsCILQByxpiUibnIxRHy9E1vwwap58HXsfexUH3l6JlpYWdHV1we1265fs6W5QaR127qmCY2elXoAie8FoJexGxb4VTgS6lLDzkDmrFEUXToLF5UaougXe+ja4HS59r5m8Xi/8fv+guO+nmpBHCX113bwuloWZ8VxP0nC6des+3HHH3bjllu+o9F189KPf0//+5jfvxb33PoRly9ajWXUuI5FDhe9f/vIUfvnLf6ly9sW2CIOF119/D1/4wk+xe3dlbMvgIdFqVvXVpid/moKqTnlVhzVmrKDRwhDGIogFQRD6CgWSLQGpE+zIuyAdJTemIdxagbY3VqH5nfXoqmnQFkMKJFof+KI9XXBFNldFLTz1TUhMsSJtUgFSRuXEvhVOFIpiLimde9Y4WJQgjLQ5EKxsgrfbqe+1kQwrMe87G9vhAi1qXP2LiwqyLKJxqk9OEbPT0NDQikWLZuEb3/g4vvrVj+ITn7ga558/F6mpKXhHPUOPP/46KivrVZl6Yr8CLr98EW644SJYrcPTTWMoM3v2JHzxizehpCQ/tmUQwfpqREJhR1UliuF4QWykxB/96ByJQywIgnAC1D/XqoRBBKUfyYc5JRHWLLMSmElw7+9Az4FOuFt6YEq165SQZNX+h/FxagfaHzESDKLh5eVw7NiHRIsJZTfP1zF2hb6TaLdqDdi8dC98Di/CShSGyrKBuPtsxDPVQf7V38Z9H+owfrVzXy1al27UC7lkzilD0kmGXKPQfeqpt/H5z9+IL33pZixYMB3Tpo1DcbF6psyJ2LZtn8rTiOzsDOTkZCAjIxrFhQImKysdublZqlxN2qrndLpRX9+C6uoG1NQ0orm5Aw6HS+se7ouJ7NtXg7q6Zr0PftbUNOnfcYifoig5mRbv95/NZ55ZrLffdNOlejvdNHw+P5qa2lBb26yO16h/39ISPZ5xrLDqgNK1o7OzG+npKfq3xn557I4OB3buPKBFvc1GX/P3j8nfsmyYxx5bTU39Sh03oF1JOjsdSEvjPlW9U+fj8fhQVdUIl8uNzMw01dEIqDxOfW21tdHEjkdXl1OLPbs9eo1MQdW52b27SpcX98Xy476YPzU1Wf9mx44K/R3/5nnxuukawX8nqvtuxO8lLG+WIe8hr4vnsmtXFdrauvQ+eE68Pyx7bmOHkWXA/cSXD91pmMcoX7rPMG9jY5vexjLta4co0O2Bp6YDrcvVc5tiR2RsAZCm3s+0HKvnlD7/9P3nHAARxIIgCCdIvCCmpSzBaoI1WzVu+VZEVIPZ8uw+BFVDGlEiyVKco/JEX/iGODJe/gMFowNU/+d1eOoakDGtCPkXTERSYUbsW6Ev8F4GvQF0bK2Dr9mBoMuH0JQSICUqNHh/2cAy0gSTIYyHA34l0hipJCqIi5E5+4ML4ksuOQPz5k3V5UYRRQE8fnyZflbcbg+2bt2LMWNKVCrWv/vFL/6lh+avuOIsLYoonuhT/J//vIp//OM5PPzwy1iyZK0Wv/yeIjEjI1X/9p57/qbyvaaEjxWPPvoaHnzwJSV631bnUqfF3KRJ5VqcGs9nb0Hs8Xi1GH7uuSX6OP/61wt4/vl3sGzZBnW8auTn52ixTtH861//Gxs27MKZZ87UItkQjRS8S5asw5133ouxY0tRVlZwiLijSKXLCH1xJ00arc+Vv6Ho/vGP/4JNm/Zg0aKZqm6ZtY81BeIf//i4FppnnTVbCc1OrFy5Bf/+94t45JFX8cQTb+Cll5Zh+/b9et8s22hHLUGJaA++853f4+231+jy/8c/nsU///kcXnxxGRYunI6NG3fhG9/4X52f1/LXvz6Nxx9/A2++uUoLZXZUeL0Uz+Tpp9/CD3/4Z5xxxgyUluajXXWg7rzz/2k/cZbfAw+8gIceehlPPvmm9hun2wvzJSczMotZi2GeI33JH374FXUuz+uyXrlysxb+PK+HHnpJX2dhYd9GuCiI3RTEy+IEcToFcfQZtdlsOkIMJ9idku5rTY0DP/3pe6py1MS2DA927WrD97+/VFXQxtiWocXGjU343vfeURW4NbZFGOw0Nrrwm9+sxltvDT5fLOFwtCiOuU/kX5CO0bdmIdFRB8eSDWhbsRmOuiY9jH463Cc4xB10e5WYcel/p4zNk4l0HwSllRKTLLocbalJQJcbESVMQqrTQTcAukrwPg9Hl4n+hqKM4pACa+rUcoweXaT9UWkVNeDfFFoUT4SWRIosisMLLpivh+xvvvkyTJgwClu27NF5DWg53b+/Rk/goxi95ZbLcNttVyvRadOT+RYvXqOtn0eDIp4imJbPc8+dq63bn/vcDbjwwgUHhdzmzXu0ZTc3N0Pd/6AWc8Y58JQbG1vR2tqhr5P54sWwAa+f74g9e6q1aOU10+eaFlZacbdvr9BWcXYGKMQp4lOUyKO1/I03VmHbtv2YPn28FvI8v09+8loUF+fp37722nva4kpYNymgWSYUzHPnTsZnPvNh/Pd/36KEeqF2VaFFmNdEPvzhC3HHHR/CpZeeqS3By5Zt1ELZgPnZYWD5EFqFuX9eBzsts2ZNwsc+diVuv/06JfbHqH234IUXlmprMeE9XLt2uy7Hjo5uXHTRAnz0o1eoTtOZ2mq9a9cBfX+M/fcXp0QQsxH/17+2qB5Mc2zL8KCysht/+tNGdTOO/qAMZnbvblc9yA36OoShQUeHR/WQt2PNmobYFmEoQCtx5uw0jP54ITJKveqleACdb61Fl2rAHKohNCZdseFiY2Q06v1JmILY5UawxwuT2YSkkkwt6PobNlxs2AbjjPMPSoIlEcmlWbCl2WDy+JQgVp0c1UjzvlIUG8m4z0Lf4bB7QUGOFkJ0BzgaFHcUsrTCnn/+PCXYPqxE7lVasPZ2RzDgPTnrrJn4xCeu0QKP4pECk2KRxzsatFJSgI8eXYyrrz5XC2KmG264WAn4sdoqTWFNgT1z5kRtQV28eC1aWjg5kM96BFVVDVrIzpgxXrt99BbEPN/y8hJt2WZngNdOQb1p0259jbQW82/ug24LFJv5+dkYNapIH4MC1Gaz6M4By4HnR5F71lmzlEAPaeuuIYgNeGr8DYUuBfQXv/gRtb/3Xaq433HjSrU4/exnb9BCm9dHEU3XluPB33P/FLgU55/97PX6WLwPb765+mCHhxZjdiDY8aAf8vXXX6TFM4U4Rw547QPBKRHEgiAIIx1zejT6BEVxwVmJ8Cxej84316Bjw66DE64MUTwgglgJNYZcox8x/eW4qphJNaz9DRvez33uHj20OtzgZLKk7GRYuCBFKKJEsR/wR2eox4tiEcQnT0oK/TltWoTS+no0DDcVt9urBSJ9eWktnT9/irZ0TplSHssZhZZPxhWeMWOiFllMFGczZ07Ae+9t1q4JR4N5fvObr+Oaa87V1murep5o5aU1+pZbrtAWUQpentO8eVO0VZbuCOwcUszxeadopvg+++w52orcG/6W1mv6TNOq6nT2oKOjS7uO8Dh0Mdi8mYLYqa93794qLYh5XRTXFJsUwVOmjNWimi4X6empSowuxPjxo7SlmcePh64ZFM/8pPtCPPz9VVedg4svPkOdb6YuW54HXV1oqW1rO76hbfr0cfj4x6/G5Mnl6py4VHKq7rDQXYRWb7qYEPpJb968V/s533TTZboc6JJBcfyhD52v7ulUna+/OaIgDgbDqmfiwfLlNfjb3zbhJz95F3fdtQw//vEK/N//rcPrrx9QN79b9TrkgT+d8EH797+34pFHtse2jEy6u3247771uPPOxQfTiy8evfcaUg1Za6sbK1bU6hGAu+9eoev27363Du+8U436emcsZ5SenoDO+/e/b8IPfrBcp7/+dSOWLq1RL2EJAXQiHDjQpcv4vffqYluGHwfdJybakX9hBkZ/NBuJ3bVR94nlmwbcfYL+wwGHW1uKTZZEJYiTkGDpuw2Ew7+0VFHo/vnPT+JHP/ozvv/9+/Dzn9+P++9/DmvWbNOTcww4fMpJMEZjN5xISEyANcMOMxekUCLH5AloQUzBQwHMRDEsgvjkYb2hQKLIM/xvjwSF4Kc+dS3S0pKVVtmAe+99WInWf+PRR19X7/BWLajj4VB/eTkFZ4r2o2WiJZrCi2HejhXOjYKX50SR+4c/PKbagD/h29/+P/zP//wBv/rVv/RwPwU5ofWXQo5WYp4H3RVYP+jzS/G+YME0JQ7Tdd54KIhpneXEsf37a7UlmM8dJ+lRWI4bV4bdu6uVGHZpy+qBA/XqGJkHIzv4VT3cseOAeiaf1c/m9773B3zrW/8P99zzd+0vTfeE3i4HLDsek2K4t0WdnQ0Kbl5HdA6ESVvAKWrZUTkR9wVOAmTngB0c7o/7YfnTb5h+2SxXwnchXSV4DJ4POxu8P6wDJSUFuvMyEBz2dqTIpRheu7YB775bp1KteuHVY926Bu1Lu3Ztox7O3batRVWQ4ReAfChBI9Mrr1ToDsrphB0op9OvhST9ruvqDhWU/Q3rLN1DWD9XrqzHAw9s1Z25I8Fz7e72avce1u9Vq+p0fV63rlHXcf5Nn3gDimH+m0J5yZJq/SwwvfNODRYvrtLuKC7X8Gv4TzWsE/ffvxlbt7bEtgxfDrpPfKIQGWWqkT1N7hP0IWb8WIbMSjCrxohRElSj1FfYkNKXcMWKTeqZ2aTdITjxZ+3aHepZ2KYnzhw4MHw7OoegGmwuTEGLOziMqzoLDPbPe8jEht2wFvfXfR3uUATS55dCjFbKo1FUlIuPfOQSbX2ksDpwoFbVyx3q3bxOCdfV2mc3HgqsqCvF+yKbwozb2ek7VgeGz8CKFRt14sQ11n3jOeAENB6LfrCEwpsidc6cydoNY+vW/dp9iAKXx+LkttTUQ62xhII4Ly9LC2JagPlbdjQpomnhpVDkftjZpOWZPsbZ2em6nFjn6F/87rsb9TPK55LnZ5wjRTU7qr074Zz8Sb9lumT0Rp2OLv941w4KVuZl3T6RDh/zsjwohg0oinmtPJf4Z4T3gND6bohzngPv0ZHOrz847O3Ixn3btlZtLdu7twNnnVWKu+46W/37EtUTugC33z5D51u1ql5VgIGbICIMTlih3W6GhenASy/tV3VkNZ59NuqIP1BkZSXhJz85D4899mH8+c+XY+LE7Ng3h0OBu39/p/Z5r6joxBVXjMNPf3oefvObC/GFL8xRLxzGyIz29AlHQpYurdYCesqUXPziFxfoNHt2gd62YkWNtn4KQjzafWJKshbFdJ9wv30a3Ce4WzZaev/RGfRsYPrKzp0V2hLMUFL0T/ztb7+B++77Hr7//c/o4VSGb+IkppEAi4/RJg4WJMs2dv8oEJgMUXwigkE4HIo3Rk7gsDmH/o8Gh9cZgYJ+rXff/UX8/e8/wre/fTsmTChT7/fndaiyeGjhpVtEvCWYIpWCk1Ziht86Gpx89vvf/0eLM04Ou+++7+DBB+/BI4/8Av/8593aTSLez5V+0PQ1plCmiKa7BN0XuD0q+I7cMWXUA1pVCwqytcsRfWpZDlHhm6lEcYGeYFZRUatEd54WsxSYtA6/8MI7elIdn8m77vqsKo8fqjbxV/o8b7/92qPWR74XTjcUwOwIEHaI6PNM2NHhe+dYvuSnksNiwnACGS1txcWpOPPMEpx3XhkKC1NV5YuGxsjLS0FGhk1VrhBSUg51Cq+tdWLx4mptPe7s9OoKQrEyf34hpk3LU5U7Sd28aOFzX3v2dKib3qYFCkWVzZaobni6qlxFqkeUpSoHwxTp7Do/rYA7d7arytWhGpSg6r0wf4be/9ixWaqyRisZxdmDD27TAobnyigLXm9Q9VQsKC/PVPsvVA9SxsFeSF/gu4/D7bzGffs6VQ+uR9+80tJ0dbwcnHFGsarw0eEFQneGlhY3zj23TF9rba1Di7LMTPofZasOR4kuo6Sk6K3gcD6tabRWUozR8sr9TZuWq8uclvtPfWqGzvfQQ9t054Vl+s1vLta/57Xddts0/TfhM8DzpFjl8Xt6/Lpcc3Ls+tjjxmXpMjpReE9pZeW9rqrqUg9ml74m3j/ud8yYdHUvMmO5BwZef25utMfNesLyOhoUr7QM5+enYPr0PCxaVKLqtF2fe2Fhiv7My4uGkiG8tq1bWzF1ai4WLCjCpElRsd3V5dNluXt3B8rKMjBz5rEDkvO8XK6AEg7Nut7Tms6yZL2dMSNP75f104CinC4Z27e3oq3No8s8K8uGOXMK9LH4LPFcuZ1uGzt3tun729TUo16OIV0GRUWpuj7w3PlssU7yev797236OeP1btkSfVb59yc/OUM/Q5wku2FDs6qHDnWdfI6hy4jP5KJFHHK0HXzWeF0dHV69Hz6XfB54XZMm5ejynTw5W9e9J57Ypa+fnSXWR3LjjZNw9tml+m8+V5xQyPrM55fnwOequDhN7SMHCxcWqXcQh1Cjz9WTT+7SzwfrMMuTf7MO3nzzFH1c/p4dFr5bOCLAsuW+Zs3K1/WT9d+A74eHHtquGtbJ6l1SFNt6dLq3ubDlW/uVMIptOAb+jiB6KjwIdbnhXrMH4VYHApt2w5ZhR1JGMmyqQbOk2mFJSYaZlprkFCQyHqZdfdrtKql3pt0GcwrdHfoawiuiNfFB+v6609BXkD6N9FHkBB020LR0eTzZ2qJF/0KmeGjt4aQfDu3yt2zQaJ1jQ899UMhQIBAOnfIYtLTR0tza2qXqQ1iLIVrFGGqJ1kDDUrV06XrtvsH90CeS+6eoOe+8ubjuuvN1nWRMVU784Ux8DjGz7nNfnO1Of1BanE6JEFAFrMtYHZPHZYr+85CSF44Ci4n3uqeHdaBTCcAGHVqNltFLLz1Du0UcDcapZZg1+gpzMhotpVlZaerdZNGWVIrEeGhxfe65xbjiirMxcWJ0tUb6DrP+UNDy90eD1l+eE8Vnfn6Wau8L9P7pBsEwYqyz8W4QdAvgZLvXXntXXVOdjqjAYf+JE0cfs97xK14Drd48L+ZljGY+Kzw2IzRQKFOYc3s0LnG0vvFZo9ineObzwuPxuWB+PouDGT7b9H2m28nLL6/Qi7DQXYN+1G+9tVq1C8efwHcqOCwOMYeFKbrmzi3SIo6NNcUwG0CLJVH1SKyqMqRh9OiMg40iG/enn96t8wWDEfUiatPCg0PNNTUMk0JHeetBwUFhR1FJKzN9Cil0mZeNGBPzZmcnqZtt0S8yIz+Hw+nCQRHChp2iobGxR58TBQI/mZ8NIcOlUTTT4k2xUF3drfJzGMKl8tpUpbPrRvJYlZMN9zPP7MFVV43TDSmhQNi9u03dpCrdkPI6KWApBPz+sBZaLAebLdp4/fa3a/D221X6eBQ3bOzZePP8nU6fFirRa42KUl7n5s0tqlJU6ONw39zG61i3rkkL/YsvHq1Fx2OP7dRlz/Kh+wrLjsc5//zow05x8cIL+1RPMk2LHp4vj817QkFL0cQyo3A6FnRJoPhrbWUoFocuF14Lh7/5ybIl7JxQNFK8834YULTRlWL/fopn53ETRR3Py+gk9AV2IHjPeM2XXTY2tvV9Vq/mC/eA7giMHp2uy5+Ck6KSdYGij/fQqBcUz/QfvvzyciVGC1WDnqLvrdXKum/S3xUUJOvrPha0PLPzwLrA+knrNO8dO0d8JijSWB95r59+eo8+PhPLl79jGfMZYUeIHdH8/GR9/1gvuD8m5t2/v0PXmfp6l67vzMMOV3q6ElXqOBStP/zhcu0WxfvKe0i3D9YnPu8s+w0bmrRwZ12trOzS58m6xbJl/eK9MTrD7BhQkDJMHOsbnwejTrJsWZ58p9C9hNfGdwHrPfdHYU+xSyha9+7tVOUT3Q/Lx3iu+Byzk5KcbD5YJ+67b4Oq23v1dfH55juB5TN3Ln3wrNqlZfXqel0m3M66y/PnNRcVpSgB936nh25g3/veUt05Ol7Hpnu7C77WALxNfngbj58CXapRVlXJXmJDUmoQ5rASe131CKsUaKtV+1KpWaWWepUa1X6b4G1uha+pFR6VvI1tahtTh/q7XX2n/m5uh1+JB39HF/yqEQx2uxB0qU6TavzCqkHkZDr6DweVKPA2taN1+SYkqscx79wJSMpPi7pO9AFO5HnrrTW6kWJDTatUdFJRkqoP7ACXqnd7biw39BDtm2+uVB2QPLS0dOoGmUKHVj+KEjbmbODpv0k4e59Du5xBz9n19J+k7yXzUiRRGNN6ZAhoxielvygn+TAfhS+FCScdUdhweHvjxp065itFBSc71dW1qLrUrtswCh8O455MjOCI6qT5Wl3oWK+E9t4WhCeXIJKXDpPqsFCwxAf5T02lIenwofGhSH/EIaaIpW8pJ1fRKsx7xVi77BSxXjGCA4Wn4TbBWLTsWNEiTAHFhSdeemm5Fn3sGFGU8l7TKkv3AE4mo98tee65d9R7qkrvi/WP7gasM3QvoOhi54odJcNXtXccYopv1k/Wcwru6KIYDbpu002D5043CbpwENatFNXJ5ehKRUW9/p4du3nzJutrOxYUtdw/LcvsWF566SIlFsfo8+a58pyJIez5bNCSSj9mWsH5nPB3rO8sV54fJ9TROs7rYdQICvynnnpLn8u1156n9xfPhg3R54f5eZ/iYdk+/fTbWrBy0h3hselSxfycdMj7xNjERUV5+jx7w/B3dLVifk6wY/tD33FGwWBZscNKgc8ypvvHzp2V+tpuuukSbWXvC32JQ3zYG4ENENPMmXla+PYFNjxs2D/72Vm6AWMjR99LCiFOfKKlig0axZkhvFkQX/3qfG2xYSP5/PN71cusUd3QkKpck9VJJmjLEYUErabkG99YoG5kkha3zz23R1u0aRWjhScx8f1LovijRfjb3z5TXXSCbnAff3ynFuFsmK++epwWDH2BljCKcorL666bqC1wtFTTCkbxwI7BDTdM0h0JA17v+vUNuOaa8Wp7vip8C5Ytiw7D/+tfW9W1J2vrFaEP68qVdeql3oObb56qxSW12ZNP7lYvivdDptCV5dFHr8OXvvSGfsnfd99lejvFeDws33372rX4+973FmnRRXHFmNHskFAg0Op4LCgWKXToO0vxQMFCQTZxYg7OPrtM1xWOKFAoUSjyfOKhZfBnP1t5whOqaO2l6wNHKE417e1u9WJs15bsV1+tUI19sxbstJguWMDht8nqu0x9TwnFW1ubW4vkeKsi6x87El1dHl23jwdFI0Uh6w9HNC66aIwuK3Z+WO95H+KhqGxuduHjH5+mj+N2B/WzxHOnlZWjCyxvikz6TPOcaR3lM0vrXVOTS18f83N05JOfnK6egffPn2KT+/jKV+brukerL6+JzxM7AddcM0Hvj501dnLpk81z52RFjvbx/hPWBbqUUHjymmix5TNFMcqREQr4T396pq5/rKt33DFTW6JJ/MgEO9HsXHB/l11Wrkda+K54440DSiS16/fCdddN0ILXgJ0Mlh+3s0OSlmbV18Dn6h//2KwEfql2g+HIDTsOfP753onfR18Z/5UyjP1sdKGAPqOe45A3Ar8SyUFXCCGVAs6w+lT/dnYi4GiHp0Ftc4TV90wR9X1EfR9W24LqPaCerSwbLOnJsHBiimoILenpsGZmwpqdBYsSjpaMVLVNJfV9SDUgelKdHn48eR+86MSYXG0Jo8GBs8RpJeMEm6PB9zcbtssuW6SHbzlph9ba5cs5GXWDFhkzZkzQeSk0uJgAG2Y2sBQddDlgnFOKAvqE8n1NcWQQtUBX4corz8bnPne9FgEUzm63T71ntqh32xb13HboGfTl5cVaYFBIU6AYDSsba+H08fe/P4NHHnlF1ynWD3ZUKKYY25cLPNCaGu+/2huK13POmaPDmz322Ou6I0SBxwloX/jCjarzNiaWMwrrx9y5U3X9u//+51Wd8Oo8dANieC9jEY8jwU7fF77wEfVOfVeHC2OkB05Io2/v2WfPVu37+zF5Ddhuz58/Tb3HO9Q7e4l+ZowJcMeC1zVr1kT1vqbhwa6ek/H6GWQHlGHiGMaMnVIKeKOTSLFMFw1O+mNsZp4fnzFai3l+rOvsOA5W2DHifaClu75+Cf70pye0BZ7nz5UMWW5Rt4mooaq/OMxCTEsPLYAczqSrhGEFPhZsvCkEOdz4oQ9N0KKPljRaCdnosbGkteryy8fqRpyNMYc8jWF7WqOZn9Yefk/xRasdxRYbRVolOeRKUUIhyAaN+dkAMj+HRSk6zzmnTDfG/P0zz+zWw7FXXjlOCz5ahFJTLfp7CneKNO7rWNd3JAsxJ7EZQ7VstMeNy1Q3za4qKXudAS0c6F9KIU6ee26vbhxuu226Pm9a1pmfVnAONXN/F144Sj380aH455/fpwXShReOxsKFxXo/zM+KQmscBRw7Cixj7oNCgWVENwqWR7wgprigUL/++kmql1muOyQ5OVFrIRMt7rQaUoAcC4pgxjPmfWR50ZJGK/SZZxYrwZ4Xu6YkLfQphvmC6w3PkUPZvCcnktjR4Dn2leNZiNnZoHWfHbbRozPVPSxR97ZAdxRaWnq0cOK9pMAnFPHr1zfpTk5ZWboWmwYUZCx/dgINq/zR4H4oNFkXWX7s6LAjxGeEgresjEN9iVrg0kJMEcf7Roslv+eoBp8lClx2MHnPKP740mM5MR/dLvjMcp+sC7SU0vrL+k7rL7exE8n9s45ee+14/Wk8S7xvvD7eT5YJz4nnyOPSIkzRzmuYMCFL1yXCjipdSs44o0hfF10l+FzzNxTaPHf+lhZaCnme90UXjdbHi++MvvlmpRJQbbpO8Z7wGKz3rDecq8Dymzw5V4t48vLL+/Uzf8stU/VzyHtA6zX3yY4phT1HLLgf3mfWT3a0WD7cB49vwN/Qheqcc0oPsRwfiUR7Asxp5pNOlrREJVbNsGWbYc21IKlAPbMlViSXqjRGNYDjrEibpO7dVJWm25A5S3VU5imhv8CKTPWZPlU1huNMSCoOKRHsgzm5R7URXUpot8Lf0Yieymp0btyLtve2oe3dLehYtxPOvdWwF6WdtIWY9YJiggKC1r3Vq7drYUshS+suG2rOCmejTGghplvDRz5yqbrXC/SQNsUOLVkU0fwt98cGkNCfktZkWne5MhmFA/Oy0adFjxOY+O8zzpiu81OY07pECyL3wf2z4eS+OeRK6xUFNcUSZ/Rz2J3H43ly8QD6YC5aNEufU18ZqRbiQJcTrv2qk6vEZObMIlUvS1VdUtd9EhZiWljpvsKOFcUa0znnzFZt6iy9ShoXiRg92oh88P7+GY6NQpGjFHxPsbwpYukeQGHL0FzcD1eImz17knqWM/WxCC3E9NenUKbFk8KS9YnnwOPxfFh/+T4lnPTGfTDMGLfxOwpVCku6KrBe8bxZj3hcineuIkeBHA+t0LTM0i2E4coYM9g4xtHgNXMEg+5FLA92HHk+vBYKZD4r7DDwPIxoDNyn8RtaxSnEeT6Muczy4PUuWDBV/80yY352HvjM9bYAE4pxXhOP07ujwN/yeeMqg8YqgsxPdw6WKcU73xn0eY7PEw+tsrxnLEd2LKJlbNHXQPFLdxOWKxPvAZezpvWYHZf40agTgRbiHlqIueS6eqdExvVhpTpaFJkolAx/vROFDTIbRTY8FGZsFNmw8m+KP+6XcJiYjSgFBRU/LUC06nA4l3WFooCik5Y7QpHDoV1+0lJg5KcQZsHTElVdHR1OjoeNNn0PeR4UzrSeXXzxGL0PNprG+fQF+s3y3Lg/WtJpNeMQM62EHNrlufW2GFLIU5Cy0aY4oKgcPz5Tnw9FWPzkRIoXDjdfckm5tloyPxMFIi2xfYXlQxHG4X6KAIo9ng+3UWSfiHWTFmIOn7OcOZRBdwMOhfP8KDQ4NH6sh5yi5sMfnqitkSeSPvOZWVrQ9gesIxxeonhnmdJyevvtM7QbCoXkqlUNWpgZsIxYT1iO8dfIfzPRv5Z5jgfrCn1yeUyKYYpY3lcKNlo3KcjjYRmzg8d7xeeH4pYdCt5DWrmNus66TYFJsc5j8DnhiAndCDhqwtEVdih7W6ApCukPTNEZ3ynkM8NnmJ04Pl+s29wf9839sf7TbciAnWG6X7ATQzHM8+R10X+fdSxe9B4LniPFO+9La+v7zxVFL49LC3v8cQnPnR1HPlesY8bt4bNJ8UzobsKRDZaHxxPS52T4mxtQDH/pS3P1+fc3XCDDnKqEU44F9mJVB8pV52WS6nTMSkX2wnTknZ+JgsuyUXRtLko/kodRt+VjzKcLMe6/SjD288Xq37kouT4DhZfbkXtOItKm+mDLU++yUAPc9aqTsGWrEi1r0PLOOrSv3AbHzkoEnR9sQgqtdoy/SksVGz6GkWJsVM62p/DlcCmHr+Nh48bGjj67bCD5OwoXWrUYci5+0Q5a3xgPltZA7puCmi4U3CfDO3HFrN4LClAos/GlNZCNqCGcGAqKbhe0FvKYHHJlhAxax3hcRi/gBKfeIbmEY5OghIOOrKGesbBql6OjDn1vPwmHyGlt/epXP6rTV77yUf1vxqullZOCl5bP3m0KVy277roLVN2Kdrx438eOLdF1h+HXvvSlm/UnXXsoPCmo4+E+WYfpZ85FORizl39TcFIYxR+Pw/wcrTC28VgUdhyR4G+//OVb9UIW119/oRbpnGgX7xrANoF1l64W/JsLh9Df/ljtpAGfA3bW2OHjqAn/5jbWeS5bfOONl+hzo1A1yoL7pQsSBSxjLXOBDSYuhkHRz+WuWcYU/oTPBsUl3UqOBMuJ5cN71RuWBc/B6NASlgHnGFCsEwp3uo/wuo/EnDmT9EIqfCcYUNhTpFMoc/+8Dt4fXif3x0mExxoxOBqMssP6qptp1WZDd+KOfB8OE8QUTBQ4FJ8cau0LbLjZGFEoEH4aDWJ8g8zGlg31o4/uUBXrDdx22wu49dYX1APxoroJr2urKYWaITT4W+bnBDXm/9jHDs3/2msHtGjrLUzol0uRY1RCngstgxQ4UXHd9weaFkQOB3/72+/g059+RZ8H0x13vILf/36dFo0UtPFQcNDCF+9KQGHJ8mFjHy/M6avLjgCHpI1he2JYdfsKL50Chf6XBuzosCx4XCMO4LGgiPjxj8/RFn5aqX/729X45S9X4v77t2iLK6/Z6LwMdvjQUUjRXYbCj4KSiRM5r712gnaPoMgzYH6WFe/ToXU4rJ8P3lt2Ho9H1J+dkymjvu7HgwKP4tfolLIO8zz4yWMbdZd1jWKS1tcf/WiFegm+rl4kL+ln5PbbX9EjJXw2enf+WCdYJ3t3evmccUTg//2/tXqi5qc//TI++tEX9D4Zj7y6uvuQ+k1XDl4bLcm9RX1f4HNFt6K77lqqOkSvHnyu+IxxKWuOKvV+H7HsaY3m+yoeCtyvfGWetqDT8kyf6TvvXIL//d816hhNunM+FEm0JcCmhHTyKCWiJycjc04aUsYmw6LqVCRog7dR1cn6AEJKa6ZPGYfCKxcpUX0h7HGNzsnARoiNOcXI//zPZ/CXv9yFP/zhu1rA8LuXXlqm3Rri4buNVi0OhRrQokehzHcOLbgGnOlPwfrXvz6Fb33rd+qe/0jVuf9Rdfj7+NrXfqME7W5Vxw69ZxTARkMZD/0+GbKK58TffvKTP1D16Htqf99X9eoe/Oc/r2pRfKwFH4TDSVT30UxLnrqvIbdqo5yqve31ThHeh/WLvrYc3WCINIplw2deODr0yX7yybf0SBSjTdC//MUXl6KhoUWL7t7P+4kQ9tFFTXWAab1SbXWEq3XGNGpvDmvJKRg5bMhJKpxg0xfYWBti2CCmRRWcgRv9iyKDE+Zo3fnyl+dpH9/vfpdpkXrhLtJhsP7rv+YeFA5mM1+uVm3dZf7vfOfQ/D/72XlKGM/R1qV4PJ6AtkYb4oGijeKA5xjvWtAXKFQ4nP35z89WgmFh7DzO1P65P/rROTp819y5vXtV0XJ5vyyi5cLUW5Nz/ywfdgjiBRhn0DP1xtjPseCxD78vJn3s3sc/EqwPdIehlfczn5mJ//7vedoiyH0uX16rF8WggKJbC616tHrHw/P+85834hvfePuE0o9+tFxPquoPWI+iLgjRyB5G2bDzQZHYu5PA/BRWdOGJt1Dy/vA6KaaNCZHHgmLWbk/UHZ4T6Wjynh5+z6Kf8feMApb+5RTFdOthhBFa2b/1rTPw9a8vUJ2ZwoPW5Hi47yONANGH/c03D2ihyQ4Qn8M77zxD3ZeF2r+aHeZ4cU0xSv98+lp/kLjkvBd0G7rjjlnqWAuO+FzRlSIelgevoXc5sSNBVx66OtFn+WtfW6BduXivHntsR7/Vrf4kHIzA2xZE51Yf6l52Yv/f27Dz57U48EAHmldF4PHlwzJ1JjKvvwQFX/4Isj92CVIvnA3LuGI9nP9B4LuCYpaNEYdKOSxLqzGHW+kSQUFLS1hv+DumeI5Uh3fsYBSSN7SVjlYnWrLuvPMTqg5/Qlud6ELRO2RU9N7TqHBoE0Y/a54nh4ZpMbzzzk+qenS7qke3q7biDtxzz5d0uDhOwBNOnMTkJO2zrgocQfUOCzg8J9Z4jDCoNRjy7ZvfvFfVsz/qjhxdG2g5PZbPvRCFzzMnSbLj+tvfPqj9zDlZkhEo2Kk43oTEIxH2BRB0eLWlGDRK9kUQc7IR/WI5y5xhnNjo0wJEcUYrGS2rHNann268YOsLFKP0jaXlka4B9H/9whdmqzRHD19HJ89wuDV6ehS6HBY9Wn5a9mbPzj/MUseIBRz25fnz3GkZ4pAyX6b0m+zdkJ4I9EFkY0sfYvpZf+5zs7Ro4DD/LbewgRit932ysEPC62b5U4TxvJlY3rTO9YbimVD8H0n4nAp4v+hTy6F93pvbb5+pfbPZMeDx6UKycWOTnqTHiVGcvBQPOyIUIfR/PpFE32daU/sDCr3y8gw9FE9rMOswU3u7V1uGKcziO1bMT9cW1iNeJ8UsEwUoO42sD8YEs2NBUc17y/3wt9wH7yvdg/hv/n0ysIPHCZJ8Lnl/br11qp7E9vGPT9fPCl0p+tJuMewi7wH9iK+8cqy+16zb7AxRXFPYx++P7gcZGUlgOET6J1MU81roYsHyNOokdQstuvw3Lcy9z4llaLhr0F+bE3P5XPHz1lun6M5wSUlvX7bYH71gtBe6lfAarrhinL6Gq68er+5Vip4QSx/9ePheoD89RzoGAxFVFYJeJXJbQnBU+NGxxYP21U60LHei4R036pYEULMkjOp3TGjcmYzOrhz40lQHdfoU2C6ci5RrzoTlzMnA2EIEU22InMAIxrGg/x4tN7R0RYP7h3XDRVeIgoJcLQJ6h7jqCwyRtmzZBtVJpUvbQlV/P6Tq3PXaB5l+pWlpqSdchzkKx2HhmTMn6uFaDmVz6PeLX7xJD3XfeOPF2q+SPsnCiZNos8bCAvCdv+sAAJQ4SURBVCZpaxv9qCP91N70B1yamH6pvTtQpxo+C4yowqgO9FWn/ys7juykDdTiEkMZdrjZ2TYiTNBVim4x9KWmPzLnFfSVoMsPX5tLr6MTocsFo5YcpfE4rHZMn87QNUXab/C11yrUi6pWN3S0ANEqxgadk5YefphLFZ6cHxatc+edN0oPg3IyHsUeh+J5DIoODv/S2kjrLqGYuOCCUVqI8zvm4bnw+Pybw8JPPbX7MAsVXRt4DRT1tKRxQhJDldFqQVFriMm+QP9P+s0+8ABXgmlUN8yjj8tZ/WxsaSmN90HtK/TDphWO5csOCRtrJk5eojW2NxSrbCx4j07E8vhBiVpTzVq8UCTRivfLX16gLXvsCLAMWO7x0MrKxV0effRDJ5T++tcrtNjuDzhRjL64771XqwU86xHThg2NeqIWBXC8/zLz81y4oh2viwKWic/HO+9U6c4jh+iPB8UZLaC8j5wgRjFOUc5zYJ1m/T8ZeO/pgsT7QiHPe0PByQ4IraHsAPaF6HB2RFt+uS++N3iejHDx4ot7Dz6TBvQlp8WdkwsZNYbPA6+FIp1RLthRI3zWWA84WsBr7+3CwTJm5+LRR3fqMmEZsz5zlIqh8v7wh/Xar/hEoJ8zw7LxHPhcUqC/f7zDX4TszNElhHV3MBDyhuFpCqJxhRt7/606kj+qx4avHcC2e+pQ9ZIL7V2p8E+ZDPMnL4H19kuReMNZCJ0xAZ6STDgSQmjv6FAdgnb13mhX94JB7j9Y55LxgX/1qwewePEa3UhRFHPGN311GTOWDX3vOMR9ge4TFNT0h6QVjaKWk+MYmumRR15Vnav2WM7jw9+z8aRl7uGHX1Hv0ANa0NPqRF9kxoX9+9+f1eJeOHFM6h4zFnZSUQ6CDj96KtsQGSJucuS///sWfOc7n+p3UUrB/c1vfhyPP/4r9S77pfYzZudMODE4wY+d1p///MtKB9yl3uPfxTe+8XHdMY5fwa4v+Dp60FPdgTA7Q8lWROh3fZT9HBZlglYcNqwUWmwc2bBSCCxfHl3mlhYkNsK02FIUUbwZUSYYJutIobLox0fBxugIUb9IOk/btGWODSiFH2evU/AxkgEbZFqQuX++HDksSlFMyw8bSjbyzM8GjNbE6Plk6UaVVmIjysT48dnaX5TD+CtW1OkG1ecLq3Ms1pYoWqWOVcBHijIRHSI2axFFQc8hZi5GwkaV18JGnTP+aQ0kjDJBCymvvfexOAGPM/5pEaPQJrTAEU4wYpg1+nNSeNNiSn9NNvbclxG/lZMJWSYUI4y9yglORixVI8oE8/devY3nxHtGv88PfahvDyxFEu9h1A3AooUOh6M5AYz1goIzXlSyA8L6xHt/Ion760tnhffi73/frEPqvflmlfYTZTmwY8KwXRRExoQp1ie6RlBo8f6yDjEyCO8Fnxd21ObOLTx4/4z8tHhyxIH3m4KW9555OFmS+2aeY8HnilFBeF78Le+pYZWkS8rUqTn6XvBesk6wDHkuveFiHZzgyHtK8U4xHPVP5sTTVi30eX58TlmGfO4oBunuwI4o/83905rMUY7esCwpqFn/KPr5TPKa6S7C8Gs8Nl2dGNmB8CVFdxNeh3FdFLQUxewgcXId6wmFNMuQ+fg9Owa815yYSfhcsS6xk8v3ifFc8RwoalnWjKxCKy9h54XnynKgcI+HzwqPxWeDx2K4Oz6f3M6oGoxeQxFPWN585zAfLerGczVQRCImOOuUiN3pR9NKN5re6kLj651oXtyFtj0RdHVY4bKkw1tUCP/YUgTHFiM8Kg/hgkyEs1IRUmUWVO/HIMLwh4IIBDmaF1D3in5zHgTbHfBvrkCyej5PNsqEsews4wJzwhsXQ2DMUU6sY1xUWsDoomBM2DGiTDDGaO8Z5kYMU/pTcoKSsY3n29jYrsU3f8soEowIQZHMSXAcdr788rN0fkaZoFjm/uNDsRG+Y1NT31/xiiuMcfEF+jhzNT0uAMEJV5x1fzLWppEaZYIE1L12VzfBo+5TJOBH3vkTYE62nVSkiYGGHSVGZOjtwtMf8DiMnMDEiXBiGT5xoroiGm2CVnWmaCf50EmPJ4xq+1pX7EfDGzvhtychNL5QvT8Zypaudpz/c2iUicMEMQWl0VBRmHJ4saaGi0P0qBcjVznjqmk52qeUAoj52YhRXFAMG8IuHn7HfBz2ZKPPBpINHPdFywBngnMhAVpCKUpovaXLBPdPMfx+/gQwIgMFLxvNaH7Gs+S64cwfFbiGIOYqexQrO3e26fOP5s3TIagM8XwsKF64L543LWHE8BnlebHRrapyKCEQjXDBxpr7pjXQEEg8Ni3KF1wwWh8/HgpoRru44oqxugNAKFoouNl4U7RRDFBMRFfiM+nOA8NxRQUeoxyEtSBio868hvWd8PcUcXRv4NB5PBRJPLeiojR9zicL66hRZ+hWwfPqrwgRR4NlRSsrO0ocCWB5s85Ey69H12UKQML6x3vIzgW/46gB6xHPnyKUsXR5/4y6wfvIMmVnjPtmB5FCjIs7nHlmqe5YGeL5WFDk87zYEWG94shGZ6dPuwFQpDFEGEUh7zUjKrA+M0JLb1gfuY9LLx2jJ1nyoWZnkS4TfI4oSvk8cl/cB4U4j3vJJWP0NTIfRS0FLa+3NxSXTDwOQyWyjtNSy/rJzg47F3yu2FkljCrB54GdZ9Znun/wuuiWwo4ZV3BkWbLTynrd3OxW7wOu1MeFObiSXVSAch8ZGdEJuRSpFOR8xnmtfA9QxNISz3Ik7MDwXkbjOR/e4PAa+O7idXBkifWd95WxwHkd7KARrjjJ8mA5Mm6xIdD7g3DIhIAH8LSH4W4Kwl1LS5sHbZu9aN6oBPGGAFo2edG2O4SuehN6TGnwZWYhOLoA4UlKePFlXpylhHAKQkkWhEwRhNTzr8VvTAjT2srEoduIx4dIVw+CWyqjgvic8ScliCn06B5BSy0nuTCUFCeusZGi4OUsf/r4ceY6oT8xhzrp8xc/i5wwCgSD7I8fX6aen2g8ajaAXOWrvr5Z75+LaNDCyxBXjADARQRmz56oLb+E0Se4+pyxmlU8PFfOymcjyncj98fEc2cjyJBUnIlPn86TmbHO2ereFic611dFBfGUkSOIw6qtDnn8cOyoUp2CdmTNLoM1yw5zivjGCoMPjmD4O91ofnsXmpbuQ3isen+OVe9SPq9HEcSmQOC7xljiQdh48WVCSxETGyW+YKM7MenGlomCloKIll5akNhAHclSxkaYeTirPV4UsnFl4jHYYPG4FJq9929wovlpffroR5/HPfecp30p6dLAvDx/+ueysTxSI9obHofXReFhNKAk6gcZ9ZXkdfFceB60JvI8DKs2MYbCee29odDg9/zOsHLxPDlD1fDb5rF4TfQn5ipev//9evzxj5dpEU2i9yjq18rfcj8UfIT7oDiKiuxDr5d5eW28H0b+oQrLn+XI+3EkWCcpBg2Yn2XGsqPQJbxfrBO8z+ylxtc75mf5Mj8tsoR1jWXK8jbu9fGI3w+fKcJjcj/85L3gdl4Lra6G+IuHlmB2CllnokIzouuJsV8eg/Wc58RzY5lwG+sAtx3vWeXx+RvujxZh7p/nZZwf6xR/F/9bimGeE39nXBeviQKYv2NZGs+MUYasf7wnPA8D5uE+3s8TPTavk9cS/1yxU2JcV/y9ItxulAn3w/3yd/x9dD8Jer+EkWEomimsGRKvr4sR9QWvKwHd1WG0bPDBsc0F9+5uBFQHK2i2IpSRhjCHo2n5zc9AJEedh6pjEVrfmNT5RmLnbMD7bCS+3Ak/Kcz4ojf3+JFY3wnvQ4uROyoNk793JTKmF8OW0zf/Wd5fCm4KUy6IwX+zzPmc8Di0iPHTKFO6J9Clgj7BvUWnEQWC+Q0/Xu6PYp6h0KL3nfuPxiXlPeN2WtooygktyjwG92+EneoNz5Pim6tfcf/RuhS1PkWtdic3/Brs8aFzaz0O/G05ql7ZgeANC7WV2KQaWYphNqoZGRlKlNMFqFB1Rg8V7EOZoCr3nuom7Pr5A2hbtR4lH56NspvnI+eMY8exF4TTAX3d29ccQOUDq1Dz+k6YrpmP4LRSBAqigpjvAHZe09LSkJWVhby8vCML4qGOIYh/9asL9YSgoQYtY3SBoOWb1kc26K+/ziUiae3o1hEE+mMVN0EYadCVgiNfjPvMRWviBfqpZv/9LWhZ60WPzwZ/JAkB2BBKUMdLS1LJDqQnI6L+jqTYEIkLV0Yo6Cgm+WkkEi+Ijb8piCkmzaoDYm5xwnP/G8jOt2PiNy5G9oIx2kosnBwBhxctqypQ9a+VqFu6D8Fbz0J4QhFMmSnDXhBHgqrDq0Rxxd+eQ8NLSxH0ODHu8+eg5Po5sGan6JBsgjAY4PvR29iNvX94B03L9qG70wvcdBaCo7IRtEXdL/iOpGWYgpjPaW5u7uGT6oTTDycxUfzSd9vwraZPJa2D9N88kSF6QRCOD/3FOWGXkyf7UwyT9nfa0fhWlxLgdvjScxGePAo4bypM56g0fzxME4uRUJSNxHS6itEaHk2G2DU+TxST+q0p2aotzBzuppijD6xw8oRDYfg6PQi6/VGrPd1PLCPDR5QT67g0eNa8ycicNRnu6i50rKtG1+ZahHp80bBWgjAI8He40b2rCW0rK+DqUmJ4bAFQkKENDRTLxvvUSAfftbHfC4MIDjdT9NIv9gc/WIof/nCZ9g2lz+dNN03RfpmCIAwxwkowFGXBdMOZwFmTgXFFMKWrzq0SGgZ8WdMSzERfYMM/2EiGf3A8RxXJSqjRt5WTnsL+kF7ClKuMCScPRZ+n3Q2/i4I4QQli1cByBbcRRLYSxIWXnQFrbiZalu1H9SNr4Wns1p0uQRgMdG2tR82TG9CzvxXh7FRg3lg98kaM9yU/mSiE6T7BdNikuuEA/YTHjMnUs+iHojWVPpOcCMVJQJxYRfeIc84p1ZOkODmOPpBHbQQFQRiU1D/dCkdPMkznTY36B9PCqP4XjkRdIQwhHJ+43RDAxgs83qphvMi1i4T65LA9J4nQN85u59yBJAQ27EeCxwNbVjIyphXDlndoPGfhxOEknfpXd8CxtwUBdQ9Cc8dqVxe6C/B+DOdJdQZ6GWeKhyQbfC2dcFU2ItDl0avZ2XJTkUCLubRPwmkg5AloMdz4yjY0LdkDX4od4emjgKmjELZZoN6o+n0a/6zSzclIw1IQcxJcfOisoQYn/jBkFWfgMwIBhTDDpnG2PSeCiBgWhKGHFsROO0xnTjwodA3ReyQhbGAIYUMAG58UwfEC2JgtTTGmX/BKkKWovwM7qhDu6EbEH0DOmeWwF2eqncZ2LpwwtA57m52oeXI9XC1OhHPTEZpeBqREw3mNFEFsYmfMbkNyWQHcze3o3lcH5876WKxiq45iYjKrTlvcyIcg9CvqfcnOqnNvMxpf34GW5fvQXdsFzFEd1mllCBdlHhTDfFb5/jTel3xOmfjMisuEIAjCABMvgo1QaYY7hCGuDOF7uOX3fdHLFzknhXAiV2Zmpk6cIMJJXZw1nV9QgOzJ5TCrPF3b6rXbRLzYFk6ckC+IQIcLvuo2BNmjGJMPjDB3CQMK4pTRRci68kxkXH4G/M4Aqv+zFrt/+6b222SsZkEYENTrjKsmdmyqRcX976HqgZXorOwAGCN84Xgdd9h4z/Ldx9E1451qGBKMEbZhaSEWBEEYbMRbiA0rcLw1mEKYL2vD8mt8Gi9uCuH4ZFghKYjT09P1J5Nh8aBgtifbAZcXvvp2dG3Zp8OuJRWkw5olE3P7SueORtS/sRPt7+5HsDAbmDsWoewUwBx1YRspFmKNul5aigOMhZ1kQTgjGUGPX9WzDrgrWtFT1QZfizNaLja6V/TvhFVhBKJem/Rd79xYg7pnN6HhpW1KFNfAq56/8LRRwAIlhgszEbYkajFM+H41nlHDoMDE55XP6rAMuyYIgjDYWHPrDtQ1ZMH09WsOTpCjIDaIF8N8YfPfTIbQ4ne0ZsRbj7md2+K3x3+foASJa28tap58G3t//yhKPjxLp+KrZ2hRIxyfSFh1XLwBVD2zCQceWqOHZYMLJyJyyUz4bQnaF5zlzXvBRtYIu1ZA6/wwCrt2JJxOJ7pa29FR14jOt9bB8d42+CsakZRmRXp5DnLPGov0yYWwl2bqpZ8T7RYkWM0wmVXnz5yoRbUQHTGKqHdB0OnTz6UlzRbtdMgzqqG7UjgY0p8hr3p3uv0IOL1w7WvRgrhpRQXcHW6E6K4zuxyR6aMQHpt/iGWYZcl3KN+tFME0IhiJhgSKYhHEgiAIA8CRBDETX9QUvhSwFLaG5SJe3Bqil4n5jMQXvJEMjEbU+AwHgmh4aTl2/PR+1bIEUHztdEz90dU6+oQ0uMcn7Auip7YT+/+yDBUPr0FkfBEiZ09GZG45/IEADVUH7x3vGwUxY5rSZYUuLMMZj8eDnp4euBwOdLfQn7gGXUoUBzftR6S6BSZfANZMuxbEGdNKkDwmR49QmFNtentfV00crmih5/Gja0sdTJZEZMwoQSI7DlyUR9BhDgNdbt1hcNd3wVXRoifP+ZodCHoCCDFaz5RSYI4Sw6OVEE6xIqw6qoYYJnxGaQXm+7X3qBrFMJ9fEcSCIAgDQLwgNpZZpgXDsAwz8eVMQcWVk/gCNyy9tD4aVmLDcmwIaSMdC7pL1D27BPUvLIO9OAnld5yN3LPGIakoI5ZDOBL0G3YrMVz1n7VoemsXOms6YbpqLiJTS/WKgn6/X98H3idannj/KIIpiJnY6A5neP1erxdutxsupxOO1g44DtShp7IBvqomBKqbYep2w6zy2RNNMNtUB08JPVqJE2yMViET7whXZ4wEwvC1OnV8a1temnRY4+CS6WHVueJngCuQqufSGzYp4ZsUXdWzLEeHtIyoZzKcYoP66qA7mvF8UvAaxgY+l/xkohjms8t3q6lx8RdEEAuCIPQzO++pRKu/QAtiCgnDemFYF2m9oJgyJsQZ1uF4YczPk8Hf3g3H7irs/u0jcNfUIm1SDso/fTay5o8Wf+Ijoe5LWAkUV1Ub2lYdwL4/LYOzw4NwWS5M185HuCADIdXo0tLPBpeNKe8fBTE7MxTDdJdggzucYR1m5+6gKHa5tBuFs9uBnuY2eCsaEKxrQ6SxA6aWbkScHkSUmFFqRf1YpbCSHyL6YPL6AYcHJn8IUB2HSJJVRy8ZaTGujwrrCK3lqrMA+qOn24HCLKA4G6aSbEQKM3VZ8X1qCGFDDPPZpDEh3lWCzynFsSGGjXer6bn8c0QQC4Ig9DOB7iDCcyccIoj5wubLmmKKL2uK4fz8fL3sr4FhJTI+Twb6J4bcPlQ99ArqX1iO9rXbUH77IpR8eDbyzpsQyyUYRIJh+Dt7UP3Eehz492r0VLcjPKscuHA6ImU50Yk6LFN1D2mdj/cfpiDmfeTfbHCHOxQg8ZZiulA4HA5tMXY7XPCof/vcHoT8AYQ9fkRUoisFVH00cTGPD1CvhwsJte1IWHcApnaHFnyR0XkITytFmNZPAbApEcxVN1k2/JsdBQrkWKIfv1GPDCHM55JCl4KX71c+ixTCvcWwMepGTE999q5IQPVyw2FaK9S+1c4TE2QYQxAE4ZRTmAnMGnNEQcwXNS2LvQXxqYJ+is691ah7aQUqHnwZttREZM8uQeHlU5F9RjmSCjP0AhMjHUZHcDCe6Rs70fpeBbor2xGaUIyIum/0UwwnmRGKWaKI0eiyQ0MLPwUxP3k/uX24Y1jlWKd9Pt9BSzGFsZHoa8zvgz6/9mlXokP1EKOTpAQliLdWw/zsWph6vFrw0eIZumoOwlxyWIgKXy74EieCjwTfp0zGiJrxbqUANpLhJsFROX5v/Eb//plnnomwZ8ehH1ZsqmXuSBAEQegfTocgJnzHt6zZhr0PvYLuVduREPYha3I+iq6dhcyZJXrCkyXDrv07RxIhbwBBpxfeVhecuxrRvqYKta9sU0JOtYtF2TCdPw2RMXkIp9u1+OO9Y1my4TXcXTgUSyFMy7BhHea9HSmwTOLdJyiE4z+5XYvi2IRSlp+RRjQ9PiSs3ovER5arQlRlwaH/zBSEPna2jpYwUmNd9wVD1BrzKeLdJPgcGhbheMuw4SYRjwhiQRCEAeZ0CWLi6upGW3U96p95B52L18O3pQL2siw9ya74mhnIOWMsbAVpI8pa7K7pQOemWjS8shWd66vhqu5EKNWOyILxwKKJQG66dpMII3JQzPHesb1kA2v4JlIIGz6KFMojrS2Nd5+gVdgQx0aiBZnfUzizDJnfsLSPSNgZ2NOAyMo9wBubotsogDOSgWvm6xBielRJOCqGEDY++czx2WPis2kkimC+Z/kZ7yYRj+mFF17Qgth4QRsKWxAEQegf+K4lhoWRL2wKKQ636xXmlCjuL3zqfe/odqBjRwU6NuxC19qdCBxogDkcQEp+KuyjspGiUrISyZztbk5P0gsrmJO5JO+pd6fTMUb9QQQcXiQo0WlOs0WjD6gG7lTDmepcQCLsDcLfpQRaixPuuk546rrgYTinhi74EhIRyE4HxhcB5eo+FGchrM7nSGKYjSutThTAFMP8ZOL95PfMN5IwRC71hJEMYcxPCmKm+CgrxrMwIlF13/fCagTf24nw7nq9yZRsgyknHQkzRsE8fwIsZ0zS24UjYwhhQwzzuTMEsSGA+UnDg5H4myM9m6bXXnstYlRUo9fGJAiCIPQPfBkbfm58WRuCmEPujE5AS3F/YQxrcyi7u64JHTsP6AUVPDurEahrpVpHUmYS0kqzYC9MhzUzGYkpVljSkrRgPdUw4L4WqB1uJFgTYcm0Rxdv6AcLNWO9Bpw+Hdjf19EDT5MDLiWG/W4l0FSDaspJQ2SsEsETioFxBYjYbUoGR4UwxZshhg0rlCGGmXj/+G8mNsIj2bDE8jJcIwwRzBQvlI08RrmOOLjgi8+Prt89C++7OxB2uPVmCuJECuLsNCSdPRXpt1zAVXvUF/proRfGu9R4nxqCmMLXEMb8m98Z+Y6G6Z133on09u8Z0UMYgiAI/Yzx8uaL2hjSM0QVrcRM/QWFCEUxDSE9Lhdc3Q442jt1/Fjn1goE9jcANa1IaO6KhoMKhaPilBaV/miUqYVUYiQMHuOgEO6nY3HlOaXAAIsZEcYsZfimkhxgVB6gxHCEQf6VMI8oEUKrcLwV02h8DeuTcc/4Ge+fOBKtw70xRC7rGhO1hfEZn4yyHWmE1bMV7HCi7u4H4Hh3mxbIhKMwCUk2VT8TkHnpfBR/61YkqI4ZF+wQjowhdvlpiGLj0/ibHO+ZNK1ateqgII4fyhAEQRD6B+NFbQgrCin6ocb7ovYXFCoUeXzf873P9z+jAjha2+Gsa4anuQP+ti4EOhwI93ijobL8AZiM+LGaUyf2dAiuLjcSKpqisVdH5yGSmoRIfyzaQFHBSUv8TFKi1W5FJM0OqGSiEM5Ijh5XXR7LKd5ySYsvG10K3nhXiXgxbFijxO3wfVjXjGTUvfi/48t4JOHcW4PmN9ag8bG34N5To92EuPAEy4N/2wpzkHXWdBR85EJkzpoAW37/dZKHOhS6httE/N/x/z4RTJs3b9YuE/GCmL02QRAEoX8wxDCT4eNmWIoNYdzf8D3PUcF4UcxFFYyoAB63BwHGj/X4dIISxghSEEeUXjyF1k8uSFDXDvM72/WqU6GzJ+kVp3Ts0VOMXuiAsUz5aVXC9wRENxtUw/pkdGAM14jelmHmYV5BOB4tS9Zj5y8fRPf2Cvg7HXoFP7r00IWIoyQpY0uQPnmMFsOjb7sC6VPGxH4p9BemvXv3Rnr794ggFgRB6D8MQWz4uVFMGWLLSAMBRwP5zqdRxBDF/KQoZqJYDvhiUQFilj1yKq16ps4emA60wPzCOkS4AtwVsxAuzgbs/RSyjMOmWs8bn4djDK0aVibjfhmWYSOx48J7xe3Mc6KWKEGofWox1n3+F4hwRF49ThTBXDwnKogTYMvLhCUzFdbsDMz69ZeRd+7s2C+F/sJUX18f4csuPonLhCAIQv9B8RTv40ZhbHwaQnkgMIat490nDHFMQWxMuI6fX8LfGOmU0OGCaX8TTM+sBooyEbl6HiKlOf0niI+DMcQabxnm/aDoNaz4TBTC/DTul4hh4YRQz41zXw1qnngbO+75JxKTrEgeVYjMmePR+u4W7UucMX0snHuq4e9ywZychBm/+BKKrlyEpALVURT6DVN3d7fqoIS0CDaSYQUQBEEQTi2G4KLYOlI6HcPuhvuEMVpoiOLe7nRG+2AI41NBpN2J8N4GhJ5YAVNxNswfOgOmslwg2RbLMbAYQpifRocl3npvuEcYFmNxkxD6Akda6p59R1uI655dqt0isudPQc6Z07D/r8/CpOrSqJsuRvPSjejefgD+9i5M/OotKLn+AuScMS22F6E/MKkXm3qvvf9iO2W9fkEQBOGoUHAZHO3vgYRi1xglNCzGhhhmomCOF8Wnqq0ItzoQ2F0Lz0OLkVCaA/tN5yBxdAESUk7PsseGIGai5dew2hsimKLYEMpMYhkW+kIkGMK2H/wF9S8sh7u+DZO+8VElhqfr73b89J8wq3o/5dufgKepHS3vbEDNE28h//y5KLv5YpR/+lqdT+gfTIeoYUEQBGFEwqbAsP4aFmMjGUKZ25koik9V0xFs6YJ3WyXa//YyLKPzkf2JS2EdW4SE1IHxo+6NYb2Pd2lhMsQxE79nPhHDQl+gGA72eLDpG/8H1/5a5J41E8XXnA1bbhZ6apux4+5/wKzq/dS7Pg1LZhp6DtSj6fXV2sUiW4nmaWp7gs0KU6LUu/5ABLEgCIJwCIYopvA9WjpVTYe/qQPOTftQ8/8eR/LYEpR84TrYJ5Yh8TQL4iMlwz3idFnxhaFNwNEDjxK++//+vA6tVv6pq5E8uhAhrx9dW/cfFMTTfnAH0qeW6wl33TsqUfP4W7Bmp6P809fAXpIHc8rpeTaGOyKIBUEQhMOIbxp6NxOnstnw1LeiY80O7Lznn0ibOAoTv/lRLQbM6SmxHAPPYHNnEYYHPZUNaF2xSYneZKSMLkLGzPFaGHtbOo8oiC1ZaXq58e6t++Cua9HCme4T9tL+W9p9JCN2d0EQBOEwKP6MZLgHGKm35fQDpdg+dRQ0lfrlGH1MxjkwxZeDIHwQzGnJSJs0WscWThlXggSLOVrpjwLDrzEKReqEUUo8T0DahNM3cjISEEEsCIIgCILQz1jSU5S4LUNyWQGsmWmxrcdBCWa6S6SMKkTq+DJxl+hHRBALgiAIgiD0MwmcnJmZrj/7SoLVrCfaaauy0C+IIBYEQRAEQehv6BaUwP/E/t0X6LbD3wr9hghiQRAEQRAEYUQjglgQBEEQBEEY0YggFgRBEARBEEY0IogFQRAEQRCEEY0IYkEQBEEQBGFEI4JYEARB6HfC/oBeujYSDMW2nDhcrSvgVL8N9f23giAIJ4IIYkEQBKHfCTjdcNc2w9fWhZDbG9t6bCLhCILqd97mdr3EM4WxIAhCfyCCWBAEQeh3fC2d6Nq4B93bK+Btao9tPTaRYBA9lQ3o3rYf3Vv3I9jjiX0jCIJwahFBLAiCIPQ7tpwMJI8uROPrq1H/4nK4DtQj5PHFvj0cf5dTC+GqR16DY1cV0iePQaI9KfatIAjCqUUEsSAIgtDvcNnZ5FGFcNc0oXX5JjS/uQbu6iYEe4viSNRNwrHjABpfXYW2lVu1u0XK2BIliG2xTIIgCKcWEcSCIAhCv5NgNcOSkYrUcSVw17Zg9/8+gtYVmw5znwgHguipakD9iyuw789PI8FiRnJZAcwpSTAlSpMlCEL/IG8XQRAEYUBITLIg54xpWhR7GttR/egbaHjpXfV3dMJcwOWBc18Nqh5+DU1vrtGRKbLnT0H6lDGAyRTbiyAIwqlHBLEgCIIwICRYLMiYORGpE0chEg6jfc0ONC9Zh86Ne6LRJJra0b5qmxbDzj3VMKfakTlnknaXEARB6E9EEAuCIAgDgsmciJTRhSoVwZqZpkWxY/sB1D+3FL7WTi2C655ZCk9di3aPsOVmInVcKZIKsmN7EARB6B9EEAuCIAgDBoUuBXH+BfO04KUo5qS5cCis3SZ0aDWTCSnlJcg7X+XJyYApQZoqQRD6F3nLCIIgCAMKw68ZgphElBhmdImIShTGSDAhtbxY5ZkLS2aqziMIgtCfiCAWBEEQBpTkkjzknjUDlvQU9a9IdGM8apO9VOVZpPJkiCAWBKH/EUEsCIIgDCgJNiusuRlImzgKSUV5asv7ESQYZi11bAlSxhQpMZwCU2Ji7BtBEIT+QwSxIAiCMKDQj1hHkJg1QYdg0/GFGVZNpcQkm96eNqEMCVYLTAkSbk0QhP5HBLEgCIIw4CTarMg5ayYyZ45HgiVRaWFTVCin2ZF79kykTx0byykIgtD/iCAWBEEQBhyGYOPEOXtpgXah4EQ6ukeYU+xIHV+KpKKcWE5BEIT+RwSxIAiCcGwiEQRdbvg7nfB3OE5JCnS59K4tqcmwZmdo3+FEu01Hnki0JyESCB3xdx8odarjdvcgEgrpYwuCIBiYIoxzIwiCIAhHIRIMwbm3Bv4upxKTp7bJ6NywGw2vvIfOjbt0RImcM6ej5LrzYC/Jj+U4ddAf2Zxs0yvl0RItCIMBb3MHurbux467/6F966f94A6kTy2HNScjlkMYCEQQC4IgCEfFVVGHtve2oHXFZngb23Ws4FOJv90Bd10LfG1dSLRaYMvPQnJZPhKTk2I5TiEmEyxpycg7dzZyz5mFzJkTYl8IwulDBPHgQASxIAiCcBhcLMNT34KWpRtQ+/Ri9FTWIhz0K0F5aoUqm6BIMIyAw4MEcyLMabZ+W5ku6PYj7I8gtbwMRVeejeJrz4W9JA+JSdZYDkEYeEQQDw5EEAuCIAiHEfL6UP2f11D37FK0Lt+E/AsmIOesccicWRrLcWoIB0MIOr3o2lwLc7pdCYEiJNr6J9yaa38bOtZWo/mdXUgdOwolHzofo2+7HPZixkIWhNODCOLBgQhiQRAE4RDoJtG6YhPqnnlHNdbNSCpKxqib5yNjVils2Vxd7tTBJijsD8Hf7kKC1QxLVrK2EDMs8akm4PDCdaAdtU+uh3NvO0yJSSi78SLkXzSvz+4TjY2N+Mtf/oJwOIxp06bh8ssvR3Z2duxb4Pnnn8fGjRvxX//1XygqKoptFYTDEUE8OBBBLAiCIGgiStx56uLcJKpqkTouCyUfmo2CS6bAXpIZyzl0CTi9aH5rDxpe2oK2lZVIHVuG/MvORP4VZ8JamANLchISExORoEQ5E+MjH4ldu3bh5ptvhtvtxnnnnYdvfvObmDBhApKSoi4ld999N5555hk8+eSTmDJlit4mCEdCBPHgQMKuCYIgCJqwP4imt1aj5om30PLOBi2GS2+Yg1G3LkBS0fBonC2pNhRfMx0lN85B+twydG7Zi/2PvIZt/3oOdbv3ob29HS6XC36/X1t/j0dHRwcqKiqwf/9+/bcgCEMTEcSCIAiCdpOoefwN1L+wHL7WVuRfOBFlH5mH3LPHI8FmHj5LKJtMSLAmImtOGco/vhB5F01CoikIx5JNaH5hBdo37UFPTw88Hg98Ph+CweAxI2tMnDgRc+bMwbvvvovt27fHth5OKBRCV1cX3nzzTfzsZz/D1772NXz/+9/H/fffj8rKSn08QRBOHyKIBUEQRjB0k3DXNKFt5VbUPfuOdpOwl6Sg9IbZyDt/IlLKc2M5hxfJJZnIO2cciq+bicwp+UC3A47lW9D57hZ07alCT5cDXq8XgUBAi9mjiWIK4oULF2oL8e7du7WVmCK6N3St2Lp1K1avXo3169ejqqoKO3bs0P9eu3at9kkWBOH0IYJYEARhBBMJBNH09hrUPP4mWpasR+rYmJvERxcOGzeJo2FNT8KoD89G2c3zkDl/NEIHGtD5+lo0v/weHI0tWsQaovho7hOjR4/GvHnztK9xdXU1du7cqX/Tm87OTjz77LOor6/H2WefjV/+8pf4xCc+gdTUVLz00kvYsmVLLKcgCKcDEcSCIAgjFNeBelQ/9gbqn18WdZO4aBLKboq5SViHkZvE0Yi5T2TPHaXdJ/IvmQxLYhiupVvQ+uK76Ni897juE5yAx+gSl112mbYkv/766+ju7j4sH0Xy3r17kZmZiYsuugilpaXa1YLWZYrklpaWWE5BEE4HIogFQRBGGJFwJOom8d6WXm4Sc5B33oQBdZOoqmrAkiVr0dnpiG05cSor67F06Xp0dTljW04Ouk/knzsexdfNQtaUApiczhN2n6BlOC0tDeeeey7S09O1GwQtxQ7HoddDMd3W1qYtwnSz4GdxcTHKy8t1XgpvQRBOHyKIBUEQRhgRJc4MN4nmxb3cJIoHNrTa66+/hy984WfYvbsqtuXEefnl5fjSl36BfftqYltOHu0+cX3MfWLeKIQq6k/YfYKh1qZOnardJ/jdhg0btCg+HkcL6SYIwsAjglgQBGEEQTeJGrpJMJpESysKLp6I0oNuEomHuUlELZuduO++x/Cf/7wGj8eLUOhQQRgMhlSeLvz+94/iscdeV+Lx8DxHIxAIHpKf1t5f/vJfePzx1/W/j4Xx23A4arFtb+/Gz372D9xxx9347Gd/gq985df485+fxNq12+F0unWeo0L3CUu8+8SUqPvEsq1R94ktR3efoLCl68SMGTOwaNEiPVGOvsTx2Gw2jBkzRk+6Y0QKfjLPunXrkJ+ff8iiHoIgDDwiiAVBEEYA8W4Stc8sgTvOTSL/GG4S1Hx+fxCbN+/F+vU7UFXVqEShL/ZtFIfDpa20q1dvw9691TGh+L5bQV+ghbWjo/v4AvYI0J2Bori5uR2NjW2oqKjFqlVb8fbba9DdfWJuFdp94pwJsegTBTA5jOgTWw9zn+jtJzx27FjMnz9fT6BjiiclJQVnnHGG/nvZsmU6/NqSJUtUue3DrFmztFgWBOH0IYJYEARhBHDQTeKJt9D89jokj8lA6Y10kzjjmG4SFosZGRmpmDFjPGw2K1as2HSYv299fYsWnsXFeZg4cTSSY6u9nQxZWen46U//G5/61LWxLSdOXl4WfvGLr+DJJ3+Dhx76KX74w88jJycTzz//jhbKJ4o1IwmjVEeBEwwPuk+8tibqPtHUqt0naCXu7TqRk5OjV6sbN27cYRbfrKws3HjjjXoy3YoVK/Dd734XDz74oPYfvvbaa7UoFgTh9JF4N9eXFARBEIYtdJNofOVd1D23DL6mZmTOLETZzfO1m4QtN/W4vqz8nqmlpUNbgefOnYyCghy9jVbS9et34qWXlmP+/KmYN28KCguj1mZOlrvnnr/jxReX4Y03VmHNmu3avcFutyItLUXnoTvDu+9uxk03XYpRowrR3e3CH/7wmLbwUoQTumlQdD/55Jt4+um31b5Worm5A+vW7dAT6/jb0tJ8fT4U8FarRVtwV63ahv37a9S2RFx22SItmE8IXm9igl7VLik/DUG3H4EOF7xVrQip/SLJAru6fgpfWn0LCwsPlpHFYkFRUZHezmgSM2fO1D7GXAaabhO5ubnateL888/HpZdeqifjTZ48WU/IO9lOhDC0CfZ49PLNrUs3IkHV3fzz5sCm6mqi6lgKA4dJvcxOblxLEARBGNTQTcJT14yW5RtR++TbcFfXIaU8EyUfmoX8i6cguezEBCJFLN0YXnjhHTz00Mv4/vc/g0WLZiI1NVn7/D733BK9/Xvfu0Nvz8xM07975ZUV+MtfntJ/UxDa7TZMmVKOCy6YrxOhb/KvfvUAnnjiNzjnnNloaGjFLbd8R4nrafjd776l81D0Uji/+eYqbelNSbErAVyALVv2YvfuSv3bM86YrvOSjg4H9u2r1uKZYnrcuDLcfPNlKCnJj+U4cfxdbjS8uQsNL21F++pKIC8b6efMQvYFs5FeUoDktFTYlOC1WqxIUCJapskJfcXb2gXHjgPY9ZuHYclIwdTv346M6eNUZ3VgJ7iOdEQQC4IgDFPC/gCq//Maap95Ry+6UXjpZJTeOBdltyyAyazEWx/iDLOpYESIf/7zeVx++Vk466xZ2j1i48bdWL58AzZt2o3vfvfTmDlzgraUEk6286tziETCaGxsx9at+/DIIy9j4cIZSjx/Wuc5EUHMaBL/+c+rKCrKw9lnz8Ls2ZPx2mvvKoG+VPsu9xbEdN946aVl6tx24aKLFuIzn7leu32YzSdhgVXXHQ6GUf/aDlQ9uhbtS/YAWelInjNBieI5SMnP0RZgq82q9m9BohL+gtAX/J0OuCrqUfnAS0jKz8Lk73wcmXMmqb9louVAIoJYEARhGOJv74ZzXy32/uEJdKzfoURqEJO+eQkKLp1y0nGGd+yowOLFa9HU1IY5cybjqqvOwb///RJaWtoxalQRrrjiLG2FpRCurW3SFlxadmlFptWW0Sr276/FrbderkTw1/Q+T0QQP/jgS/jrX5/Gf/3XTUoQz0ZhYY52hbj//ue18O0tiB999DU8/PDL2k3i3HPnYtasiVoMG0L9ZHDXd6Ft9QHs/tWbcNV2wZRkhU2dh9lu064OiQnRCB0f5BjCyCTsCyDodCtRXIf0qWMw7gvXI//C+UguK4jlEAYC6coKgiAMQ+guQQtx2OvTE+poEU60W5Bgs8Ry9B36Bi9YMC3mklCjhTFdFhgy7cwzZ2grLKH/Lv1733tvi87X0NAGl8utXS96ejyHRak4HvwNRTXdJDhxz25PwtixZVoYHwmGgKupacLs2ZMwdepY7Vf8QYUqQ9JZUmwwWRIQCYUQcHvgbu9Ej+oMuJha2+FWgt/T3gVfpwMBdb6BbpckScdNIY9Xq7HkUQUqFcKckqR92IWBRSzEgiAIwxH1ag95/aj89wuoe3YpWldsQcm1M1F68zyUfWReLFPfYHNBYfo//3Of/vfFFy/EE0+8gTlzpqhtn9aik4n+xowBTMspJ7xNmzYO6ekpOhza5z//U8ybNxV/+MN39D5OxELMWML33fc4/vSn/9E+yox2QZH8hz88in/849nDLMT/+78P6d888cSv9X5OhdG26e1d2mWi+ZXt8CmBjYnFsM6fAHtuphLoyUhOTtZCXbtPWG0wm83ab1oQjgc7WHxWfer5sKr6lL1wGpJkUt2AI4JYEARhmBIJh+GqqEXLO+tR+/QS+NvbkTYpFyUfnq0jTNiLM2I5TxwuhEGXBLpC0EJcVlaISy45A9dff1EsR3SBjM997h6kpCThs5+9QfsaM0IFfY0pVC+9dFGfBDEX6bj//udw9dXn4txz5+hJcoxY8cgjr+DddzcdJojp2rFnTxXOO28ecj/gxKSAw4OWFfvR8PJWNC/fB3eiGUElhjF9FKwF2bCnpyIlNVUv35ymPrkkc3JKCqwWCxJPxmdZGHmEI0oUhxHy+PQIDkVxovo0SdSRAUUEsSAIwjDHua8azW+t0WHX/J3teqlmLtOcvXCMEsV9E4xcHY6T455++i089dTb+PKXb9GT7Bg9woBW5B//+C86hBp9jYuKcnXs4m3b9usQbB/+8IV9EsTvvbdZ+wrTKky3ibFjS1FRUafDunEhkN6CmN/V1DTqYxsRL04Gb6sT3TsaUf3oWrRtqIWz24vQ3HKEp5chUp6vQ6zZ7XYtgjMyMg4mimOGWJMwaoIwdJDxHEEQhGFO6rhRGPOpa1Hy4fNgzcpGw8vbUPPYWrSvrIjlOHE4OW369HGYMWOCnkDHuMPjxpXGvo2SlGTVE9ro2vC///sgvvvd3+OFF5bFFuzoe7NDP+APf/giJbRdePjhV/CDH/wZdXXNRxWcFM///d+/1ML4g9C1pQ5VD61G40tb0ePyA/PGAudMRmR0nnYf4cp4XMKZPtPxSzkLgjD0EAuxIAjCCMBwn6h/YxUqHnsNJlcPsqYVaveJvHPGI6noxN0nODmOFlhaZ2mF5WpwCXEh3DjJjv7CzMPJbfQr5gp02dnpeulnLqKxcGHUort7dxW2b9+P886bi/z8bO2SsWLFRpU3Q0/gI7RKOxw92LXrANrauvUKcSUleXC5PHpJ5t6uEXSZ4Llxe05O391CAg4vWlbsA2MP013CY7EgPG0UInPKEcpNQygxuiAJBTl9hrksc2Zmpl6NjkksxIIw9BBBLAiCMIJo2rQTe55+A47Fm5DgcSNrcj5G3brgpNwnhiO93SRc3V5g4XhEZo5GZEy+tgpTkLPp5MQ5ukwYgthIIogFYeghLhOCIAgjCEtZAdKuXgT7edMRsNqi7hOPrzsp94nhSNeWelQ9vBpNL8fcJOaPA86ZgsiovEPEMK3ejCJB0UthzE+JKiEIQ5fEuxWxvwVBEIRhjt/vh8fnQ9huRcScgGCPB4HGLgQ6enTsYltOCsypIy/cU8Dp1aHVGl7Ygtb3KuBLS0FkdjkwbxzCWSkImegq8r4YpgCmFZjh1mghjoZds2sXCk62k7BrgjC0kKdVEARhBKGH+VOUiBtfhpQzpsB+znT4bUno2NGIumc2on1NJTwNXbHcIwO6SXRurEHDi1vRsq4aPb4wwtPKEJkxCuHSbO0zbIhhYohhCmAKYSNFYxBb9fcUzYIgDB1EEAuCIIwgKIgZJox+rukTRiPtmkVIOnca/Gbr+9EnVh2I5R4ZdG2tR6WOJrEFPQ7f+24Sow91kyDxlmEdeziWdPzhOFEs1mFBGFqIy4QgCMIIwhjy1ylBJYZBS0lCxJqIkHaf6B4x7hMH3SSej3OTmFOuBfGR3CTYmTCiSsSLYcNlgkKZ7hIihgVh6CGCWBAEYQRBYUfB9r4oVuItzQ4kWRFWAtBX3wF/UxcCrU5Ys5JhSU+CJW34iWIdTWJrPeqe3oTW9TXo6QloMayjSYzKRQiRQyzDFMNHsgyLGBaE4YEIYkEQhBGEIYjjkxbGqUoUl+Yg5PPBV9sOx8r9CPsCsGTYkT61KPbr4UPb6kpUPbIGja9sgzeiROzcccB5UxEpzERICeHebhK0DIubhCAMX0QQC4IgjDAOWofjExfWSFTimO4TlkSE3B4EmroR6Iy5T2QPD/eJoNOLRiOaxLsV8KWnIDJL3CQEYaQjC3MIgiCMUCj8uOSwz+eDx+NBT08PnE4nnHuq4Vy5DZ7l22EN+pE1Jbp4R8b0Em0xPqWoJigSCiPkDWp/5gRrYtSvuR8IunzoqW5H9WPr0LahBs5OL7AgtuhG+aGLbhBxkxCEkYMIYkEQhBEMmwCKYq/Xq5PL5YLToURxWzscL62Ed8V2hHbXoejKacg7dwIyZ5fFfnlqCAdCCLl98DY5kZBkgS0vFYk2c7+IYseeZj15ruXNHfClJCMyd6x2kwhnp/TJTSI+3jCtyIIgDH1EEAuCIIxwjmgp7nbAub8GrtU74V62BRaPF9akRFizUmK/OjXQHSMSUqLYQwuxCYlKFGv3jX4QmgGHB95uJfytVoSnjQLmjUU4Nw0hc8IhbhJGaDVago0QdWIZFoThjQhiQRAE4RjuE1VwrtoBz4b9CLR06XxKxtLTQX9G+QDiNRiCyRuAqcOJiMUMKMEdsarP/hKbdiswtRSRaWXA2AJ9PfFimG4SnCAnbhKCMLIQQSwIgiBo2Bz0dp9wKVHs6OiCY2cl3K0d8Pv8h4hI8kHcBkwuL0wNnUhcuQcRJYbDC8YhkpOOiE2J4lMNz9OaiEhxNiJ2y/tyXm2nwDUsw3SJiBfD4iYhCMMfEcSCIAjCQSh0j2gpbmpDT7dDb/P7/ToPJ6GxCdGNyEk2JaZuN0xVrTC/tgmR/AyELpqGSGEWIkmWWI5TCIUs3TFoJY75KBti2JhA1zuihFiGBWFkIIJYEARBOISjiWJ+MtF6TFEcCAQOWopPuinpcMFU0YyEZ1cDSgiHr5qDSEk2kGyLZQC6u7vR2dmprbS01lKkGvD4DocDbrdbn3NBQYEWrycCxa0hhukmYUyiMwSxiGFBGDmIIBYEQRAOg02D4T5hiGImCk/+m9spmI1QZUwnQ6TdCexrROTplTAVZcN07Xy9QEi8IN6yZQvWrFmD0aNHY8KECRg7dmzsG+hz2LVrFw4cOKBdPC6//HItio9HvGWYYthwlTAEsSGGxU1CEEYGIogFQRCEI9LbUkwxbPgXcxsTrcTM80EEMcO6+f6zFAklObDeuAgJo/JhihPEbW1tWvCuX78excXFOPvss5GZmamt1I2NjVi8eDEyMjIwZ84cjBo1Sgvb40ExTJ9hil3DOmyIYkMYi2VYEEYOIogFQRCEoxIvio1EIRqfaCVmOhlCrd3w7ahG9z9fg0UJ4fSPXghzeSESUt5fFY/7psvEiy++qIU5LcUUv9y2detWLYqnT5+OCy+8UAtYnjNFe11dHbq6uvRvKHrz8vJQVFSkBS/zEYp85mHi7/gdxfaYMWN03qysLJ1PEIThjQhiQRAE4ZiwmaAopjXYsAj3TicriAPNnejZUoGm+56FTQnhgjuuQtL4EiSkHmrlpfCurKzE66+/jpUrV+Lzn/88Kioq8Pbbb+NjH/sY5s+fj9LSUp2XYpgi+fHHH8e6dev039nZ2bjoootwzTXXaCsyfZEp7rdv364tzMuWLUNra6sWxOPGjcMNN9yg88+YMUPvUxCE4Y0IYkEQBOG40HrK5uJonyfblHgb2tC1bhf2/fIhpEwoxdiv3ITUyaNhTj90ARAehz7MFK6vvPIKOjo6tEsDxe0tt9yC8ePHazFL6FqxfPlyfU4UwnSnaGlpQUNDg94PxTStzE1NTfj1r3+t/YOnTp2qrcH8DX2RKaLPPfdcXHHFFXqfgiAMb8QxShAEQTguR/K5pQDl5LP41dz6mlLV77mfhMQEWMxm7bt7pP1R1NJ/eO7cuTjrrLO0tZji9tJLL8WkSZOQn59/MC8tvatXr9YCmNZiTpyjFbumpgabN2/WopfHoKCm+KX1mb8rLy/HzJkztTsGBXN6enrs6gVBGO6IIBYEQRCGDIwyceWVV2qBzGgTjCpBK3A8FMRr167FQw89hLvuuguf/vSn8aMf/Uj7INPySwFMKMTnzZunRfGDDz6If//733jvvfe0xZhW5zPPPFPnEwRh+COCWBAEQRgyGJbq+LBpvUOi0QJM94c777wTf/3rX7XQpeClQL733nv1hDlCqzB9ij/3uc/h9ttv15bm2tpaPPHEE7j//vu1/7EgCCMDEcSCIAjCkMIQwPzsLYYJ3S4KCwu1BZnuFTfeeCOuv/56Ha6NYpjuHgb8Pf2QmY/uGPwdFyFZsmQJdu7cGcslCMJwRwSxIAiCMKygPzF9gJcuXap9ibnSHSfhrVixAg888ICeYEe4wt0zzzyjF/2gP/GiRYt0dAlOpGtubtbuFYIgjAxEEAuCIAjDCsYk/shHPqJ9ixlS7Vvf+pb2IWaINX5nRKOguwUn6nGlu5/97Gf40pe+hB//+Md46623dEzjBQsW6HyCIAx/RBALgiAIQwoK2gsuuECL2yNBkcsJcRS0ZWVlB32NS0pKMHv2bB0Zg9AqPHnyZO0yYSzowU+6TVxyySWYMmWKzicIwvBH4hALgiAIpw1PXQva1+zA9p/8A+kTR2HSnbchfWo5LBmpsRxHhuKVHGtZZTZvRiKGz3G833HvPCQ+T3xeQRCGL2IhFgRBEIYcFMLHEsOEYpZ5GJWCiX/3Fri988TnEzEsCCMHEcSCIAiCIAjCiEYEsSAIgiAIgjCiEUEsCIIgCIIgjGhEEAuCIAiCIAgjGhHEgiAIgiAIwohGBLEgCIIgCIIwohFBLAiCIAiCIIxoRBALgiAIgiAIIxoRxIIgCIIgCMKIRgSxIAiCIAiCMKIRQSwIgiAIgiCMaEQQC4IgCP1OyOdHoNuFSDAU23LifJDfCoIgnAgiiAVBEIR+J+joQU9lAzxN7Qi63LGtxyYSDiPQ5YSnvhXumiYtjAVBEPoDEcSCIAhCv+Nr6UTnpj1wbK+AV4niEyESCKGnqgHdW/eje1uFEtKe2DeCIAinFhHEgiAIQr+TVJiD9Elj0PDKe6h58m04dlUh2HN0getr60LH+p2o+McLcOyuQuacSbCkJce+FQRBOLWIIBYEQRD6HXN6CuylefC1d6N99XY0vLgcrn21CPRyn6CbhL/Tia5Ne1D/wnJ0bd2PcCCI5FGFSLBZY7kEQRBOLSKIBUEQhH4nwWKGJSMV6ZNGw9vYjj33/gctSzfC09AWyxGFbhKuijothiv++izMdhtSxhTBnJIEU6I0WYIg9A/ydhEEQRAGhASrBdkLpyFt8mgEnG5UPfIa6p5eoifMhb2MJNGD7p0VOPCP59H01lqYLNH8dLUQBEHoT0QQC4IgCAMCrcTpU8uROr4MSEzUE+Val29C++ptOqyau74Frcs2qW2b0VPdBEtGCjJmjkfy6MLYHgRBEPoHEcSCIAjCgGAyJyJFidvUMUWw5WTAlGDSk+vqnl0Gb2sXnHtq9N8MzZaYZNET8dLGlyKpIDu2B0EQhP5BBLEgCIIwoCSPKUbBJQthL8lDgtWMSCgERCLq/0xhJNptSJs0GgUXzYc1Kz32K0EQhP5DBLEgCIIwoCSX5SP/vDmwZmcAJpMWwhp+hiPacpwyugh5587WE/EEQRD6GxHEgiAIwoBiL85DzpnTdOQIbR2Og9KYSzTbi3KQc8Y0WNJTol8IgiD0IyKIBUEQhAFFh2DLTEPGtLHaEqzDqZlM6v8mJCZZkT5lDFLGliAxxS6h1gRBGBDkTSMIgiAMKBS5tA5nzp6I1AllerKd0sKqRVLbk6Pb0yaM0sI5+oUgCEL/IoJYEARBGHCMmMTpU8ciwRwVvvQdTkxNRs6Z03WsYkEQhIFCBLEgCIIw4Bgh2JIZaSLJosRwgt5mTk1CSnmxhFoTBGFAMUUOTu8VBEEYXkTCET1BKxwMIhIIIuwP6EAGwuCh/rml2PN/j8Fd06zDrWVMH4vpP/4s0qeNi+UQBhMMk0dXFibt6qI6MoIwHBBBLAjC8CL2SuMHRXCwx6OXCeZKaP4Ox/shvoRBQfeWfWh6Yw061u2AJTMVuYtmoPCKs5BUnBvLIQwmrBmpekKkNT1ZT3pMsFnfd/MWf29hCCOCWBCEoY96jUVCYbgO1MNVUYeeSpWqmvSKZ8FuN8K0DscsxMLgItDlgrelQ3dWaHW05qTrFeoSk2yxHMJg4qB12JKoQ+LZ8rORWl6sl+NOHV+q/6blWBCGGiKIBUEYstAlwtfaAU9DG9w1TXDsrIJrfy3cDU1KaHUj5PWqtxwb8QSVEvVwrzC4YBMUCYTg73Tre2TJsEeH4cXYOCgJq3vFxHsWiZjUPbOqe5aJlFFFOmJIxvRxSBlTBHtxrtqepidKCsJQQASxIAhDkkg4rK2+rcs2oun1Vah/aTm8zZ2IBIOwZCarhrkY6VOKkFKeo0WWJd0Oa3aKCK1BBoVVwOFF58YafZ943xJsFpgS5UYNRgLdHtXZVEnds57KNjh2N6Frc63axg6NVU+ILL3xQhRduQiZMyboaCLyzAlDARHEgiAMOQKOHjh2VaLhxeXo3LwX3sZWmMwhZMwoRsY0Dt/mwZqVDHNaEswpVj28qy3EFrEQDza0hTgYZyFWHZeoGBYVNRgJc5KqP6TvWbDHj6DTq++dY1cjurc1oHtro7qPSdqFouDSM/Ty2zrWtPgXC4McEcSCIAwZ6AMc6O5Bx/qdaNGW4feQYAXspenInFmK7Pmjka4EcfKobBmqFYQBgq5LPQfa0LWtHu2rDqBrUw18bV4kl5Ug75KFyDlnJpKVKDbbrEhM5CIsJiQwzJ6IZGEQIYJYEIQhg7+9G13bD2DffU+gZfFamKwJKP/UIpTeMAdZ80bJZB5BOI1Erf1h1D2zEbVPbUDTGzthG1OMrEvmoeyLH0ZKbhaS7HaYzWZYLBYtjgVhsCCCWBCEIYGvtQsda3eg4v4X4K6ugy3PhpIblRCeMwqpY3O1i4SEfRKE0wslhae+C11b6tD42na0r6tFEFZkX3sWcs6bjfRJo2Gz2ZCUlASrNWoxFoTBgETUFgRhcBOO6MlznRt3o/GNVehcvwNJxckoumo6iq+egYwZJbHJciKGBeF0QzeI5NIs5C4ai9Lr5yBzWgHg6UHHW+vQuWkPHI0tcPf0wOv1wu/3IxRitAqxywmnHxHEgiAMasKqwQy53Gh4+V3UPbsEiUkJKPnQLIz++BlIKspAok0mygnCYIOd1IKLJ6Pw8mlIH58Dz7rd6FyzAx27KuFyOOF2u7UoDgQCCIfDsV8JwulDBLEgCIMaX3OHEsJL0b3jAGx5KRj/3xcg54xymFOTZFKOIAxyaCkuvmYGbMWZ8O2vg2Pldjg7OuFyRkWxx+M5aCkWhNOJCGJBEAYtIa8fPdWNaHj1PQRdDmRMK0TBpVOQUp6LBKv4HgrCYMdemoWsuaOQc2Y5Ev0+uLdXwlHZAGebEsUu10FLsbhPCKcbEcSCIAxaAl1OOPfVouWdDbBmmZF37ngths2psqyvIAwFGP7QXpiBsutnIyU3BYGaFnRv3Q9HQzOcTucholjcJ4TTiQhiQRAGLc79dejeXqEXA8icXYacs8bpxRsEQRg6WDLtyF5YjuRRWUAohOD+BniaO9DT03PQbcLn84kgFk4rIogFQRi09FTUwbmvRodUSx2fr63DsqSvIAwtEm0W2EsykVyWDVuqFeGqZvjaurQYNkSx4TYRDAZFFAunBRHEgiAMWlyVDXDXNCBtQh7sxZkwp9gkvJogDDXUI0vXCQriVPUcm+rbEehwHBTE8ZZimWAnnC5EEAuCMOjgxBrGHva3OxDyepE2qQDW7OTYt4IgDEWSCtKQXJSOBG8A4R4vgm4vvB6vFsLxbhO0EsvkOmGgEUEsCMKgIxIMIdjjQcDlZiBi2EszdZi14Up1dSMee+x11NY2x7YIwvHp6OjGiy8uxc6dB2JbBjf0JdaL6ITCCHt8WhD7/T4thOkywU+xEAunCxHEgiAMOiLBIAKdDoS9Pj2JzqYa0cSkk1+AI6gEtt8fOCQFAkFtiQqpxvlI1ij6MTLfQPgzrl69FZ/85A+wfv2O2Jahi1Fu/Wnh4755/3jv+hPun8c50rUM1DkciwMH6vGNb9yLV15ZEdty7HM+3STarTpCDOOHR2glVoI4GAhoIWyIYlqIRRALpwMRxIIgDDrCgRACXT0IK2FlsiTAnGFHgvXkBfFf/vIkbr75uzrdeuv3tPj8whd+hp/85G94/PHXUVFRBxet0XGsW7cTH/vY97FixabYFuFEePPNVfjc536KHTv6z2rZ3t6NH/zgT3j44ZdjW/qHZ59djK9//bfagt+b+voW3Hnn/8NTT70Z2zI4eOSRV/D979+Htrau2JbBQ6LdAnOyNepTrJ5x+IIIKwFPAUwhTOuwRJoQThciiAVBGHyoBjHk9WnXCVNCgm5ITeaTf11t2rQHGzbshN1uQ2qqHTabVVvQmps7sHHjLjz33BI97Ox0utX26G/M5kSkpSXDYpGlofsCyyslJQmJif3XvHg8PtVR2Yjt2ytiW/qHvXursWTJWjgcPbEt75Og6mVKih1WqyW2ZXBgs1n0eQ3GVRxN6pkycUEdnpsSwhElhMPqgaMA5miNkWSBDuF0IIJYEIRBB9vCCBvMWJsYbdw/WAM/c+ZE3H//j/DAA/fgvvu+hx/+8PO46KKFcLk8uPfeh5XwWYempjaVM3rQOXMm4W9/+wHOPHOG/jdhI20MSTP5/dHP3g244TZAV42o9Sua70h5jwazRIVC9Pfxrh7xw/TRYx09VBV/z3QsjGMcejyKEyVYjrDfQ/NH8xruJRdeuAD/93/fxqRJo/W1Mu+Rrpfb4sUP06HHf9+tJf4c4l0C+FujXHq7LvCQh+7vxMuf30fzRutg9PfR8zF+W1SUi3vu+S986EMX6n8T49yM6+bfTPyb58Lv+ffxzsW4NuP38fs4HjfddBnuuuuzyMnJ0P82roW/N86Pybie6DWe2nM4GnyMDxHqPKw6Do8VLR+WW7RcBGGgMamKePiTIAiCcBrxdzrh2HEAu37zMDz1/7+9MwGTqyzz/b+qq7q6el/TW9bOnpCVJGxhEYgo6BVRUYSrDjIzKiLXq4jLg+Iogsvo6BVnnsFxdFiUCAiyk5AQlkAWspF9T3enl/Te1Vvt9/y/qpMUTRKydHWqO//f83xPVZ366pxTp6qrf+c97/d+BzD9Bx9Bwblj4K2I/ZM/WW6++W4TDV68+KfIzMwwEuD3B9Bmbeedd3bhySeXm+jxnDlTcOONV5vo8KpVm/Hzn/8Jt932GVx66blmPdXVDdi4cSdWrHgbzc1t5p94bm62Jc0zMXfuFEybVmX6rVy50bz2yivPM9Fo5gb7/UEUFORg6tRxRhrHjRt5OIr66KMv4qabvmft38/w8Y9fbpZxwNS2bfvw+uvrzXY7OrrM8tGjyzB//nRcccV5RjDWrNmChx9+Hl/84rVm//k+CH/aGUllukhGhgf/+39/xLx3vrdEenr6zL6y74UXzjLrq69vMseI+3reeTNw0UWzzb5SZpha8rOf/cm8d75vvtfq6nrz/De/+XkcPNiIhx56Dl/4wv9CZ2cX3nxzE/7xH6/DpElj4luM0dHhwwMPPIH8/BwsWnSB9fo07Ny53/Tn++3u7jX7yvd7wQWzcPHFc6z3loFnn30V99+/2DqmW1FYmIvp0yeY9V177WVmm4Tvna9/6613sH79dhPp5fEvKyuy+o+3jt0C637xe46FTV1dk/Ue/4glS94yAx3nzZtmPueRI0fgjjs+jzFjylFb22iOw4UXzsRnPvMh8zqm37zwwkosXDgHhw61YvfuGrMv/LxmzZpk0hg2bdqFXbuqwUg6jyu/W6NGlR6ONLP/O+/sNp8Dv5v83PncxImjzTHgZ8zX8rPgMfj0p+/El770SbNf5E9/ehqbN+/Gt771BZSUFJj3zs93ypRx1neuwnyvuW/8fEeMKDDbnz//HKtvvvkMCPeBV1W4fu4DP3N+ryZMGIXLLpuHc86ZcHgfTgbfzkbUPfMOtvzwGfRdNAWRiyYjOrII6db30+v1IicnxxL5ImtfSqzPp8xE4YUYLPRtE0KcVfCfOEWIl5UpODNnTjSRYl4W37ZtryV6sRhBY2MznnnmVZMrasO0CwoqZZi43W4jFrt3VxvJoUgQCuXf/74CS5euwvbt+802nU6HyX19440NWLduu5HIY8H1sA9FmvvF11Nq09NdRsQ2bKCsbEF7u88IE/ebKR+J+0rR5X5QrvbvrzumvDDqRwl98cWVRm4pqtxXCu+WLXuwevVma917DudYM7LIfswVprT5fN1G+rOzM40U79tXZ6SQQl9f32z13WAtO2jk2IayWlt7yORp79lz0EQfV69+x3pfO812+Pnw/XKfue+UWgoan6Mc2tvifaa1sHEfbLht7jvfF7fNqwsUuKamNpMiw2ObeKz6k5gOwWPBEwlug8tsSWN6zSuvrDGfr82OHQfw3HNvmPdF+eX+8zPnMXz66VeNYHLfYsvbzcnVm29uNMeD9PUFrONRY75nfM88SeH75PHhZ8B93759n5H7Y8H3zXQSfv6EJ30Ue6Z+bNq025wIulwu8x1jbvTq1VvMd8leJ1/H7zKXbdq00/TnPnDfKMfcBz7P782AYO0H96V/E2KwkRALIc5qCgpysWDBdPMP/uDBJmvJsf8Zv/zyKhPhu/rqi03Kxc9//nX8n/9zo4lc1tQ0xHsdgcKRmekxfX/0o1tx3XVX4NChNjNQj9J0LCijFE5K7lVXXYDvfveL+PWv78AvfvENE1WkZC1evMTI1ahRZSatg4JNGbKhLDPCHItslhqhO1ZElHCdFJ2PfvRS3H33l619/kcTYWS08dlnXzcymQi3feBAHT75ySvxy19+A/ff/53DEXIK1IgRhSgtLTKiyuPAqKsNt0WRpPgwMsko8fPPv2FkP7b9L5n3+6MffQWzZ0+2XnvIlBejZH7oQxeZlAxGKz/84YV48MEfm3bDDbEoLWH1hZdeesvsOyOrd911C37609vxkY9cYuRz6dK3jNwdC0aS77nnq+a9MTXiJz+5zWyD62A093jws2NNXUZef/jDL+Pzn/+o2eYjjzxvouc8+frxj2/FTTddY8mm31SI4EkF4UnDK6+8bQSaJx633HKt6ft//+9NKCrKNyc3PMmyBfpk4HebJxT/8A8fw7333oYf/OCfTSSbJwzPPPPaYYFube20vuerzfeT51Bf/eqnzbG49dZPW9+hLHNi8sora40oCzGckBALIc5qGDmkFFOE+U/+eMEph8Npchzb2jpNZJZCV1lZYonu5ZYkL4z3OsJll52LD37wAnNpn23GjAlGkHp6ei0hPHYVBkYh2e/LX77eXOIvLMxDRgajsF5zyXrKlLEmetfR0W2i3NwGo7EUJjsvlfLIKGNl5QiTz/t+TJo02pK0q826ua+U2WuuuRjjxlWaKCYjjYlMnjwWn/3sh00qBCOoR4PbXrBghqnisWPHkUgqTx5WrXoHVVUjjbBStL7yletx880fM9unxFOk+b6vuupCaz2lpmrFiYogBZzHh8eKYkqxz83NMmktH/7wRUbOk1XzOS8v20g7Rb6oKBfz508zx4EpB3wvs2ZNNPm9PAnj+2xoaEGQFRcsKKyMalN+KeNjx1ZaJwu55vX8jvE9UPJPRUbPO+8cfOITV5gUFK6Hny+/NzwZ4fGw83Z5hYAR5lGjRpj0HZ5wsQ/TRK6//oPmc+GJGqPWQgwnJMRCiLMaCnAsTeL98yEZAR0/fpQRLkbJnn56hYmm8XIypaF/WsLEiWNM7iYv/7Mxb5V5t7w8TYE9FlwPxYUCzMv7jJ7+9a9L8OijL5mUi61b91n70GCiehSmGTMmmsv7ra3tZt+4nBFcVmGoqCgx+/x+MKIbyyUtMPvK9ADKOOWNubB2BNGG/c89dxqKi/PNScXR4LaZf8vI765dNeY4sfExI7RVVZVm3/j68eNHmgg20wqYJ8z3+/jjS00eMGWa0VWW5ToRmI7A6PjevbUmZ/aJJ5aZiDoHTm7btt/sC/skA5648ASEkWUex4qKESY6z3QXnjzwO0A55nLKJVMvGFUmPDZMv2FjGsxzz71ujgHTb5hOsnNntRH5U5HR0aPLzfckLy8nnnbiNcec9xmZtlOF7JQJNso3Uz0ee2ypiWTzhIs5yUw3YaqQEMMJCbEQ4qyGdU95CZ8SytSHfk77LhgFvvzy+eYyM2vgso4xa74+9dQr5jJ9/+gyI3FsNhQgCifTM44X7WSEt66u2QgcB0R95zu/wVe/+lP88z//CLfeeh/+8Ie/oaOj04gRBYxyykguB0VRACnDTJmgyFLAxo6tiK/52FDeKL8UJMJouC1PjIYzMp4It8tI8rFkmHDbHARmp1dwn9goxDxeFGLuN9ddXd1oxP+++/4b3/rWr633e5+pFc1bzuIX24cTkzDm3jL3mAMK77jjV/jSl35s2te+9jPce+8fTJ4uKz0kA0b3+T3iceN3ipLPZUdbTuyIPuH3gseHKQzf+9791nu/1xyDW2+9F9/85q/w4otvmvdm9z8ZvN7YFQbmRBPug/1Zc7tH9iF2BeRvf1tufbd/a237Jwn78EssX77WiPup7IMQqYyEWAhxVsOcSV6+d7vTTPoBReFYUGaZw8uczn/9129Y8vY1k9rAiB4HpfXPP6bEsdn09fnNCH9KJAeGHQtG6555ZoWJDvOy/513fsGUgHvkkfvwpz/9C2655bp4RC+2PcoWKxlQjCmVzPNkpI95tvn52UaU3w+KFtMs7MFV0WjEkrNO85jVMd4rvo7jHivCY8oTAkbJuY8rVqw1kXUeE1ZdKC4uMFLGfWVEmALPtILvf/+f8MADd+Hhh+/FH//4Q3z60x+MC1ji8T32timejDzfeefN1nq+b47bn/98H/7yl1jj/c9+9kjO8bHhNo7/HgcSSnJBQR4+9alFJif7wQfvMfuauO/33vs18zknCw64Y6oK02d+97vv4qGHfpKwDz81+8DPJ/FET4jhgIRYCHFWQbFiZJX5mqyIwBH9HCzHaCjLSdkRtKPBdAQKLS81s9zWxRfPNa9hVI8Ryf5BM16252VnCh8bLzW/+uo6cPIE5oUem6i5ZM26yNzWwoWzsWjReUaOx4ypMDm7idviPvMyfWlpobUfB43gc/Aeo7NM5Tjee7LhtpiO0djYYvaVl/JZzYIVNSZNGmtSKE4WSjD31U7pYHRx+fI11rHvNQLP3G0OwOMAMlZR4HFkLvOll841Jes46Iv5wxRcfm72e6aHMwWBqQYckNa/bi2Fcfr0KhPB5vFjLjcHJzK6zxQOlhtLTz9SleJYUFDZmPPNqGiyYSrF1KljzSBInnyx5B2PA3N9+R1gRJ3H80Q+z1OFUeRp08ablA7mGV9wwUyzD4sWnW+dDM7C2LHlZh94BUGI4YS+0UKIswLKE6WGkdD29i5T9osl1JgbyTxgCiqrNVDijgWjwIsXv2TyKJua2o048hIzBeVoUViWHOO6KZlszJvl5X9Gh1nj91hQ/OycTkbsGKXs6fEboWZeKaU6EUZqmZ7ARoGj2FLQGc1mtO9EYL7tY48tMQOmuK/cFi/RM5WB9Ykp1qcCI8scYJaZ6TX1m9l43C68cLaJXttQeI+kEjiMNFPun3xymam6kAg/Iw7Eo0hz/yjviWXAKG08GWA1Dx5/9mEaAPO2Kfms1cvP5v1gWgjljwPfeGIQG3TZ76xnAOF74mfGyDzzdnlCxRMwppxwYCLLALLWceJVh4GGOek8IWHJPh57npixwghzrhnBZ3oQp7Tu7X13TrkQQx0JsRDirIAVFz73ubtwww3fxj/907/grrvuN5Fhit53vnOzmayBEbHjpQFMnVplopX/+Z+Pm3xK5vb+5S8vmeXXXLPQRC4TYRUFSvj3v//vuPPO35iBXSzpdcklnAxherzXe6HwMXVgwoTRePjh53DHHf9mcjjvuecBk3t8rOgyI4ssRcZcZb4PRhs5oOtE4OA4vg8KD3NH77rrd0aEWBWB1SZO9TI9BZeRTb5vRuYprkzBYDUJSjKhdHLGN1ZX+MMf/o7bb/8Zvva1n+I3v/mzOdHgaxNhJPWSS+aaGs3f/vavzefKnG4b5iUzqsoTHIrdfff9l8lF/v73f2cGQrJ6w4kMNGTUnakd//M/z+ArX7kXX//6Lyy5fm95vYGCaQj8bvDKA9NJHnroWet782tzPO6//9HDkXW+/2TBz4aRdO5DVlYmfv/7v5k8bL73f//3v5rPkCcbjNALMZxIu9sifl8IIVKCsD8Af3M7ml/fiJCvAyWXToK3Ih/unKOX93o/KHacRIPiRZmgJDJyypm7KDyXXjrPyGRiWkB3d5+RWcoBS08RXt6n4Pl8veY+I72UU17a53pYcouwQsBf/7rUlMpiSgUjmNwu+7IyA0tusZ6tHY2m6FA0rrzyfFOZgXBfOdCN0VRGWfmYg94oI6wYwHQA9mc1AxvKMsujMcLLMlmUwljE9dgwR5j5u5Qx5q7aqQE8RjNnTjCVJ3hrSzYj14wWMi+Ykd/+MIWB74uz8fGyP1/D98FoLqOrFGFehuf7sKPq7MPoKCWLedaMivPYMgVk7typ5j2Wl5eYlBF+buzPFAxuh/15n+vlsSbcV5Y0Y1oE+3LbXCdTNPhZshQahZjbPB5MC+B3gseE2+LrKdlcNz8vRmpZys2O9jPlgykHlMnEHNvY8kwj8YknKG1tHWZd7M/neTz4Ou4/3xP3m1cf+N3hsWDqCacgpyzzc2XEmt8tllRj+TrCaDL3k5FmfmfYh+lB3G+eYPWHOfT8XrE/PyceJ36PuX1+7/h6ftd58sITE37m3A+evNjf3xMl0NxtZqtrWrELoTHFiI62vus5XqRZ2+Tfp8fjsbbDCVCyrOP03qotQiQTTd0shEg5gu1d8O04gK33/hE91fsx7a6rUTh/LLyV+fEeqQ1LZV1//Z1mABIlc7DgZBeclYyX3Fki7hOfuDL+zLFhlPX6679lBJ0D0IRIFp3bG1D39DvY+qNn0HfJtNjUzRUFcFsi3H/q5vLy8pMWbiFOB33bhBAph8OdBndeNpzpbkRCYQQ7ehFJUpms4QIjecwD5gx3jIJySmohUolwXxDhHn+sWIj1Nx41aReKAovUQEIshEg5nLyEmm8JsScdUUuIA+09CPslxEeD9XyZ4/rQQ8+ZwWe8vM66w6wSIEQqEe4NItTNlBzLiFnGz+OWD4uUQUIshEg5TIQ4PwdpGemIhKLwt1hC3BerjzsUYC4oxZS5l8mGJda+/OV7cPvtPzcVHDgYj4PYTqZMGnNWmS8qRDIJ9wQQ6uozVVQYHY569J0TqYOEWAiRcnAwjdMStPQCS4otWevafQjBtp74s6kP68c++uhPzTTNyebii+dg8eKfWdu7Dz/+8a2mXjEHXZ0oHHj13e9+EV/60qfiS4RIDv5mH/qafECGG/Cmx6LEGjgnUgQNqhNCpCw7/+3POPjkMgR9HZhy5wcx8uNz4HDpPF6IocjOf3sZBx5bh45D3fBfPQfhuePMyS8rTGhQnTjT6NsmhEhZssZVwjuyAl27m9BX34FQTyA2a4UQYuhg/c1GwxH01LShq74TkfICIPvUSigKkSwkxEKIlCW7qgK5U8ea+x1b69G+oQaRUMQ8FkIMDTiQrnNbPXrr2hEOR+GI1x8WIpWQEAshUhZvRQlyJ4+Bt3IEuve2oOXNvQh1+U20SQgxNAi0dqPptd3oqetANDMDGDsCDgmxSDEkxEKIlCW9KA/Zk0ajcN4U9NXxn+ouBJq6EFEJNiGGBNFIFH2Nnah/7h30NPqAkhxg3Agg94gQa0Y6kQpIiIUQKY23rAijrl+EzLEV6N7XggMPrzLTvwohUp+e6la0r69Bx+Z6BHKzEJ1UgSgn5Yg/Txk2VWWcTlOu0G5CDDYSYiFESsMZ6wrnTUXB3Clw5eSiYck2NK/ca8lxs1InhEhR+LfJusOtq/ej8dVd8HcHEK4oBMaXIZrmPCzEpL8Qq7qEOBPoWyeESGmcHjcyyopQcukcS4qnmUhTw0tb0fT6bjPzFS/JCiFSCOtPkjNL9jJVYslW1L28A5HCbDgmlAFjShB1HkmRsCPEtgy7XC5zy2VCDCYSYiHEkKBg1iSUfuh8ZM2fBN/+NtQsfhu1T6xH9/6WeA8hRCoQ7g2gc0sddvxyKVrXHEA0PwtYNMsMpotanhuJRMApEOzIMCWYtYjT0zljotsIsRCDjYRYCDEk8JQUIGfGeBRctQCOEcXotKS49m8b0PDiFrRvrDWXZ5VCIcSZIxIMI9Deg+a39qH2qU1oWLodPZYBR6eNAqaMRCQ/ExFLhCnExI4M2zLs8XgkxOKMISEWQgwZ0ksLUXztJci+bDbCebmof2kr9v/pLRx8Yr2pcRrq9iMaCmvyDiEGE0quJcPBjl507WrCgUdWY+8fV5qqEuFJI4ELpyBamI1ImhPhcNg0YsswRdhuEmJxptDUzUKIIUNfXx+am5rRuvsA2tbvRPvydcCBBqRHQsiuKkLxwgkoOq8K+bNHwpXp0TTPQiQZnoCGugJoXrsfzW/sRcvK3eja34q+NBei8yYgOrUS0fICRDwuExm20yWYJsGocFZWlpmyOS8vz7Tc3FxkZmYaORZiMJEQCyGGDIFAAJ2dnaZ11Dag9e3t6Fm7A4EdNYg2tSO/qhj5U0qRN70CGeV58BRnw53nRVqGG07rHzKbBuukFlEKUihiBkg60hxwWp+VI82pzylF4WA51gEP+4MItPXA39SFvoYOtG2oRdu2evgOdiIyIg+YWA7HvPGIFGQhkv5uGWbeMIXX6/UiOzv7sAhTjPk4IyNDUWIx6EiIhRBDhlAohN7eXnR3d8Pn88XEuLoOXRv3wL9sA6K7GxBt7TIylTNpBPKmlCFncinSi7KQbv1j9li31pPxtYlUIBK05KongL5Gnzlx8ZRkx05cVHorJWGOMGeeC7T0oG1rHTosCe7Z04Ro2FKJwmzgnDHAeRPgsIQ4aolwOC7CdpoE/zaZFsEoMOWXEpwow1zO54UYbCTEQoghA/+xMkrc09NjGqXY19oOX2MzumoaEDjQiHBNMyIHW5De2QN3IAi35b8OdxqcbOmKOqUc1n8gU7PWH7Ik2GF9RpRhfmjx50VKEQ1agmudxEQCYVh3EUp3I1yQjWhlIVBZBJTlI2qdfEYzPdZHGz0sxISRYTtn2JZhW4TZGDFmGgXTKYQYbCTEQoghA3+uGGny+/0mn5iR4q6urpgYW633UCv89S0IHmxGtKEdaPUB3X7A+gcODrYLhuOeJdtKGfjZ9ATgbGxH1ONGtCQXsG6RpghxKhJlXr51cgmX1bIyAJZUK8+3RLgAKMoGvJYIW39e/Fu1G7FlmOkQFN9EGWYeMZdRlJkqoYk5xJlAQiyEGHIwdYKRYjt9wpZi3mfkmMuDwSDCVj9Gs4wUW83R1ScVTjV81mdS1wrXq9sQtYQqct5ERIopxYoSpiKM/CLbkt4s65Z5vgmTbJD+SkG5peQy6kvpZUqEPZDOjgxTku0KE0KcKSTEQoghB3+2GCnuL8WUYd5nYxSZz4ctMY6EwogGwyZKbH7w9LOXMjjae+DY3wTXs+sQLc1F+IoZpipBNENylJIwQkwRZgSfLnyUnHx7QKQtw0yDsCtKsNn5w4mRYQqzBlKKM4mEWAgxJLGlODF9wpZjNi5jY6SYEWV7hLvdRGrgaOuGY3cDHE+sMpfeo1fPQbSyCFFveryHGCpQaO1my7CdM8wosC3ElOBEGVaahEgFJMRCiCFNYvoEBZi3dtoEG4XZlmL+3NliLFKDaIsP2FWPyF9XwlFRAOdH5wMjiwBemhdDCluEedtfhhMlmI+VJiFSDQmxEGJIw58wO32CjQJsy7EdPaYQs9nln/SzlzpEmjsR3l6LvoeWw2mJsOcTFyJt9Ag4OGBLDCkSI8NMgUgUYluK+dhOoVCahEglJMRCiCGPLcVsjARThNlsSbaF2O5jl4ESZ55wUwf8m/ej/ffPwz26BLk3Xg73uHI4JcRDDjsyTNG1hdiW30QRtqVZaRIilZAQCyGGFZRdSrGdJsFmi7J9X0KcOgQaWtG9YTfqfvM4MqrKUfbFa5AxoRJpOZnxHmKo0F+I2RKjxfZjIVIRCbEQYljBn7T+zc4btptIHXoPNqF9zTbs+MmfkD1xJMZ/7XpkTx0Ld25WvIcYSlCK+zc7r9huQqQiEmIhhBBnjN7aQ2hZtQWbf/gAcieNxuRv3IjcaePgzsuO9xBCiOSjBB4hhBDJh6GXU42/nM5rhRDiBJAQCyGESDphfwCBji5EQqH4khPHfm2U028LIUQSkBALIYRIOkFLaLt216K3tgnBzu740uMTDUcQaOlAT3UDuvfVIdznjz8jhBADi4RYCCFE0gm0dqJz6z50bNxlBNdEe4+TBhFlzeheP3w7DqDjnd3o2lWDcI+EWAiRHCTEQgghkk5GWSFyJ4/BwWdeR/WjS40ch7r74s++l0BzB1rXbMGeB55Cx9b9KJg7GS6VYhNCJAkJsRBCiKTjys5ERkUxIv4g2tZtR81jL1tSvNfkBifCyLC/qR0tqzaj9vHlJs3CkeaEt6IETo+m+RVCJAcJsRBCiKTjdLvgzs1G7tSxJn1i1+8eR+PLa9Czv97kCrOSBKuAMk2ic9s+HPz7q9j34PNw52Uhe1wF0jIz4NDMZkKIJKFfFyGEEIMCI7yF86cid8oYhLp6sf+hF1Dz+HJ0H6g3A+Y48K5zy17s/f1TaFy6xkh04fxpyJk8Jr4GIYRIDhJiIYQQg4LTnYacKWORNX4knOkukw7RsnITml/fgGB7F3qqG9G4bK2ZqKOvoQXpBTnIPacKmaNK42sQQojkICEWQggxKDjS0pA5coRJgeAgO4clyL7dNah/biX8LR3o2lMbu9/UhrSsDHgrS5BtybOnJD++BiGESA4SYiGEEINK5phylF55HjIt4WWkOGJyiKMmh5jN6fWYNInSy+cjPT8n/iohhEgeEmIhhBCDCqPEJQtnI70g13rkMDJs4I113+FwIGt0GYoXzoI7Lzv2nBBCJBEJsRBCiEHFW16EwnlT4M7Jii9JxBJkC295MQrPZR/VHhZCJB8JsRBCiEHF4XaZVIjc6VXIGlsOhyvNWuiAw+lAmjcdeVPHIXt8JVxZXlODWAghko1+aYQQQgwqrCfMusIFcyYhZ+IoOC0htnzY+o8UW54/ZzKyJ44+LMpCCJFsJMRCCCEGHdYkLpg3FTlTx1ni64pHiJ1wZXtRuGAaciaNjvcUQojkIyEWQggx6DAqnDWmLDYlc0a6kWGWZUvLykQWy7KVFsZ7CiFE8nFEWeNGCCHEWQ2nT46GQogEQggHgoj4g/FnkgunaN7127+aKZzTMj3ImzEB077zBeROGxfvkTyYs+z0pJvSb06320wcohQNIc5OJMRCCHEWEg2FEQmHzS1buC+AcHcvgr4eBDq6zDTKg0Hn5r1oXPY22tZtMyXWOFVz6ZULzMQdycaZlgZ3QY6pduHKyTSD+CjHjFQ7XU6Tw8z7Qojhj4RYCCHOMhgN7tpdA9+OanTu2A/frhozVXKwo9t6zhLlYEySB4MQBby1A8HObiOglGJPcZ4lpunxHknEYUmx2xJga7u8dedlmWmiOTte9oRRyJ08JlYFg5UuFDkWYlgjIRZCiLMB66ee0yP31DRaAmyJ8JZ9Zqrk3romhHu7rKdDcLocJm3A6XGZSOlgEI1EjYAHmnxmm+7CLDiNgMY7JBH++4v4Y2kikWAEUas50zPgyspGRmmxEeOcKWOQXVWJzNFl8JQUmDQLIcTwQ0IshBDDHJMS0etH24adaFy6Cgf/vsIS4WZLRsNIz89E3sxK5EwqRdbYIrhyMuDO8yI91xt/dXKJWPsW8vWhfWMN3NY2c6aWI80Scg6ySzacMjrY3oNgZ69124ueAy3o3N4A345GBNp6TPULb3kJyq46H6VXLDDVL0xahcrBCTHskBALIcQwhj/xXbtq0LhsLRpeeBNde2ssEwxacjcaBXNHI/ecSktEGRVNN5NiOFzOw/mzgwKjtKGIkWJu25XtGRQZNsS3bfKpgxFE+gIIdQUQaO2Gb1cj2t6uQcfmeoS6w8gcWW6EeNQnL0dWlXXMNIOeEMMKCbEQQgxTKHptG3eiacV6NLz4FgItTfCUZqJg3hgUnjsGudMrTFRYaQDvhikUvQfb0bG1Hu0bLCneeBA9NR2WP7sx4gPzkH/BOcieOQGewly4PNaJBAfhWRLP5lDkWIghiYRYCCGGIZFQyAxU2/lvf0H9c2+ga3c1yj80HZUfn43K6+aYgWKSt/cn1B0w6Rw1i99G7ZMbEPL5kfuBuSj6+CVmpr3M4gJkeL1wu92muTjJiBBiyCEhFkKIYYhvZzUal6zCgb8sQcTvQ9FF41Dx4enIm1GJjNJc5cCeIKzIEfT1oXtvM1rW7MeBh1ajr80P96gyFH3mcuTOnIDssmJkZGTA4/GYxoixTjaEGFqk3W0Rvy+EEGKoE41Vk2h58x1U//klhLrakTerHKM+PQ8Fs0fBU5IjGT4JmE6SluFGekEmMuLHLtDUia6dDQgFg4hmeuAs4nJ2dhgRtlMnJMVCDB00dbMQQgwjWMaM5dSa39yEplfXIWtcPso/OA0jLpmI9MKseC9xslCKs8YUYdznL0DZomlweZzofGkt2l7fhI66Rvg6OtHT04O+vj4EAgGEw4NTx1kIMTBIiIUQYhjB6ZebXnkb7Rt3IKMiH2UfPgdFF02IPytOB0eaw1TkKL18MqpuvgCeHA96tx1A2/L16GxsRldXF7q7u9Hb2wu/34+Q9VkoK1GIoYGEWAghhgmhrl50H2gw9YZDvg6UXDwB+TNGIqMsN95DnBZMh3CnIXt8CUoWTkDOtHI4LQHuWb0dvgP16Gxpe48UM1IsKRYi9ZEQCyHEMCHQ1ol2S4a79hyEK9uNio/NgrciT2XVBhhGibOqSlB0yUR4c9IR3FZt0lR8jc3w+XxGipU+IcTQQkIshBDDBH9zG1rf3oKwJWKZowpQfH4V3AWaQCIZpFtSXHnVNORPL0e0L4jgroPoqz1kosOUYTtCHAwGEYlE4q8SQqQqEmIhhBgmBFo60LZhB9IynJYQF8JTmos0jzv+rBhInB4XcsYXI3NssZldL3qgCYH6FiPDkmIhhh4SYiGEGA5Eowi0+dC5ZR88RRnIHF0YS5VQtkRS4LF1ZXngKc8zzdHYhuChNiPBFOJEKWbahAbYCZHaSIiFEGIYEPYHEOzsQbC9G+klOSY6LJKPZ0QusqtK4ApYwuvrQ6gvAH+f34iwHSGWEAuR+kiIhRBiqGOJVrinD+HuXkQsMXPneU0TySfdOs6Z5blwWp9B1JJhfg7BgN+IMAfV2QPrJMRCpDYSYiGEGAaEuvsQsmSMpcFcWelIy0yPP3PiUNg6Orrg83XHlww/wuEI2to60W2dPAwE7iw3Mgoz4XA5EfUHEbHWGwoETd4wpdjOIValCSFSGwmxEEIMcRh4pAyHe/3mcZrXEmLvyQ+m67HW8eMfP4D//M8n4kuGH42NLfj2t3+DRx55Pr7k9HBZJx4ZBZlwpjnhCIbh6LWk2JJfRoQpwowO20KsCLEQqYuEWAghhjxRRC0Zi4TCZhAdJ49wutLiz504Iev1mzbtwo4d++NLhh99fQGsW7cNe/cejC85PXisXRnu2ADGcMQ6iJb4RqKmqgQl2BZj3gohUhcJsRBCDAcYfbQDkKwskeTqEsFgyKRWtLZ2orm5HS0t7ejs7DLCebRAaCAQtJ7vtvp1mP6trR0mbYGv4WOuLxH2j60/1j+2/m74/e9ev50C0dXVE1/ybhj15jYp+7H77fH7vTh0qNW0Y732RHA4eAZy5GBThrmDjAbbUmw3RYiFSF3S7raI3xdCCDEUsUTL39SOjs170PLmJoy4bBJyp5TBU5wd73BiUDb/+tclyM/PwUc/eml86XuhUG7duhePP74MjzzyHBYvXoIXXliJffvq4LTkcOTIUnNrZDHen5HnxYtfxIMPPosnnliGV19dh44OH1588U381389iXPOmYDS0kIju+FwCO+8s9ta/8t4+OFnrX1aipdeegv799chLc2JysoRh9ff1NSKu+76d5MKMX/+dLO9RB5/fCl+9auHMWvWJLzyylrcffd/YOfOAzhwoB5Ll67CY48ttdblxNy5U+OvODmC7ZwuuwVNK3bCn5uFaNUIRHMy4Ux3WfuahvT0dGRkZMDr9SI7O9ssE0KkHooQCyGEOGF46Z8pFWvWbMHGjTvg8aRj1KhSI7P79h3E6tWbsWHDDhPNJYz8bt++D2vXbjESnZXlxejRZSguzrfEtBqvvbYeb721yQzmi/UPYtu2fWb977yzC5mZXrP+4uI87N5dba2f2915OKrr9wet7W3H3r215nF/amoazT4x2lxSko9Jk8Zacpph3S8wEs5WVlYU7z0QxE4CGA3u34QQqYuEWAghxAkTCISwcuVGS3C3mnSFT31qEe688x9w222fMZK7bdt+Ey1mmgJh1Pn119cbSXa7XbjppqtN/1tu+biJzDIlIhGmXLD/unXbzfM33PAh0//LX/6UiVxv2bIHS5a8hbY2X/wVJ86VV56PH/zgn41g8/7/+393mvaRj1wS7yGEOFuREAshhDhhmP7AyC1TF2688WpMnjwWRUV5KCsrwUc/egnGji3HqlWM+MaElRFi9qcMf+YzH8KECaNRWJiL8vJiS0QvxoIF55h+NswdZgQ4IyPd6n+V1X+UWX9lZSmuvfYyky6xZk0s4iuEEAOFhFgIIcQJw4Fi9fXNLHeMmTMnGrll2kRWVgamTBlnorjMz+2Nl4BjFJn9Ge1lekJBQQ7S090mFYIyzXzjRDj4rK6uyeTazpgx0eofW392thdTp1YhJycL1dUNJvIshBADhYRYCCHECcNcWMouU2Ipvy6XyyznADfKKiPBPl+PEWHC/j097B9FXl6W1T82qIyD4rKzMy0xzjCPbSKRWH+Sl5ed0N9p1s/HzB+21x/jSN5uIlyXcneFECeChFgIIcQJExPfzHiFhzaT4kAon8wHZuSWUV23+4j42v2bmztMDjJhpJnl0vqnPrB/bm6muc9ya3Z/CjDzkjnoLibisfUzUm3fZ1/uB+H6Kc52pPrdxARaCCFsJMRCCCFOGKYyjB1bYYRz2bI1qKs7ZMSzvb0Tq1a9g8bGVkydOs5Uk7D7V1VVmtzjFSveRkNDs6k/zEFxrP7QfxIQRpyrqkYa0WaZtPr6JrN+yvabb240UjxlSqxSBOH6mWPMGsObNu00dY0pwYcOteGNNzaYEmuJUMw9HrdJzWBlC94KIYSEWAghxLugUDY0tLynsZQaI7+s6cvUiGeffdUMgNuzp9YS2wOmrm9zcxsuuGAm8vJyzLqYL8z+jOI+99xrph4xS6Tt2lWN5cvXmFJshJFeQlmdPXuyecz+HJDH9W/fvt9a/1uWePtw3nkzkJubZfpzPyjQFGJunwLMesXbtu3Fiy+uNFUpEuFgwMLCPBPJpozX1h7SAD0hhCbmEEKIIU90YCfmYF1gyionrUhsXV29WLhwtkmJYE4vZZJRYU6uwVJplE1OjvHhDy80dYkpq0yBKCzMNxFl1ilm1HbJklV4++2tcTENmtSIT37ySlOfmOtlxJepv7W1jVi5chNeeulNvGm9L66PMnzVVRdixIgCE022UzI6OrpNBJlSvHz5alP+bdSoMhONZmoHy8NVVJSYSDWlmpL9t78tM43bPPfcgZqYoxTI9ZqJObh/Ho/HTMqRmZlp7WeOiWgLIVIPCbEQQgx1KMTNHUeE+NK4EJecnBDbA+ZGjCiyhPa97ZxzxpvKD0yHYOUHDojLyso0YstqEXPnTrHEcpqpHsHIMNMTKJusEMEZ27xej7nPSTFGjizDxImjjbAy7eLjH788PsOd06w/I4MiyfV7LUHON7WD7fXzdZRje/0cbMf9YXSZsl5eXmLSNObPn2bKtDHFY+HCOWaQHl/D9XLf+RruCyPYkyaNiR+Fk8MI8f4EIR5vCXGOhFiIoYbD+gHUEFwhhBjCRCNR+Hbsx4FHXsL2n/0Ppt11DSqvnY286eXxHmce5gSzUUIpsRwcx5nqnnxyOV5+eTV+9atvGuEdanTtacKh5Tuw9Z7n4RszAuErZyBaXgCXJdycspkSXFhYiOLiYkvUy82JgRAi9VAOsRBCDHGYb5vmzbCaxzwO9fgR7k2tOr3MAf7LX14wqQqtrZ0m3eLpp1eguroec+ZMssQxNghvqBHqDcLf3osoy8C50xDNsISXH4gQYkghIRZCiGGAKysuxNEowj0BS4hj5dBShb4+Pw4ePIRnn30NDz74DB599EXs3l1jUhauuOJ8FBTkxXsOLULWsfa39RghjrpdgNcSYqeEWIihhoRYCCGGOg4H0jK95jI9ZSzk8yPUfbT6u2cOTsJB6WUptYceehZPPvmKqTwxb950LFp0Hjjj3VAk2OVHb0t3rP6xx4Wo1y0hFmII4rjhhhuUQ5xkOIiioqICs2fPtn74F5lcMiGEGEgYoaxevATrb/8Fii8ch8qPz8HYz50ff/bME6s93GnSJfr6AiargNUhOGCOVSUcDueQzDTY/+jb2P3fK9G5rQF9C6cg9MGZcDidZkCdcoiFGDooQjwIsPB7TU0Nnn76aXz961/H8uXL488IIcTA4EhzIj0vC1njyhBo6UVfXXv8mdSA1SJYRWLmzIlYsGC6Kc82Zco4kzLBQXZDToajUUSCYfgbO9FT04ZIYQ6Ql6n8YSGGKBLiQYZy/MADD0iKhRADTnpBDvLOqUKg3R+TNH/QVKAQA080HDUl1/rq2owUR8vyAUqxEGJIIiE+Q/zhD39Ac3Nz/JEQQpw+6YX5yJ81GQ5XOnoOtqNjaz1Cvr74s2IgYY52y6p96NrdhGia9a90TAlQJCEWYqgiIT5DMFK8ZMmS+CMhhDh90ovzUHjuNGSU5CPQ3IVDy3bAb92KgSUaisDf0o3GZdvhq2kHRuQBFYVmhjohxNBEQnwG2bBhQ/yeEEKcPukFucifOQlZVRUIdYdQ//xm9Na2mVxXMXAEfX3o3teMQyt2wdfWC1SVxaSYJdficEY8NpvE+0KI1ENCfAapq6uL3xNCiNOHlRqcHjeKLpiB7KrR6Nhch7b1NWZqYTFwtG2oQc1j69DX0AFUFsExbzyimbFJUWzsaaVZZchukmIhUhcJ8RmEaRNCCDFgWL7lcKWhcO5U5M+eDKcrHc1v7LXaboS6/OZSvzh1ONkJTzKaVuxC06p9CBXmIFpVaklxIaKcpS4aG8BoR4fZKMIswcZbIUTqIiEWQohhBGvg5k4dh8IF063bsWhbV4vGJdvMJX4OBFPViVMjEgihr7ETDS9tw6FXd8F3sAPhySOBCWWIZmcgap2MJApx/+gwmyLEQqQuEmIhhBhmsCZx3jnjMeGr1yNzdDnaNtRix78uQcemgwj3BuK9xMnQub0RtU+sR83itehs8MExfTQc51aZwXQU4Ugk8i4hpgC73W4zEQdvJcRCpDYSYiGEGG5Y4pVRUoCiBdORd/EsOIsK0fTGHtT+bT0OLd9pKk8w4imOD1NMAq3daHptNw4+tQF1z2+Br7UHwcoiYP54oLwA0Qy3kWE2wsgwUyRsGfZ4POaWy4QQqYuEWAghhiFOjyVjpYUouOo8ZJ9/DgL+CGqe2IDqR9eifdNB9DV0ItQTiKVQKIviCDwc4QjC1rHpO9RpcoYPPLIa1Y+tQ9OGWgQrihCdNwGYMw5Rb/rh6LAtxIwEU34pwZy62RZiRYiFSG3SZsyYcXf8vjgDfOITn4jfE0KIgcaBkNMStuwMoCQPgbpWdO2oQ+tbe+E/5GPSKzJKcuBwO02ahYApUceocMvKPahe/Db2/fFNtK2rRp83A9E5VXAsnBqbhCPdhXBchBNlmJHhzMxMZGVlITs72zQ+phxTlCXFQqQmjhtuuEGxgTPII488Er8nhBADC6OXnZ2d6DjUjPYDlggvWwffup0I7K1DVmEGcscVIW96BbyV+cgozYWnOBtpXjfSMtxwZgzOJX5OgRwNhRHqDsDhcsJlbZ+VMlgxI+lEoqZyRLgvaKLl/uZuExXuq22Db0cjOva1wNfcg0hpHjChHJhUDseoYkQsGeaxZaUgyjDvM1WCkWCv12skODc3F3l5ecjJyTGPuZx9JMRCpCYS4jOMhFgIkSwoan19feju7kZXV1dMjDfsRPvL6xDcuBfhhjY4LKHLHFOE3IkjkDe5FOkFmaa58zLja0kukVAI4Z4g/E1dcHpc8BRlmVtWy0g2UUtoA609CLT3mO137DqErj1N6K3rQNTpgKM030hwdMHE2Ex0jLRb2CJsyzAll5FhW4YpwRTiRBlm6oQQInUZ1kI8d+5cXH755SgoKIgvOTX27duHdevWmTbQSIiFEMkkEAgYKe7p6UFXpw++phZ01jbCt6cWfbsPIrS3HmmHOuDq9cNlCZ7TnWYitSZKOxhYQskoMVMVHJaEOt2WCDOKOhiRVG47ZImtte0Io8WWhIdzsxDhrHMjiywJtv53jMhHNNcbqzNs7V9iZJjYg+govLYM2yKcKMMaVCdEajOshfiee+5Be3s72tra4ktODQp1fn4+Hn/88QGXYgmxECKZUN6CwSD8fn9Miru60OXzobOxGd0HD6GvuhGhgy0It/kQ7eqzDDoEBK0WiE8clGQvdXB73X44DrYCGW5Ey/LNFMjRwchppnSnW6Jqya655Wxzhdkm3xrFOQCj5NYySjAbsUWYUIYZGabwUnwTZZg5xIkyzL5CiNRlQISYgwXGjRuH8vLy+JKBpb6+3kRpGeU4Ge644w7zI/aLX/wivuTUueWWW8x75LpOV7ATkRALIZINJY5SbEeKmULhs6SYcsz7vb298FvPhfwBRHy9AMW4xx9/NZ04iVZsbY8y7Hp1G6KWjEbOn4hISS7gccc7JJE0B6JZGUBWuvWPzJJwSutR3qotw4TpEWz2ADr+/+OgOTZbiPvLsPKGhUh9TluIGT299dZbzR9/MuEP9v33339SMsqUCVZxGIjILt/nN7/5TbMerm+gkBALIZKNHeFk+oQdKbbziu37R6Q4iIglz5FQPELM18buJQVHezcc+5rgeuZtREfkIbxoBqKs7+u1JHUwYCSazWlJ63HE1ZZaRnptGabw2hUl7GanSXCAHftIhoUYGpy2EDNH94orrsBzzz2Hurq6+NKBpaKiAldffTVefvllLFu2LL70xBjIKDHlmpI9kFFiCbEQYrDonz5hN1uI2SjNIQ50s/raIs2WNFq74NjTAMfjq4DyfESvnoso83cHS4hPALs6RGJk2E6TsIXYvp8YGVaahBBDh9OuQ8w0gqqqKvzxj380+bqn0o436I2pEjU1NUa6eZ/tZOAlQkost8PUi9OhoaEBF154oblEtm3btvjS00N1iIUQgwUFzW6UO95S8NgS79uPKXX2Y95PSguE4WjvgWNrDZy5mXBNGw1XQQ5c3phUnulG+bVbfwm2B86x2TLM/w/sy+MnhBg6DFiE+Hvf+158yclhv/5Y2OkOHCB3KhFikspRYkWIhRCDiR3xZSSY0WK7CoXdGD1m43OMEidWVEgGkeZOhLbXou/BZUgbWQTPJy9C2ugRcDC3N0VIPFFgKgTFmI3ya0eE7RQJNqVJCDH0GLAI8amIKrGjxNXV1YcjwPyB4cAEYg+oO9UIMUnlKLEixEKIwcS+9G9f/mcU1L6lzFHsbOnj7xybHRlNRksPW/+IOnrgX78H7qJc5M2biqzyYmTm5Ry1/2C3xBzhxIgwHydGhe2IsiLDQgxNzniEuD/2QDhKLH9k7Kjw6USISapGiRUhFkKcaRgNZt6wnTvc/5YtWQQaWtG1YTcO/voxeKvKUXbLNfBOGIm0nMGZGOT9sE8c+p88JDYuE0IMbVJKiG0ZZhSX4nvjjTcOmBDb6z5axQmK9/FKxjGynCi+A1lxQkIshDjT2GkUR2v288mi92AT2tZsw44f/zeyJ43ChNs/jeypY+HOzYr3OPMkRtX7P05cLoQYuqTMtZ1EGf79739vRjsPJJRXii0Fvj9M+WCd4WO1OXPmxHvGoBxzfdzn4w0IFEKIoQCFzh5Ux4innTqRmCubtMb8W+bdOh1Is/aB2+Wyo/Y9Q61/jrAdFeYxkwwLMTxICSHuL8NMl0gGjDBTYC+66KL4khhbt2412z1WW7lyZbznEexI9dEEWwghRD8YcQ5HzO1JczqvFUKIE2BAhZhpB4yo8ow6ET5m+sO0adPiS47AZYMhw4RRXW6HNY0Z9eWAQLsdD76vxL5snMqZA/wo80IIIY5P2B9AsKPryIQfJ0G4z3ptp/XaJOYyCyHObgY0h9i+T7G1q0FQhinJlMqHH37YRGMToRBTKh977LF3yTBfd9NNN5kcXaYonG4OsQ3Xe9tttxmhHQgo2L/97W/jj04e5RALIc4Geuub0bO/Hp6SfKQXWy0/Vkmot/YQWlZtweYfPoDcSaMx+Rs3InfaOLjzsk1UONDSDn9zB0LdvciZMgbunNTJLRZCDB8GtOyafd/O102UYYrtpk2b4q86QlNTk1nO0cyJ8DHXY0vy6ZRdS4TrZQoE10PRttfZvzEvjOkVlPCjPc+2fv16vPjii+/Z95OB0XEhhBju9FlC3LFlL/xNbeBc0OmFeSZvOOTrMQPrDq1YB09RHoovnGlJcwGcrjSEunrQtmGXJdJ1CHf3wVs5Aq7M1KlPLIQYPiQth7i/DFNuUwkKLSX+WG3v3r2m39Ges1uisAshhDg2GaWFyJ0yFnXPvIGaR5fAt3WvJbnHHjztb25H66ot2PvAU+jYth/5cybDlZ0apdiEEMOPpAgxC5WnsgwLIYQYXFxZXiPFjjQnOjbvxf6HXkT7hl0ItHbGe8SIhsPoa2hB02sbcOAvS9Bb14Q0r8e81pnuivcSQoiBJSlCfN1110mGhRBCHMbhSoMrNwt508aZVIh9f3oGDS+tgm9XDSLBEBCJIhqJWM/1WqK8E3VPv4aax5eb1IrscRVGih2aBU4IkSSSFiHmYDMOXONAOzZOd6yavUIIcfbiTHejYP405EweY3KH9z/8ImofXxbLEWYlifYudG7eg72//zsalqwxEeHCBVb/KWPiaxBCiOQwoELMgXQ2jBBzIJzdrrnmmvdMcCGEEOLswel2IWfSaGSPH4m0zAz0HjyEltVb0bhsLQJtnejeX2+J8Gq0bdiJYIcP6UV5JqKcWTkivgYhhEgOAyrETI9InNCif+NANCGEEGcnzB/2lhcja1wFvCNHwOlJtyS4DoeMEPuMEDe+HJNjV04WssaWm74UYyGESCYDJsRMiWDZteNhT2pxso3rFkIIMTzIHFOGsisXIHNkiUmjiESisdno4o35wrlTxqD0A/OQXhCrVyyEEMnktCfmYF7wV7/6VVNmLZmwvBknwGDt4MEgccKRZKKJOYQQZxs9NY1oeWsLdvzyYbRv3IVwrz/+jPVPyekw6RSV/+sSjP/SdcifOcFM0iGEEMnktIWYUIY5IUdZWVl8ycDS0NBg6gIPZs1fCbEQQiSHiD9oSXED1t32r2h6fQNC3dZvezT2r4hpFe6cTFTd8jFMu+uLZiIOVqgQQohkMiBCPFzgNNJ2egYrZDD6zQk8CCPTLCM30EiIhRBnG9FIFIHWDmy/739Q/+Jb6Nx+wNQf5gyhjA7nzxiPsZ+7GlX/+LFYqTVruRBCJJOklF0bqkydOvVw3rJdIs5+TFlW2TghhDh9TFqE14OCuZNN1QlO00wZRjxdouDcKci2ljvS0iTDQohBQRHiM4wixEKIsxFOxtG1uxb7H3weu367GOEef6wKxcgSTL/riyi9fD4yR5fGewshRHJRhFgIIcSgw6hw1pgyeCtL4MxIN1Fj5gq7szNNqTVO1SyEEIOFhFgIIcTgE88X9pYXIWfiaHPfU5hr7nuK8uD0uOMdhRAi+UiIhRBCDAqsMRwIBNDV1YWWlhZTQag9GkR0VDGiGW5EczMRrCxAc1cnGhsbzWDmnp4ehEKh+BqEECI5KIf4DKMcYiHE2UIwGDSVe3bu3Ilt27Zh//796Nl9EN7dTZhVH0ZnhgPbK9wITypDcdVoU86TA5onTJiAysrK2MA7IYRIAhLiM4yEWAgxnAmHw2hqasKePXuwfft2HDp0yER9uZyCmxGMoqA7grEHutHjTUNNpdeIcSgtJr9paWnIy8tDRUUFpk+fjpEjR6KwUPnFQoiBRUJ8hpEQCyGGK5xMiWkPmzZtwuuvv46VK1fC4/GYUpYzZ840pS7LikuQiTQENx+AM8cL54QK+Pw92F9dja1bt2LDhg1obm6G2+3GokWLMH/+fEyZMgU5OTlwuVzxLQkhxOkhIT7DSIiFEMORSCRiZPaFF17A+vXrzWRHCxYswDnnnIPS0lJkZmaa5na5LR22+sfLrsGbjrD1Wr/fbyLJbEyzeOedd7Bq1Srk5uYaKf7IRz5iosZKoxBCDARpM2bMuDt+XwwyvBR43XXXxR8JIcTQhwPnKLNvvPEGXnvtNezYsQNjx441Mnz++edj0qRJRoizs7NNtJiR3zSrcYpml9djor5c5vV6jfwWFRUZmWbaRHp6Onp7e03ucUdHhxlsl5WVZXKTmYLBbbMRibIQ4mSQEJ9BmAvHS4BCCDFcYJpEXV2dufrFgXPFxcW48cYbcckll6CsrMxI7cnCSHJ5ebmJLjPyzBSMjRs3mugx129LcKIMO51OSbEQ4oSREJ9BLr30UljHP/5ICCGGPlu2bMFTTz2FvXv3mjzhm2++GaNHj0ZGRsZpCSpfy6tqJSUlpuoE18+ybcwv5iA7RpsJpdgWYkmxEOJEkRCfIfjD/pWvfMVEPoQQYqjDyC1rB7/55ptYtmyZkWFGhWfPnm1kNVFM7cF2u3fvNtUnmAJRXV1t2oEDB3Dw4EET/WX6BBvFlnAdTKVg+gTvU4Y58K6goMBsg9FnW4jZbCFmE0KI4yEhPkPccsstpoSQEEIMBzjhBgfPceAbpfZzn/ucGfzGfGAbyipFlyLLCC/zjNeuXWvSHyi2duMgOvaj/DJ4YIsxodxSfJmXzHJu3B77MAJNUbZJlGJFioUQ74eEeJDhDzdl+AMf+EB8iRBCDH26u7vx4IMPor29HVdeeSXmzp1rIre2iFKGGRmmALOxAgVvmQ/MChKbN282E3bU1NQYYeZsdp2dneY+fzdHjBhxeF285TLCW76e6x81atS7IsR2kxQLId4PCfEgwB9sDqBjzjDTJBQZFkIMJyivTHd4/vnnjQRfe+21ZgCdnddLOFUzK068/fbbRoRXr15tUibq6+vNcxRprsduTKmgDLOCBGWWkWammNmD8ii3XMZtvPXWW6biBAfYMZLM31xbgtn4mE1CLIQ4Fg7rbFp1iIUQQpwylOE1a9bgiSeeMJHhb3zjG/FnYrAkGgfbrVixwqRHrFu3zkSEKbHH+hdEkWVJtXnz5pk8ZK738ssvN6LN52yYt/y9733PRJM5zTMn7WA0mRN3sGwbb1nijTItKRZCHIsjvypCCCHEKcDpmCm4vBLGWegS4WA7Rn8prhRnRog5kO54Mkz4OuYRU6CZEsGBdtwOo8eJMGLMAXyMTHP9FGO+jikcvGXdYtZFZqSZ6xRCiKMhIRZCCHFatLa2YteuXaZWMKU4EUaHKarbt283OcJMkaDUnsjFSb6WMl1bW2vSLbgOSnEiFGJO9sFoMNdNCaYAU4RtIWbuMgf9cX1CCHE0JMRCCCFOC84aR+llqgJTGhJhJJhVJzhJB3OGKcMnE6llX+YSU4a5DkaaE2EeMStOMC2C/Wz55W2iDCtCLIQ4HhJiIYQQpwUjspRilklj3m8ilFBKMAfOMbpLOT1ZGOmlCHOgHQU3EeYTs9waxZhpEhRwRoIpwNwW942NyyXEQohjISEWQghxWlA8Kb2sBUwp7g8FlSLLPqeStmCvn2Lb//UUYkaHWV2C4sznKb6JUsymCLEQ4nhIiIUQQpwWlE9KJ6U0cSKORCij7zeQ7lgc77WsGsE8Yt5Seu0+9mtsKVaEWAhxPCTEQgghTgsKKVMlGMHtn9JAGMWlKDOCnFgy7UShaPO1vO1fNo2Sa0eG7fXbUsxbPs/nKMS8FUKIoyEhFkIIcVpQiFnv167skAgFlc9x0gw29j1ZWEOYA/YKCwvN/UQovCy1RuGllLPWMLFl2BZitqNFmIUQgkiIhRBCnBbMGy4qKoLP5zOD6xKhEPM5Tqs8evRoE8U9GRgRZkk1VpJgSTfeT4Siy+oSjE5TvBlFJpTf/lLMWyGEOBoSYiGEEKcFJ8UYP348GhoazAQaiTBiSxHmLHKctp5Ca0dxTwT2LS0tNZNvTJ061USKE2GOMOsbU8T53LFymIUQ4nhIiIUQQpwWJSUlRlYpw6w5nAiFlhHiMWPGYPLkyTj33HNNtJfLjzeNMp9j5JkiPWvWLEyYMOGoEWJGhjlLHifw4PMejyf+jBBCnDgSYiGEEKcFc4MZ/WWtYQox6wHbA9gotiyLxlnspkyZgoULF2L27NnmNUxxoMAyrYL92CjKFOH8/HxUVFTgggsuwIIFC0wEmq9JLOvG6hEUYUaImbvMtIxTyVEWQoi0uy3i94UQQoiThhLK3OA33njDSCoHv1FoE+WV4svUCub1cjnlltFeSjAH41Ggmf/LZYwGU5rPP/98Ex1mugSFm2KdWKWCUzqvXbsWK1euNNtkPzsdw5Zr7hu3zcF4fH3/QXlCCEEkxEIIIU4LiicbI8SM2O7ZswdVVVVGUm2BpexSTNk4s5wtxLxPUa6srMS4ceMwceJEI8Fz58416RVMs2AOMvvY66JUM3d49erVePbZZ81jpmRwHfbAOfblNinEFHBWoJAQCyGOhcP6IVEdGiGEEKeFPbjt6aefxnPPPYfbb78dF110EcrKyuI9jsCUCspzdXW1mc6ZUzIzF5gSy0gzc46ZLsGcYIpw/zQIbov5yn/+85+xePFiXHrppSaqTMlmhJr/1mwBpwTbAs7G9QkhRH8kxEIIIU4b/ivhpByvvPIKHnvsMZOycNlll+Gzn/3s4fxgG0ZxWTeYEky55X37X1FiZJeN9xNfy36U6f/4j//Ahg0bjABTiFmJgq/l+ux0Cco185SZvsGBf4xYU46FEKI/EmIhhBADxv79+7FmzRo888wzJk2BUsyBcRxUR7k9VfiviuK8bds2vP7661i6dKkpscaUCqZaMC2CecjsQyHmc1zGtAxGhe3oMCPGQgjRH1WZEEIIMWAwl3fRokVGUu20Bg58q6mpQVdX1+HqEyeDXU1i7969JgL9+OOPm0lAmDPMsmwUX3sCDsJIMSPElOLESDOXCyHE0VCEWAghxIBCgWVt4FdffdUILFMpZsyYgauvvtpUjzjZPF5GnSnVf//739HY2Ggiz3PmzDF5xrxPEbZnorOjw4npEnZjdPhkZ8oTQpwdSIiFEEIMKJRTDpZjesO6deuwdetWky9MKbWnYKbMMsLLnF5GeO2UB5ZgY+N0zHV1dSbKzMF3jDC3traaFAhGodlYMYL/wmwZ5n17MB2fY19uk9vgfW6j/wA9IYQAgP8P0sXL9CQBsuoAAAAASUVORK5CYII=;" vertex="1" parent="1">
          <mxGeometry x="740" y="150" width="348" height="428.12" as="geometry" />
        </mxCell>
        <mxCell id="UVocr931k_2hGVf8hIcp-17" value="&lt;font color=&quot;#000000&quot;&gt;Successful?&lt;/font&gt;" style="shape=hexagon;perimeter=hexagonPerimeter2;whiteSpace=wrap;html=1;fixedSize=1;fontFamily=Helvetica;fontSize=11;fontColor=default;gradientColor=#F0C686;fillColor=#FFFFC0;strokeColor=#FFA914;" vertex="1" parent="1">
          <mxGeometry x="430" y="440" width="100" height="40" as="geometry" />
        </mxCell>
        <mxCell id="UVocr931k_2hGVf8hIcp-18" value="Yes" style="text;html=1;align=center;verticalAlign=middle;resizable=0;points=[];autosize=1;strokeColor=none;fillColor=none;fontSize=11;fontFamily=Helvetica;fontColor=default;" vertex="1" parent="1">
          <mxGeometry x="510" y="410" width="40" height="30" as="geometry" />
        </mxCell>
        <mxCell id="UVocr931k_2hGVf8hIcp-19" value="No" style="text;html=1;align=center;verticalAlign=middle;resizable=0;points=[];autosize=1;strokeColor=none;fillColor=none;fontSize=11;fontFamily=Helvetica;fontColor=default;" vertex="1" parent="1">
          <mxGeometry x="560" y="360" width="40" height="30" as="geometry" />
        </mxCell>
      </root>
    </mxGraphModel>
  </diagram>
</mxfile>
